<?xml version="1.0" encoding="utf-8"?>
<!-- Generator: Adobe Illustrator 25.2.1, SVG Export Plug-In . SVG Version: 6.00 Build 0)  -->
<svg version="1.1" id="a14aeead-7a51-49c7-9dde-c662f5733ecb"
	 xmlns="http://www.w3.org/2000/svg" xmlns:xlink="http://www.w3.org/1999/xlink" x="0px" y="0px" viewBox="0 0 782 701.9"
	 style="enable-background:new 0 0 782 701.9;" xml:space="preserve">
<style type="text/css">
	.st0{fill:#AFAFAF;}
	.st1{fill:#F7F7F7;}
	.st2{fill:#F2F2F2;}
	.st3{fill:#E6E6E6;}
	.st4{fill:#747474;}
	.st5{fill:#FF4633;}
	.st6{fill:#FFFFFF;}
	.st7{fill:#CCCCCC;}
</style>
<path class="st0" d="M400.5,1.5l-25.4,6.6L61.6,88.9l-25.4,6.6c-25.7,6.7-41.2,32.9-34.6,58.6L111.9,582
	c6.7,25.7,32.9,41.2,58.6,34.6l0.1,0l364.3-93.9l0.1,0c25.7-6.7,41.2-32.9,34.6-58.6L459.1,36.1C452.5,10.4,426.2-5.1,400.5,1.5z"/>
<path class="st1" d="M404,14.9l-30.1,7.8L69.7,101.1l-30.1,7.8c-18.3,4.7-29.3,23.4-24.6,41.7l110.3,427.9
	c4.7,18.3,23.4,29.3,41.7,24.6l0.1,0l364.3-93.9l0.1,0c18.3-4.7,29.3-23.4,24.6-41.7L445.7,39.6C441,21.3,422.3,10.2,404,14.9z"/>
<path class="st2" d="M381.2,153.5L196.9,201c-4.3,1.1-8.7-1.5-9.8-5.8c-1.1-4.3,1.5-8.6,5.8-9.8L377.2,138c4.3-1.1,8.7,1.5,9.8,5.8
	C388.1,148,385.5,152.4,381.2,153.5z"/>
<path class="st2" d="M420,171.4l-216.3,55.8c-4.3,1.1-8.7-1.5-9.8-5.7c-1.1-4.3,1.5-8.7,5.7-9.8c0,0,0,0,0,0L416,155.9
	c4.3-1.1,8.7,1.5,9.8,5.8C426.8,166,424.3,170.3,420,171.4L420,171.4z"/>
<path class="st2" d="M411.5,270.9l-184.3,47.5c-4.3,1.1-8.7-1.5-9.8-5.7c-1.1-4.3,1.5-8.7,5.7-9.8c0,0,0,0,0,0l184.3-47.5
	c4.3-1.1,8.7,1.5,9.8,5.7C418.4,265.4,415.8,269.8,411.5,270.9C411.5,270.9,411.5,270.9,411.5,270.9L411.5,270.9z"/>
<path class="st2" d="M450.2,288.8L234,344.6c-4.3,1.1-8.7-1.5-9.8-5.7c-1.1-4.3,1.5-8.7,5.7-9.8c0,0,0,0,0,0l216.3-55.8
	c4.3-1.1,8.7,1.5,9.8,5.8C457.1,283.3,454.5,287.7,450.2,288.8z"/>
<path class="st2" d="M441.7,388.3l-184.3,47.5c-4.3,1.1-8.7-1.5-9.8-5.8c-1.1-4.3,1.5-8.6,5.7-9.7l184.3-47.5
	c4.3-1.1,8.7,1.5,9.8,5.8C448.6,382.8,446,387.1,441.7,388.3z"/>
<path class="st2" d="M480.5,406.2L264.2,462c-4.3,1.1-8.7-1.5-9.8-5.7s1.5-8.7,5.7-9.8c0,0,0,0,0,0l216.3-55.8
	c4.3-1.1,8.7,1.5,9.8,5.8C487.4,400.7,484.8,405.1,480.5,406.2z"/>
<path class="st3" d="M165.5,249.7l-65.2,16.8c-2.1,0.5-4.1-0.7-4.7-2.8l-15-58c-0.5-2.1,0.7-4.1,2.8-4.7l65.2-16.8
	c2.1-0.5,4.1,0.7,4.7,2.8l15,58C168.8,247.1,167.5,249.2,165.5,249.7z"/>
<path class="st3" d="M195.7,367.1l-65.2,16.8c-2.1,0.5-4.1-0.7-4.7-2.8l-15-58c-0.5-2.1,0.7-4.1,2.8-4.7l65.2-16.8
	c2.1-0.5,4.1,0.7,4.7,2.8l15,58C199,364.5,197.8,366.6,195.7,367.1z"/>
<path class="st3" d="M226,484.5l-65.2,16.8c-2.1,0.5-4.1-0.7-4.7-2.8l-15-58c-0.5-2.1,0.7-4.1,2.8-4.7l65.2-16.8
	c2.1-0.5,4.1,0.7,4.7,2.8l15,58C229.3,481.9,228.1,484,226,484.5z"/>
<path class="st4" d="M654.7,110H278.3c-26.6,0-48.1,21.6-48.1,48.1V600c0,26.6,21.6,48.1,48.1,48.1h376.3
	c26.6,0,48.1-21.6,48.1-48.1V158.1C702.8,131.6,681.2,110,654.7,110z"/>
<path class="st1" d="M654.7,123.8H278.3c-18.9,0-34.2,15.4-34.3,34.3V600c0,18.9,15.4,34.2,34.3,34.3h376.3
	c18.9,0,34.2-15.4,34.3-34.3V158.1C688.9,139.2,673.6,123.9,654.7,123.8z"/>
<circle class="st5" cx="694.2" cy="614" r="87.9"/>
<path class="st6" d="M736.2,602.6h-30.6V572c0-6.3-5.1-11.5-11.5-11.4c-6.3,0-11.4,5.1-11.4,11.4v30.6h-30.6
	c-6.3,0-11.5,5.1-11.4,11.5c0,6.3,5.1,11.4,11.4,11.4h30.6V656c0,6.3,5.1,11.5,11.4,11.5s11.5-5.1,11.5-11.4c0,0,0,0,0,0v-30.6h30.6
	c6.3,0,11.5-5.1,11.4-11.5C747.6,607.7,742.5,602.6,736.2,602.6L736.2,602.6z"/>
<path class="st3" d="M598,366.7H407.7c-4.4,0-8-3.6-8-8c0-4.4,3.6-8,8-8c0,0,0,0,0,0H598c4.4,0,8,3.6,8,8
	C606,363.1,602.4,366.7,598,366.7z"/>
<path class="st3" d="M631.1,393.7H407.7c-4.4,0-8-3.6-8-8c0-4.4,3.6-8,8-8c0,0,0,0,0,0h223.4c4.4,0,8,3.6,8,8
	C639.1,390.1,635.5,393.7,631.1,393.7z"/>
<path class="st3" d="M598,487.9H407.7c-4.4,0-8-3.6-8-8c0-4.4,3.6-8,8-8H598c4.4,0,8,3.6,8,8C606,484.3,602.4,487.9,598,487.9z"/>
<path class="st3" d="M631.1,514.9H407.7c-4.4,0-8-3.6-8-8c0-4.4,3.6-8,8-8h223.4c4.4,0,8,3.6,8,8
	C639.1,511.3,635.5,514.9,631.1,514.9z"/>
<path class="st3" d="M365.1,406h-67.3c-2.1,0-3.8-1.7-3.8-3.8v-59.9c0-2.1,1.7-3.8,3.8-3.8h67.3c2.1,0,3.8,1.7,3.8,3.8v59.9
	C368.9,404.3,367.2,406,365.1,406z"/>
<path class="st3" d="M365.1,527.2h-67.3c-2.1,0-3.8-1.7-3.8-3.8v-59.9c0-2.1,1.7-3.8,3.8-3.8h67.3c2.1,0,3.8,1.7,3.8,3.8v59.9
	C368.9,525.5,367.2,527.2,365.1,527.2z"/>
<path class="st7" d="M598.2,231.7H457.9c-4.4,0-8-3.6-8-8c0-4.4,3.6-8,8-8h140.3c4.4,0,8,3.6,8,8
	C606.2,228.1,602.7,231.7,598.2,231.7z"/>
<path class="st7" d="M631.3,258.8H457.9c-4.4,0-8-3.6-8-8c0-4.4,3.6-8,8-8h173.4c4.4,0,8,3.6,8,8
	C639.3,255.2,635.7,258.8,631.3,258.8L631.3,258.8z"/>
<path class="st5" d="M426.9,291.5H297.5c-2.1,0-3.8-1.7-3.8-3.8V186.8c0-2.1,1.7-3.8,3.8-3.8h129.3c2.1,0,3.8,1.7,3.8,3.8v100.9
	C430.7,289.8,429,291.5,426.9,291.5z"/>
</svg>
