<?xml version="1.0" encoding="utf-8"?>
<!-- Generator: Adobe Illustrator 25.1.0, SVG Export Plug-In . SVG Version: 6.00 Build 0)  -->
<svg version="1.1" id="be52d4a0-d7df-45d7-a4d1-9b9d295e8f0e"
	 xmlns="http://www.w3.org/2000/svg" xmlns:xlink="http://www.w3.org/1999/xlink" x="0px" y="0px" viewBox="0 0 825.2 661.2"
	 style="enable-background:new 0 0 825.2 661.2;" xml:space="preserve">
<style type="text/css">
	.st0{fill:#747474;}
	.st1{fill:#F2F2F2;}
	.st2{fill:#FF4633;}
	.st3{fill:none;stroke:#747474;stroke-width:2;stroke-miterlimit:10;}
	.st4{fill:#F7F7F7;}
	.st5{fill:#FBBEBE;}
	.st6{fill:#2D393D;}
	.st7{opacity:0.1;enable-background:new    ;}
	.st8{fill:#AFAFAF;}
	.st9{fill:#FF6584;}
</style>
<ellipse class="st0" cx="614.9" cy="645.2" rx="191" ry="16"/>
<path class="st1" d="M804.9,466.2c0,78.4-46.6,105.8-104.1,105.8s-104.1-27.4-104.1-105.8S700.8,288,700.8,288
	S804.9,387.8,804.9,466.2z"/>
<polygon class="st0" points="697,560 698.1,494.4 742.5,413.2 698.2,484.1 698.7,454.6 729.3,395.8 698.9,446.7 698.9,446.7 
	699.7,393.7 732.5,346.9 699.8,385.3 700.4,288 697,416.8 697.3,411.5 664,360.6 696.7,421.7 693.6,481 693.6,479.4 655.2,425.8 
	693.4,485 693,492.4 693,492.5 693,493.1 685.1,643.5 695.7,643.5 696.9,565.8 735.1,506.8 "/>
<path class="st2" d="M772.4,607.3c0,22.5-13.4,30.3-29.8,30.3c-0.4,0-0.8,0-1.1,0c-0.8,0-1.5-0.1-2.3-0.1
	c-14.9-1.1-26.4-9.3-26.4-30.2c0-21.6,27.6-48.9,29.7-50.9l0,0c0.1-0.1,0.1-0.1,0.1-0.1S772.4,584.8,772.4,607.3z"/>
<path class="st0" d="M741.5,634.2l10.9-15.2l-10.9,16.9l0,1.8c-0.8,0-1.5-0.1-2.3-0.1l1.2-22.5l0-0.2l0,0l0.1-2.1l-11-17l11,15.4
	l0,0.5l0.9-17L732,577l9.5,14.5l0.9-35.2l0-0.1v0.1l-0.2,27.8l9.3-11l-9.4,13.4l-0.2,15.2l8.7-14.6l-8.8,16.8l-0.1,8.5l12.7-20.3
	l-12.7,23.3L741.5,634.2z"/>
<circle class="st1" cx="225.2" cy="209.2" r="47.9"/>
<circle class="st3" cx="235.1" cy="194.9" r="47.9"/>
<path class="st2" d="M168.5,119.5l-38.6-64.6c10.5-13.4,8.2-32.7-5.1-43.3c-13.4-10.5-32.7-8.2-43.3,5.1C71,30.1,73.3,49.5,86.7,60
	c8.7,6.8,20.3,8.5,30.6,4.4L168.5,119.5z"/>
<circle class="st4" cx="105.7" cy="35.8" r="14.3"/>
<path class="st2" d="M292.2,112l53.4-53.1c15.5,7,33.7,0.1,40.7-15.4s0.1-33.7-15.4-40.7c-15.5-7-33.7-0.1-40.7,15.4
	c-4.5,10.1-3.3,21.8,3.2,30.7L292.2,112z"/>
<circle class="st4" cx="358.2" cy="30.8" r="14.3"/>
<path class="st2" d="M329.4,230.2l64.4,38.9c-3,16.7,8.1,32.8,24.8,35.8s32.8-8.1,35.8-24.8c3-16.7-8.1-32.8-24.8-35.8
	c-10.9-2-22,2-29.1,10.5L329.4,230.2z"/>
<circle class="st4" cx="424.1" cy="274.6" r="14.3"/>
<path class="st2" d="M223.6,294.9l-22.2,71.9c-17,1.1-29.8,15.8-28.7,32.8c1.1,17,15.8,29.8,32.8,28.7s29.8-15.8,28.7-32.8
	c-0.7-11-7.3-20.8-17.2-25.7L223.6,294.9z"/>
<circle class="st4" cx="203.4" cy="397.5" r="14.3"/>
<path class="st2" d="M135.3,207.9l-75.1-4.2c-5.2-16.2-22.5-25.1-38.7-19.9s-25.1,22.5-19.9,38.7c5.2,16.2,22.5,25.1,38.7,19.9
	c10.5-3.4,18.4-12.1,20.7-22.9L135.3,207.9z"/>
<circle class="st4" cx="30.8" cy="213.2" r="14.3"/>
<circle class="st1" cx="810.5" cy="48.5" r="14.8"/>
<circle class="st3" cx="804.5" cy="43.5" r="14.8"/>
<rect x="683.9" y="51.8" class="st2" width="33.3" height="33.3"/>
<rect x="690.6" y="45.2" class="st3" width="33.3" height="33.3"/>
<path class="st5" d="M607.4,586.7c0,0-3,19-8,22s26,10,26,10l5-30L607.4,586.7z"/>
<path class="st6" d="M644.4,369.7l11,13l-5,45l-4,89c0,0,8,77,0,79s-44,1-43-4s2-9,4-16s-2-32-2-32l5-28l-18-121L644.4,369.7z"/>
<path class="st6" d="M608.4,605.7c0,0-11-2-12,0s-20,23-23,23s-25,20-2,21s61-17,61-17s-5.6-25.4-5.3-24.2S608.4,610.7,608.4,605.7z
	"/>
<path class="st5" d="M596.4,559.7c0,0,28,31,29,34s16,0,16,0l6-20l-5-7l-28-23L596.4,559.7z"/>
<path class="st6" d="M636.4,582.7l-14.5,13.6c0,0,18.5,28.4,18.5,31.4s1,28,11,24s11-44,11-44s-1-41-7-44s-19.2-2.1-19.2-2.1
	S644.4,581.7,636.4,582.7z"/>
<path class="st6" d="M553.4,280.7c0,0-5,16-6,20s-7,15-7,32s2,37,0,39s-34,114-20,126s60,52,63,57s4,17,10,15s29-22,30-26
	s-13-11-13-11s-28-41-35-40s-6-5-5-8s3-5,0-5s-1-8,0-12s24-58,24-58l61-27c0,0-3-73-25-93l-5-12
	C625.4,277.7,569.4,273.7,553.4,280.7z"/>
<path class="st5" d="M578.4,122.7c0,0,5,35-7,37s-22,1-22,2s30,32,30,32l28-2l25-27c0,0-23-4-23-18s-1-24-1-24H578.4z"/>
<path class="st7" d="M578.4,122.7c0,0,5,35-7,37s-22,1-22,2s30,32,30,32l28-2l25-27c0,0-23-4-23-18s-1-24-1-24H578.4z"/>
<circle class="st5" cx="593.9" cy="106.2" r="31"/>
<path class="st8" d="M566.4,156.7c0,0-39,5-42,18s20,94,23,101s2,12,2,12c9.2-6.8,20.8-9.4,32-7c19,4,46,2,46,2s9-37,11-41
	s10-26,10-32s12-31,12-31s-6-18-28-17c0,0-9.6-4.3-12.3-1.1s-17.7,17.1-36.7,11.1S566.4,156.7,566.4,156.7z"/>
<path class="st8" d="M535.4,173.7h-11l-6,79c0,0,22,6,25,2S535.4,173.7,535.4,173.7z"/>
<path class="st8" d="M521.4,244.7l-3,8c0,0-2,26,10,25s19-16,19-16s-7-19-15-17S521.4,244.7,521.4,244.7z"/>
<path class="st8" d="M641.4,173.7l19,5c0,0,14,51,15,52s2,7,2,7s0,1,2,4s5,1,3,5s-5,2-3,6s1,15,1,15s-5-19-23-14l-12-54L641.4,173.7
	z"/>
<path class="st9" d="M558.6,80.6c-6.3,11.1-7.7,24.2-8.6,36.9c-0.4,5.5-0.7,11,1,16.3c1.7,5.5,5.5,11.1,3.6,16.5
	c-1.9,5.2-8.2,7.3-11.7,11.7c-3,3.7-3.7,8.7-3.5,13.4s1.4,9.3,1.7,14.1c0.7,10.4-2.5,20.6-9,28.7c15.1-0.6,31.2-7.3,37.5-20.9
	c1.9-4.1,2.8-8.6,4.5-12.7c1.9-4.7,4.9-9,6.7-13.7c2.8-7.2,2.9-15.1,3-22.7c0.1-4.6,0.1-9.3-1.5-13.6c-3.5-9.5-14.4-15.7-15.5-25.7
	c-0.2-1.1,0-2.2,0.5-3.1c0.5-0.7,1.1-1.3,1.8-1.8c6.8-6,5.7-18.7,13.8-22.8c3.6-1.8,8-1.2,11.9,0c4.3,1.3,8.7,3.3,11.5,6.8
	c5.7,7.1,3.4,17.4,1.7,26.4c-2.5,13-3.5,26.2-2.7,39.4c0,2.1,0.4,4.2,0.9,6.2c1,3.3,3.3,6.1,5,9.1c3.4,6.2,4.5,13.5,3.1,20.4
	c-1.2,6.1-4.3,12.5-1.6,18.1c1.2,2.1,2.9,4,4.9,5.4c8.9,6.9,20.1,11.2,26.7,20.4c1.1-7.5-1-15-2.6-22.3s-2.6-15.4,0.7-22.2
	c1.4-3,3.6-5.6,4.8-8.7c2.7-7.1-0.5-15-2.5-22.4c-1.4-5.8-2.4-11.7-3-17.6l-2-16c-1.7-13.2-3.4-26.8-9.3-38.8
	c-11-22.6-35.8-31.1-58-18.5C566.7,69.9,561.9,74.8,558.6,80.6z"/>
<path class="st5" d="M531.4,249.7c0,0-6,18,1,18s20-11,21-20s19-43,6-40s-19,28-19,28L531.4,249.7z"/>
<polygon class="st2" points="632.4,173.7 599.4,280.7 644.4,290.7 677.4,186.7 "/>
<path class="st5" d="M674.4,250.7l6.2,10.4c0,0,2.8,19.6-11.2,19.6s-34-19-34-19s-10-4-16-3s-39,0-25-17s38,0,38,0l25,12l13-7
	L674.4,250.7z"/>
<path class="st8" d="M665.9,237.2l-10,16c0,0,23,3,25,8s-9-26-9-26L665.9,237.2z"/>
</svg>
