<?xml version="1.0" encoding="utf-8"?>
<!-- Generator: Adobe Illustrator 25.1.0, SVG Export Plug-In . SVG Version: 6.00 Build 0)  -->
<svg version="1.1" id="b88d90b7-f620-4670-beb6-c2778d3d2c46"
	 xmlns="http://www.w3.org/2000/svg" xmlns:xlink="http://www.w3.org/1999/xlink" x="0px" y="0px" viewBox="0 0 724.6 527"
	 style="enable-background:new 0 0 724.6 527;" xml:space="preserve">
<style type="text/css">
	.st0{fill:#747474;}
	.st1{fill:#ADADAD;}
	.st2{fill:#F5F5F5;}
	.st3{fill:#FFFFFF;}
	.st4{fill:#CACACA;}
	.st5{fill:#FC4633;}
	.st6{opacity:0.1;enable-background:new    ;}
	.st7{fill:#F0F0F0;}
	.st8{fill:#2D393D;}
</style>
<path class="st0" d="M682.1,3.5H129.2c0-1.9-1.6-3.5-3.5-3.5h-21.8c-1.9,0-3.5,1.6-3.5,3.5H95C95,1.6,93.4,0,91.5,0H69.7
	c-1.9,0-3.5,1.6-3.5,3.5H46.7C23.3,3.5,4.3,22.5,4.2,46v0.4c-0.1,0-0.1,0-0.2,0H3.6c-2,0-3.6,1.6-3.6,3.6c0,0,0,0,0,0v41.5
	c0,2,1.6,3.6,3.6,3.6c0,0,0,0,0,0H4c0.1,0,0.1,0,0.2,0v389.5c0,23.4,19,42.4,42.5,42.5h635.4c23.4,0,42.4-19,42.5-42.5V46
	C724.6,22.5,705.6,3.5,682.1,3.5z M711.8,484.5c0,16.4-13.3,29.7-29.7,29.7H46.7c-16.4,0-29.7-13.3-29.7-29.7V46
	c0-16.4,13.3-29.7,29.7-29.7h635.4c16.4,0,29.7,13.3,29.7,29.7V484.5z"/>
<path class="st1" d="M682.1,521.3H46.7c-20.3,0-36.8-16.5-36.8-36.8V46C10,25.7,26.4,9.2,46.7,9.2h635.4c20.3,0,36.8,16.5,36.8,36.8
	v438.6C718.9,504.8,702.4,521.3,682.1,521.3z"/>
<path class="st2" d="M682.3,491.7H46.5c-4.5,0-8.1-3.6-8.1-8.1V46.9c0-4.5,3.6-8.1,8.1-8.1h635.8c4.5,0,8.1,3.6,8.1,8.1v436.7
	C690.4,488.1,686.8,491.7,682.3,491.7z"/>
<circle class="st3" cx="24.3" cy="264.5" r="3"/>
<path class="st0" d="M277.5,96.6H142.4c-22.1,0-39.9,17.9-40,40v12.2c-1-0.3-2,0.3-2.3,1.3c0,0.2-0.1,0.3-0.1,0.5v9.4
	c0,1,0.8,1.9,1.8,1.9c0.2,0,0.3,0,0.5-0.1V176c-1-0.3-2,0.3-2.3,1.3c0,0.2-0.1,0.3-0.1,0.5v23.5c0,1,0.8,1.9,1.8,1.9
	c0.2,0,0.3,0,0.5-0.1v8.6c-1-0.3-2,0.3-2.3,1.3c0,0.2-0.1,0.3-0.1,0.5v23.5c0,1,0.8,1.9,1.8,1.9c0.2,0,0.3,0,0.5-0.1v247.9
	c0,22.1,17.9,39.9,40,40h135.1c22.1,0,39.9-17.9,40-40V136.6C317.4,114.5,299.5,96.6,277.5,96.6z M309,486.6
	c0,17.4-14.1,31.5-31.5,31.5H142.4c-17.4,0-31.5-14.1-31.5-31.5V136.6c0-17.4,14.1-31.5,31.5-31.5h135.1c17.4,0,31.5,14.1,31.5,31.5
	V486.6z"/>
<path class="st1" d="M277.5,522.8H142.4c-20,0-36.2-16.2-36.2-36.2V136.6c0-20,16.2-36.2,36.2-36.2h135.1c20,0,36.2,16.2,36.2,36.2
	v350.1C313.6,506.6,297.4,522.8,277.5,522.8z"/>
<path class="st2" d="M280.8,517.2H139.1c-13.5,0-24.4-10.9-24.4-24.4V130.4c0-13.5,10.9-24.4,24.4-24.4h18.5c2.2,0,4,1.8,4,4
	c0,6.6,5.3,11.9,11.9,11.9h71c6.6,0,11.9-5.3,11.9-11.9c0-2.2,1.8-4,4-4h20.4c13.5,0,24.4,10.9,24.4,24.4v362.4
	C305.2,506.2,294.3,517.2,280.8,517.2z"/>
<path class="st3" d="M216,114.2h-16.9c-1,0-1.9-0.8-1.9-1.9c0-1,0.8-1.9,1.9-1.9l0,0H216c1,0,1.9,0.8,1.9,1.9
	C217.9,113.4,217.1,114.2,216,114.2z"/>
<circle class="st3" cx="227.8" cy="112.8" r="0.9"/>
<path class="st4" d="M228.7,202.4l0.2,4.4c22.3-1,48.2,0.9,75.7,5.5v-4.4C277.1,203.4,251.1,201.4,228.7,202.4z"/>
<path class="st5" d="M201,288c-0.2,1.7-0.3,3.4-0.4,5c-0.2,3.3-0.3,6.7-0.3,10.1c0,64.6,42.5,121.5,104.4,140v-280
	C248,179.9,207.1,229.2,201,288z"/>
<circle class="st4" cx="128.1" cy="200.5" r="2.9"/>
<circle class="st4" cx="121.9" cy="313.1" r="5.7"/>
<circle class="st4" cx="229" cy="164.2" r="4.1"/>
<circle class="st4" cx="135.3" cy="393.5" r="3.3"/>
<circle class="st4" cx="201.7" cy="439.2" r="3.6"/>
<polygon class="st4" points="305.2,80.9 298.1,80.9 298.1,73.8 294.4,73.8 294.4,80.9 287.3,80.9 287.3,84.6 294.4,84.6 294.4,91.7 
	298.1,91.7 298.1,84.6 305.2,84.6 "/>
<circle class="st6" cx="254.1" cy="278.5" r="12.3"/>
<circle class="st6" cx="260.3" cy="365" r="12.3"/>
<path class="st1" d="M206.1,288.1c-15.1-10.1-26.3-20.1-33.3-29.6c-7-9.5-9.6-18.2-7.5-25.6c2.1-7.5,8.7-13.5,19.7-18
	c11-4.5,25.8-7.2,43.9-8l-0.2-4.4c-38.8,1.7-62.8,12.1-67.6,29.2s10.3,38.4,42.6,60.1c26.3,17.7,61.5,34,100.9,46.9V334
	C266.1,321.3,231.8,305.3,206.1,288.1z"/>
<path class="st6" d="M206.1,291.6c-1.8-1.2-3.5-2.4-5.2-3.6c-0.2,1.7-0.3,3.4-0.4,5c1,0.7,2.1,1.4,3.2,2.2
	c26.3,17.7,61.5,34,100.9,46.9v-4.6C266.1,324.8,231.8,308.8,206.1,291.6z"/>
<path class="st4" d="M369,221.1c-17.2-4.8-34.2-8.7-50.8-11.8v4.4c16.2,3,32.8,6.8,49.6,11.5c53.5,15,101.9,36.8,132.8,59.9l2.6-3.5
	C471.9,258.4,423,236.3,369,221.1z"/>
<path class="st5" d="M497.4,303.1c0-80.7-65.5-146.1-146.2-146c-11.1,0-22.2,1.3-33,3.8v284.5c66.3,15.4,134.5-17,164.4-78.2
	c0.8-1.5,1.5-3.1,2.2-4.7C493.1,343.8,497.4,323.6,497.4,303.1L497.4,303.1z"/>
<circle class="st7" cx="355.2" cy="129.1" r="1.7"/>
<circle class="st4" cx="468.4" cy="139.1" r="3.8"/>
<circle class="st4" cx="602.9" cy="296.4" r="6.2"/>
<circle class="st4" cx="554.7" cy="198.1" r="2.6"/>
<circle class="st4" cx="545.5" cy="283.9" r="2.6"/>
<polygon class="st4" points="473.2,460.9 468.8,460.9 468.8,456.5 466.4,456.5 466.4,460.9 462,460.9 462,463.2 466.4,463.2 
	466.4,467.6 468.8,467.6 468.8,463.2 473.2,463.2 "/>
<polygon class="st4" points="575,438.3 571.7,438.3 571.7,435 569.9,435 569.9,438.3 566.6,438.3 566.6,440.1 569.9,440.1 
	569.9,443.4 571.7,443.4 571.7,440.1 575,440.1 "/>
<circle class="st6" cx="353.5" cy="188.7" r="12.3"/>
<circle class="st6" cx="353.5" cy="297.5" r="12.3"/>
<circle class="st6" cx="419.4" cy="231.7" r="12.3"/>
<circle class="st6" cx="460.1" cy="314.8" r="12.3"/>
<path class="st4" d="M530.8,309.2c-5.8-8.8-15-18.1-27.6-27.4l-2.6,3.5c24.3,18.2,35.7,35.6,31.9,49c-2.1,7.5-8.7,13.5-19.7,18
	c-11,4.5-25.8,7.2-43.9,8c-3.8,0.2-7.8,0.3-11.9,0.3c-35.5,0-78.2-6.6-121.9-18.8c-5.7-1.6-11.4-3.3-17-5v4.6
	c5.2,1.6,10.5,3.2,15.8,4.7c44.1,12.4,87.2,19,123.1,19c4.1,0,8.1-0.1,12-0.3c38.8-1.7,62.8-12.1,67.6-29.2
	C538.9,327.5,536.9,318.7,530.8,309.2z"/>
<path class="st6" d="M468.9,363.8c-3.8,0.2-7.8,0.3-11.9,0.3c-35.4,0-78.2-6.6-121.9-18.8c-5.7-1.6-11.4-3.3-17-5v4.6
	c5.2,1.6,10.5,3.2,15.8,4.7c44.1,12.4,87.2,19,123.1,19c4.1,0,8.1-0.1,12-0.3c4.7-0.2,9.2-0.5,13.5-1c0.8-1.5,1.5-3.1,2.2-4.7
	C479.8,363.1,474.5,363.5,468.9,363.8z"/>
<circle class="st3" cx="419.3" cy="180.5" r="16"/>
<path class="st8" d="M419.4,157c-12.6,0-22.9,10.2-22.9,22.9c0,12.6,22.9,54.1,22.9,54.1s22.9-41.5,22.9-54.1
	C442.2,167.2,432,157,419.4,157z M419.4,191c-5.9,0-10.6-4.7-10.6-10.6s4.7-10.6,10.6-10.6c5.9,0,10.6,4.7,10.6,10.6
	S425.2,191,419.4,191L419.4,191L419.4,191z"/>
<circle class="st3" cx="353.3" cy="238.5" r="16"/>
<path class="st8" d="M353.4,215c-12.6,0-22.9,10.2-22.9,22.9c0,12.6,22.9,54.1,22.9,54.1s22.9-41.5,22.9-54.1
	C376.2,225.2,366,215,353.4,215z M353.4,249c-5.9,0-10.6-4.7-10.6-10.6s4.7-10.6,10.6-10.6c5.9,0,10.6,4.7,10.6,10.6
	S359.2,249,353.4,249L353.4,249L353.4,249z"/>
<circle class="st3" cx="353.3" cy="135.5" r="16"/>
<path class="st1" d="M353.4,112c-12.6,0-22.9,10.2-22.9,22.9c0,12.6,22.9,54.1,22.9,54.1s22.9-41.5,22.9-54.1
	C376.2,122.2,366,112,353.4,112z M353.4,146c-5.9,0-10.6-4.7-10.6-10.6s4.7-10.6,10.6-10.6c5.9,0,10.6,4.7,10.6,10.6
	S359.2,146,353.4,146L353.4,146L353.4,146z"/>
<circle class="st3" cx="460.3" cy="259.5" r="16"/>
<path class="st1" d="M460.4,236c-12.6,0-22.9,10.2-22.9,22.9c0,12.6,22.9,54.1,22.9,54.1s22.9-41.5,22.9-54.1
	C483.2,246.2,473,236,460.4,236z M460.4,270c-5.9,0-10.6-4.7-10.6-10.6s4.7-10.6,10.6-10.6c5.9,0,10.6,4.7,10.6,10.6
	S466.2,270,460.4,270L460.4,270L460.4,270z"/>
<ellipse transform="matrix(0.1602 -0.9871 0.9871 0.1602 -7.0471 438.7174)" class="st3" cx="254.3" cy="223.5" rx="16" ry="16"/>
<path class="st1" d="M254.4,200c-12.6,0-22.9,10.2-22.9,22.9c0,12.6,22.9,54.1,22.9,54.1s22.9-41.5,22.9-54.1
	C277.2,210.2,267,200,254.4,200z M254.4,234c-5.9,0-10.6-4.7-10.6-10.6c0-5.9,4.7-10.6,10.6-10.6c5.9,0,10.6,4.7,10.6,10.6
	c0,0,0,0,0,0C264.9,229.2,260.2,234,254.4,234L254.4,234z"/>
<circle class="st3" cx="260.3" cy="310.5" r="16"/>
<path class="st8" d="M260.4,287c-12.6,0-22.9,10.2-22.9,22.9c0,12.6,22.9,54.1,22.9,54.1s22.9-41.5,22.9-54.1
	C283.2,297.2,273,287,260.4,287z M260.4,321c-5.9,0-10.6-4.7-10.6-10.6c0-5.9,4.7-10.6,10.6-10.6c5.9,0,10.6,4.7,10.6,10.6
	c0,0,0,0,0,0C270.9,316.2,266.2,321,260.4,321L260.4,321z"/>
</svg>
