<?xml version="1.0" encoding="utf-8"?>
<!-- Generator: Adobe Illustrator 25.1.0, SVG Export Plug-In . SVG Version: 6.00 Build 0)  -->
<svg version="1.1" id="e8e370f4-8fb0-4ed1-9ceb-86ee4fa027f4"
	 xmlns="http://www.w3.org/2000/svg" xmlns:xlink="http://www.w3.org/1999/xlink" x="0px" y="0px" viewBox="0 0 740.9 511.7"
	 style="enable-background:new 0 0 740.9 511.7;" xml:space="preserve">
<style type="text/css">
	.st0{fill:#FFFFFF;}
	.st1{fill:#2D393D;}
	.st2{fill:#E6E6E6;}
	.st3{fill:#FF4633;}
	.st4{fill:#AFAFAF;}
	.st5{fill:#A0616A;}
	.st6{fill:#D5E0DE;}
</style>
<path class="st0" d="M733.9,193.7h-0.2l-114.8,49l-157.1,67.1c-1.2,0.5-2.6,0.5-3.9,0l-162-67.2l-117.6-48.8l-0.2-0.1h-0.2
	c-3.9,0-7,3.1-7,7v304c0,3.9,3.1,7,7,7h556c3.9,0,7-3.1,7-7v-304C740.9,196.8,737.7,193.7,733.9,193.7z"/>
<path class="st1" d="M735.9,195.7c-0.2,0-0.4-0.1-0.6-0.2L458.7,2.9c-1.7-1.2-4-1.2-5.7,0L178.4,195.5c-0.5,0.3-1.1,0.2-1.4-0.2
	c-0.3-0.5-0.2-1.1,0.2-1.4L451.8,1.3c2.4-1.7,5.6-1.7,8,0l276.6,192.6c0.5,0.3,0.6,0.9,0.2,1.4C736.5,195.5,736.2,195.7,735.9,195.7
	L735.9,195.7z"/>
<polygon class="st2" points="194.1,202.5 456.1,8.3 720.1,216.3 469.6,364.8 333.6,333.8 "/>
<path class="st3" d="M345.1,456.5H215.7c-3.3,0-6.1-2.7-6.1-6c0-3.3,2.7-6.1,6-6.1c0,0,0,0,0,0h129.4c3.3,0,6.1,2.7,6.1,6
	C351.2,453.8,348.5,456.5,345.1,456.5C345.1,456.5,345.1,456.5,345.1,456.5z"/>
<path class="st3" d="M262.1,430.5h-46.4c-3.3,0-6.1-2.7-6.1-6c0-3.3,2.7-6.1,6-6.1c0,0,0,0,0,0h46.4c3.3,0,6.1,2.7,6.1,6
	C268.2,427.8,265.5,430.5,262.1,430.5C262.1,430.5,262.1,430.5,262.1,430.5z"/>
<path class="st0" d="M459.8,310.7c-1,0-2-0.2-2.9-0.6l-161.6-67V33.2c0-3.9,3.1-7,7-7h310c3.9,0,7,3.1,7,7v210l-0.3,0.1l-156.3,66.7
	C461.8,310.5,460.8,310.7,459.8,310.7z"/>
<path class="st1" d="M459.8,311.2c-1,0-2.1-0.2-3.1-0.6l-161.9-67.2V33.2c0-4.1,3.4-7.5,7.5-7.5h310c4.1,0,7.5,3.4,7.5,7.5v210.4
	l-156.9,67C462,310.9,460.9,311.2,459.8,311.2z M296.9,242l160.7,66.7c1.5,0.6,3.2,0.6,4.7,0l155.7-66.5v-209c0-3-2.5-5.5-5.5-5.5
	h-310c-3,0-5.5,2.5-5.5,5.5L296.9,242z"/>
<path class="st1" d="M733.9,193.7h-0.2l-114.8,49l-157.1,67.1c-1.2,0.5-2.6,0.5-3.9,0l-162-67.2l-117.6-48.8l-0.2-0.1h-0.2
	c-3.9,0-7,3.1-7,7v304c0,3.9,3.1,7,7,7h556c3.9,0,7-3.1,7-7v-304C740.9,196.8,737.7,193.7,733.9,193.7z M738.9,504.7
	c0,2.8-2.2,5-5,5h-556c-2.8,0-5-2.2-5-5v-304c0-2.7,2.1-4.9,4.8-5l118.2,49l161.3,66.9c1.7,0.7,3.7,0.7,5.4,0l156.3-66.7l115.2-49.2
	c2.7,0.1,4.8,2.3,4.8,5V504.7z"/>
<path class="st3" d="M434.7,104.6h-110c-4.4,0-8-3.6-8-8s3.6-8,8-8h110c4.4,0,8,3.6,8,8S439.1,104.6,434.7,104.6z"/>
<path class="st3" d="M377.7,70.6h-53c-4.4,0-8-3.6-8-8s3.6-8,8-8h53c4.4,0,8,3.6,8,8S382.1,70.6,377.7,70.6z"/>
<path class="st4" d="M539.6,184.6h-168c-4.4,0-8-3.6-8-8s3.6-8,8-8h168c4.4,0,8,3.6,8,8S544,184.6,539.6,184.6z"/>
<path class="st4" d="M539.6,221.6h-168c-4.4,0-8-3.6-8-8s3.6-8,8-8h168c4.4,0,8,3.6,8,8S544,221.6,539.6,221.6z"/>
<path class="st1" d="M40.9,231c-2.1,0-4-1.5-4.4-3.6l-3.6-18.1c-4-20,9-39.5,29-43.6s39.5,9,43.6,29l3.6,18.1
	c0.5,2.4-1.1,4.8-3.5,5.3l-63.7,12.8C41.5,230.9,41.2,231,40.9,231z"/>
<polygon class="st5" points="154.1,501.1 142.7,501.1 137.2,457 154.1,457 "/>
<path class="st1" d="M134.5,497.8h22l0,0v13.9l0,0h-35.9l0,0l0,0C120.6,504,126.8,497.8,134.5,497.8z"/>
<polygon class="st5" points="35,500.9 24.4,496.5 36.6,453.8 52.2,460.3 "/>
<path class="st1" d="M18.2,490.3l20.3,8.6l0,0l-5.4,12.8l0,0L0,497.7l0,0l0,0C3,490.6,11.1,487.3,18.2,490.3
	C18.2,490.3,18.2,490.3,18.2,490.3z"/>
<circle class="st5" cx="70.2" cy="201.9" r="24.6"/>
<path class="st6" d="M71.4,313.6l-0.3-0.8c-6.7-21.8-13.6-44.2-20.5-65.6l-0.2-0.6l0.4-0.4c10.8-10.9,30.9-15.3,46.9-10.1
	c16.1,5.2,27.1,19.7,25.8,33.8c-0.7,8.5,1.5,16.9,6.4,23.9l0.6,0.9l-1,0.5c-17.9,9.2-37.3,15.4-57.3,18.3L71.4,313.6z"/>
<path class="st1" d="M41.8,493c-0.9,0-1.7-0.2-2.5-0.7L26,484.7c-2.3-1.3-3.1-4.1-2-6.4l29.5-70l22.5-102l41.1-14.9l0.4,0.2
	c44,20.2,40.6,165.2,39.5,194c-0.1,2.5-2.1,4.6-4.6,4.8l-12.3,1.6c-2.6,0.2-4.9-1.6-5.4-4.1l-25.2-112.7c-0.1-0.4-0.4-0.8-0.8-0.9
	c-0.4-0.1-0.8,0.1-1,0.5L46.1,490.5c-0.7,1.2-1.8,2-3,2.4C42.7,493,42.2,493,41.8,493z"/>
<path class="st5" d="M56.5,390.2c2.9-4.3,1.8-10.1-2.4-13c-0.5-0.3-0.9-0.6-1.4-0.8l0.7-21.4l-12.9-3.6l-0.5,30.3
	c-1.8,4.9,0.6,10.3,5.5,12.1C49.5,395.3,54.1,393.8,56.5,390.2L56.5,390.2z"/>
<path class="st3" d="M40.1,367.6l-0.8,0c-2.6,0-4.7-2-4.9-4.6c-1.2-16-5-70.3-2-99.7c1.7-11.3,12.2-19.2,23.6-17.5
	c0.2,0,0.4,0.1,0.6,0.1l0.8,0.2l0,0.8c-0.3,38.8-0.3,77.3-0.2,114.6c0,2.3-1.6,4.4-3.9,4.9C48.9,367.1,44.5,367.6,40.1,367.6z"/>
<path class="st3" d="M69.5,414.1c-6.8,0-12.6-5.1-13.4-11.9l1.1-89.5l-17.8-45c-1.5-12.2,5.5-23.8,17-28.1l4.8-1.8
	c3.8-1.4,8,0.5,9.4,4.3c0,0,0,0,0,0l18.3,49.5l0,0.1c1.3,19.7,7,117.7-4.4,120.7c-4.8,1.1-9.8,1.7-14.8,1.7L69.5,414.1z"/>
<path class="st5" d="M175.1,356.4c-4.8-1.9-7.1-7.4-5.2-12.2c0.2-0.5,0.5-1,0.8-1.5l-12.4-17.5l8.8-10.1l17.1,25
	c4.2,3.1,5.1,9,2.1,13.2C183.8,356.8,179.1,358.1,175.1,356.4L175.1,356.4z"/>
<path class="st3" d="M162.7,334c-1.3,0-2.5-0.7-3.2-1.8l-0.1-0.1c-20.5-31-41.6-63-63.1-95l-0.2-0.3l0.3-0.3
	c3.8-3.5,8.9-5.4,14.1-5.1c5.4,0.1,10.4,2.5,13.9,6.5c18.8,22.8,45.5,70.2,53.3,84.1c1,1.8,0.5,4.1-1.2,5.2
	c-3.8,2.6-7.9,4.8-12.2,6.5C163.8,333.9,163.2,334,162.7,334z"/>
<path class="st3" d="M155.9,394.1c-12.3,0-56.1-84.5-64.8-101.4l-0.1-0.2l-9.6-51.8c-0.7-4,1.9-7.8,5.8-8.5c0,0,0,0,0,0l5-0.9
	c12.1-2.2,24.1,4.2,29,15.4l12.5,52.7l41.9,71.2c2.9,6.3,0.5,13.8-5.5,17.3c-4.3,2.6-8.8,4.6-13.6,6.1
	C156.4,394.1,156.1,394.1,155.9,394.1L155.9,394.1z"/>
<path class="st1" d="M89.3,202.1H39.8v-6c0-13.8,11.2-25,25-25h4c13.8,0,25,11.2,25,25v1.5C93.8,200.1,91.8,202.1,89.3,202.1z"/>
</svg>
