<?xml version="1.0" encoding="utf-8"?>
<!-- Generator: Adobe Illustrator 25.1.0, SVG Export Plug-In . SVG Version: 6.00 Build 0)  -->
<svg version="1.1" id="Capa_1" xmlns="http://www.w3.org/2000/svg" xmlns:xlink="http://www.w3.org/1999/xlink" x="0px" y="0px"
	 viewBox="0 0 545.55 120.07" style="enable-background:new 0 0 545.55 120.07;" xml:space="preserve">
<style type="text/css">
	.st0{fill:#2D393D;}
	.st1{fill:#AFAFAF;}
	.st2{fill:#FF4633;}
	.st3{fill:#FFFFFF;}
</style>
<g>
	<g>
		<g>
			<path class="st3" d="M232.63,29.82c-16.6,0-30.06,13.46-30.06,30.06c0,16.6,13.46,30.06,30.06,30.06
				c16.6,0,30.06-13.46,30.06-30.06C262.69,43.28,249.23,29.82,232.63,29.82z M232.63,77.92c-9.96,0-18.04-8.08-18.04-18.04
				s8.08-18.04,18.04-18.04c9.96,0,18.04,8.08,18.04,18.04S242.59,77.92,232.63,77.92z"/>
		</g>
		<g>
			<g>
				<path class="st3" d="M292.78,89.97c-2.52,0-4.77-1.56-5.65-3.92l-18.04-48.1c-1.17-3.12,0.41-6.6,3.53-7.77
					c3.12-1.17,6.6,0.41,7.77,3.53l12.38,33.02l12.38-33.02c1.17-3.12,4.65-4.71,7.77-3.53c3.12,1.17,4.71,4.65,3.53,7.77
					l-18.04,48.1C297.55,88.41,295.3,89.97,292.78,89.97z"/>
			</g>
		</g>
		<g>
			<g>
				<path class="st3" d="M340.94,89.97c-3.33,0-6.04-2.7-6.04-6.04v-48.1c0-3.33,2.7-6.04,6.04-6.04s6.04,2.7,6.04,6.04v48.1
					C346.97,87.27,344.27,89.97,340.94,89.97z"/>
			</g>
		</g>
		<g>
			<g>
				<path class="st3" d="M539.51,89.97c-3.33,0-6.04-2.7-6.04-6.04V53.05l-13.3,16.62c-1.15,1.43-2.88,2.27-4.72,2.27
					s-3.57-0.83-4.72-2.27l-13.3-16.62v30.88c0,3.33-2.7,6.04-6.04,6.04c-3.33,0-6.04-2.7-6.04-6.04v-48.1
					c0-2.56,1.62-4.85,4.04-5.7c2.42-0.85,5.11-0.08,6.71,1.93l19.33,24.17l19.33-24.17c1.6-2,4.29-2.78,6.71-1.93
					c2.42,0.85,4.04,3.13,4.04,5.7v48.1C545.55,87.27,542.84,89.97,539.51,89.97z"/>
			</g>
		</g>
		<g>
			<g>
				<path class="st3" d="M413.17,35.83v30.06c0,13.28-10.8,24.08-24.08,24.08c-13.27,0-24.08-10.8-24.08-24.08V35.83
					c0-3.33,2.7-6.04,6.04-6.04c3.33,0,6.04,2.7,6.04,6.04v30.06c0,6.62,5.38,12,12,12c6.62,0,12-5.38,12-12V35.83
					c0-3.33,2.7-6.04,6.04-6.04C410.46,29.79,413.17,32.5,413.17,35.83z"/>
			</g>
		</g>
		<g>
			<path class="st3" d="M472.96,81.81l-18.04-48.1c-0.88-2.36-3.14-3.92-5.65-3.92s-4.77,1.56-5.65,3.92l-18.04,48.1
				c-1.17,3.12,0.41,6.6,3.53,7.77c3.12,1.17,6.6-0.41,7.77-3.53l3.05-8.13h18.67l3.05,8.13c0.91,2.42,3.21,3.92,5.65,3.92
				c0.7,0,1.42-0.12,2.12-0.39C472.55,88.41,474.13,84.93,472.96,81.81z M444.45,65.9l4.82-12.86l4.82,12.86H444.45z"/>
		</g>
		<g>
			<path class="st3" d="M196.56,77.92c0,1.73-0.74,3.3-1.91,4.39c-0.09,0.09-0.18,0.16-0.28,0.25c-5.28,4.6-12.18,7.38-19.73,7.38
				c-16.61,0-30.06-13.45-30.06-30.06c0-16.6,13.45-30.06,30.06-30.06c7.52,0,14.4,2.76,19.67,7.33c0.03,0.02,0.04,0.04,0.06,0.05
				c0.12,0.11,0.24,0.21,0.35,0.31c1.13,1.09,1.84,2.63,1.84,4.33c0,3.31-2.69,6.01-6.01,6.01c-1.56,0-2.98-0.59-4.04-1.56
				c-3.16-2.77-7.32-4.45-11.86-4.45c-9.96,0-18.04,8.07-18.04,18.03c0,9.96,8.08,18.04,18.04,18.04c4.55,0,8.7-1.68,11.86-4.45
				c1.07-0.97,2.48-1.56,4.04-1.56C193.86,71.91,196.56,74.6,196.56,77.92z"/>
		</g>
	</g>
	<g>
		<g>
			<g>
				<path class="st3" d="M65.79,30.35c2.53,0.48,4.95,1.27,7.21,2.34l5.86-8.06c1.82-2.51,5.34-3.07,7.85-1.24
					c2.51,1.82,3.07,5.34,1.24,7.85l-5.86,8.06c1.73,1.84,3.23,3.9,4.46,6.13l28.87-9.38C106.89,16.32,88.1,2.07,65.79,0V30.35z"/>
			</g>
			<g>
				<path class="st3" d="M33.79,45.43c1.23-2.23,2.73-4.29,4.46-6.13l-5.86-8.06c-1.82-2.51-1.27-6.02,1.24-7.85
					c2.51-1.82,6.02-1.27,7.85,1.24l5.86,8.06c2.26-1.07,4.68-1.86,7.21-2.34V0C32.23,2.07,13.45,16.32,4.92,36.05L33.79,45.43z"/>
			</g>
			<g>
				<path class="st3" d="M90.02,56.11c0.16,1.24,0.24,2.51,0.24,3.79c0,1.28-0.08,2.55-0.24,3.79l9.48,3.08
					c2.95,0.96,4.57,4.13,3.61,7.08c-0.77,2.37-2.97,3.88-5.34,3.88c-0.58,0-1.16-0.09-1.74-0.28l-9.48-3.08
					c-1.23,2.23-2.73,4.29-4.46,6.13l17.84,24.55c12.52-11.03,20.41-27.17,20.41-45.16c0-4.52-0.5-8.93-1.45-13.17L90.02,56.11z"/>
			</g>
			<g>
				<path class="st3" d="M73,87.12c-2.26,1.07-4.68,1.86-7.21,2.34v9.96c0,3.1-2.52,5.62-5.62,5.62c-3.1,0-5.62-2.52-5.62-5.62
					v-9.96c-2.53-0.48-4.95-1.27-7.21-2.34L29.5,111.68c8.98,5.33,19.47,8.4,30.67,8.4c11.2,0,21.69-3.07,30.67-8.4L73,87.12z"/>
			</g>
			<g>
				<path class="st3" d="M20.41,105.06l17.84-24.55c-1.73-1.84-3.23-3.9-4.46-6.13l-9.48,3.08c-0.58,0.19-1.16,0.28-1.74,0.28
					c-2.37,0-4.57-1.51-5.34-3.88c-0.96-2.95,0.66-6.12,3.61-7.08l9.48-3.08c-0.16-1.24-0.24-2.51-0.24-3.79
					c0-1.28,0.08-2.55,0.24-3.79L1.45,46.73C0.5,50.97,0,55.38,0,59.9C0,77.9,7.9,94.04,20.41,105.06z"/>
			</g>
		</g>
	</g>
</g>
</svg>
