<?xml version="1.0" encoding="utf-8"?>
<!-- Generator: Adobe Illustrator 25.1.0, SVG Export Plug-In . SVG Version: 6.00 Build 0)  -->
<svg version="1.1" id="e964fae6-99d5-4ba3-9654-9b5776c78265"
	 xmlns="http://www.w3.org/2000/svg" xmlns:xlink="http://www.w3.org/1999/xlink" x="0px" y="0px" viewBox="0 0 1002.7 700.1"
	 style="enable-background:new 0 0 1002.7 700.1;" xml:space="preserve">
<style type="text/css">
	.st0{fill:#F2F2F2;}
	.st1{fill:#2D393D;}
	.st2{fill:#FF4633;}
	.st3{fill:#A0616A;}
	.st4{fill:#2F2E41;}
	.st5{fill:#D5E0DE;}
	.st6{opacity:0.15;enable-background:new    ;}
	.st7{opacity:0.3;fill:#FFFFFF;enable-background:new    ;}
	.st8{opacity:0.3;enable-background:new    ;}
</style>
<polyline class="st0" points="482.7,151.2 482.7,280.2 728.7,280.2 "/>
<polygon class="st1" points="764.7,281.2 481.7,281.2 481.7,26.2 483.7,26.2 483.7,279.2 764.7,279.2 "/>
<path class="st1" d="M485.8,281.5l-1.8-0.9c12.3-24.6,38-42.1,65.4-44.5c4.7-0.4,9.7-0.5,14.5-0.5c13.2-0.1,26.9-0.2,36.9-8.3
	c7.4-6,11-14.8,14.7-24.1c1.9-4.9,4-9.6,6.5-14.2c9.7-16.6,27-27.3,46.1-28.7c0.7,0,1.5-0.1,2.2-0.1c1.6-2.2,3.4-4.2,5.3-6.1
	c9.7-9.6,22.1-15.9,34.1-21.9l2.8-1.4c12.7-6.5,25.9-13.7,34.8-24.9c11.4-14.6,14.7-33.9,8.8-51.5l1.9-0.7
	c6.1,18.2,2.7,38.3-9.1,53.4c-9.2,11.5-22.6,18.9-35.5,25.5l-2.8,1.4c-11.9,6-24.1,12.2-33.6,21.6c-1.5,1.5-2.9,3.1-4.2,4.7
	c11.3,0.4,24.4,4.8,31.8,16.1c4.2,6.7,5.4,14.8,3.3,22.4c-1.8,6.6-5.8,11.7-11.2,14.4c-5.7,2.8-12.5,2.8-19.1-0.2
	c-7.7-3.5-13.5-10.2-15.9-18.4c-3-11.7,1-23.3,7.1-32.2c-0.2,0-0.4,0-0.7,0c-18.5,1.3-35.1,11.7-44.5,27.6c-2.4,4.5-4.6,9.2-6.4,14
	c-3.7,9.2-7.5,18.6-15.3,24.9c-10.5,8.5-24.6,8.7-38.2,8.8c-4.8,0-9.7,0.1-14.3,0.5C522.8,240.4,497.8,257.5,485.8,281.5z
	 M671.3,162.2c-6.3,8.7-10.6,20.2-7.6,31.7c2.2,7.6,7.6,13.9,14.8,17.1c6,2.7,12.2,2.8,17.3,0.3c4.9-2.4,8.5-7.1,10.1-13.1
	c1.9-7.1,0.8-14.6-3-20.8C696.9,168.1,684.7,162.3,671.3,162.2z"/>
<circle class="st2" cx="620.7" cy="193.2" r="18"/>
<path class="st1" d="M433,520.1H0v-206h433V520.1z M2,518.1h429v-202H2V518.1z"/>
<rect x="322.7" y="675.2" class="st1" width="665" height="2"/>
<path class="st3" d="M832.3,232.5l-8.2,41.1c0,0-10.6,23.5-5.9,39.9l3.5,7l22.3-20l8.2-55.2L832.3,232.5z"/>
<polygon class="st3" points="786.5,613.1 773.6,662.5 788.9,669.5 803,657.8 811.2,620.2 "/>
<polygon class="st3" points="959.8,593.8 966.3,664.8 999.2,664.8 983.3,586.7 "/>
<path class="st4" d="M908.7,332.4l6.7-32.5l-77.1-18l-16.4,25.8c0,0-28.2,44.6-35.2,180.9s-9.4,135.1-9.4,135.1l57.6,5.9l29.4-190.3
	l72.8,173.9l55.2-15.3l-69.3-209.1C922.8,388.7,927.5,358.2,908.7,332.4z"/>
<path class="st4" d="M790.1,651.9l-8.2,8.2l-4.7-4.7l2.6-17.3l-13.1,7.9c0,0-23.5-3.5-21.1,21.1c0,0-3.5,8.2,16.4,17.6
	s30.5,15.3,30.5,15.3s18.8-1.2,18.8-7s-5.9-45.8-5.9-45.8L790.1,651.9z"/>
<path class="st4" d="M981.6,651.9l-8.2,8.2l-4.7-4.7l-4.9-17.3l-5.6,7.9c0,0-23.5-3.5-21.1,21.1c0,0-3.5,8.2,16.4,17.6
	s30.5,15.3,30.5,15.3s18.8-1.2,18.8-7s-5.9-45.8-5.9-45.8L981.6,651.9z"/>
<circle class="st3" cx="888.7" cy="130.3" r="34.1"/>
<polygon class="st3" points="878.2,156.1 880.5,196.1 925.2,196.1 912.2,142 "/>
<path class="st5" d="M852.3,179.6l36.4-2.3l38.8,2.3c0,0,32.9,17.6,15.3,65.8s-30.5,63.4-30.5,63.4l-37.6-16.4h-11.7
	c0,0-3.5-3.5-4.7-3.5s-23.5,3.5-23.5,3.5s-5.9-24.7,2.3-27s12.9-15.3,12.9-15.3L852.3,179.6z"/>
<polygon class="st5" points="859.4,183.2 852.3,179.6 827.7,237.2 854.7,254.8 "/>
<path class="st4" d="M840,127.4c0,0-16.4-42.3,16.1-46.3c0,0,41-25.2,67.3,17l20.8,51.3l-6.9-1.4l-0.9,6.9l-8.9,5.4l-6.7-6.9
	l1.1,10.5l-76.4,32.4c0,0,28.8-31.9,17.7-69.5l-4.5,9.2L840,127.4z"/>
<path class="st2" d="M365,650.6c-4.3,15.8-18.9,25.6-18.9,25.6s-7.7-15.8-3.4-31.6s18.9-25.6,18.9-25.6S369.3,634.8,365,650.6z"/>
<path class="st2" d="M326.1,650.6c4.3,15.8,18.9,25.6,18.9,25.6s7.7-15.8,3.4-31.6S329.6,619,329.6,619S321.9,634.8,326.1,650.6z"/>
<path class="st1" d="M332.4,647.2c11.7,11.4,13.2,29,13.2,29s-17.6-1-29.3-12.4s-13.2-29-13.2-29S320.7,635.8,332.4,647.2z"/>
<path class="st1" d="M358.7,647.2c-11.7,11.4-13.2,29-13.2,29s17.6-1,29.3-12.4s13.2-29,13.2-29S370.4,635.8,358.7,647.2z"/>
<circle class="st2" cx="759.7" cy="59.2" r="18"/>
<circle class="st2" cx="710.7" cy="133.2" r="18"/>
<rect x="8.7" y="360.8" class="st0" width="329.1" height="145.4"/>
<rect x="25" y="351" class="st2" width="313.3" height="27.8"/>
<rect x="45" y="361.2" class="st1" width="273.5" height="7.5"/>
<circle class="st1" cx="181.3" cy="364.6" r="10.5"/>
<rect x="99.4" y="400.6" class="st2" width="163.8" height="78.1"/>
<circle class="st6" cx="181.3" cy="439.7" r="15"/>
<circle class="st7" cx="233.9" cy="439.7" r="15"/>
<circle class="st8" cx="128.7" cy="439.7" r="15"/>
</svg>
