<?xml version="1.0" encoding="utf-8"?>
<!-- Generator: Adobe Illustrator 25.1.0, SVG Export Plug-In . SVG Version: 6.00 Build 0)  -->
<svg version="1.1" id="Capa_1" xmlns="http://www.w3.org/2000/svg" xmlns:xlink="http://www.w3.org/1999/xlink" x="0px" y="0px"
	 viewBox="0 0 105.99 105.75" style="enable-background:new 0 0 105.99 105.75;" xml:space="preserve">
<style type="text/css">
	.st0{fill:#2D393D;}
	.st1{fill:#AFAFAF;}
	.st2{fill:#FF4633;}
	.st3{fill:#FFFFFF;}
</style>
<g>
	<g>
		<g>
			<path class="st2" d="M57.94,26.73c2.23,0.42,4.36,1.12,6.35,2.06l5.16-7.1c1.61-2.21,4.7-2.7,6.91-1.09
				c2.21,1.61,2.7,4.7,1.09,6.91l-5.16,7.1c1.52,1.62,2.85,3.43,3.93,5.4l25.43-8.26C94.14,14.37,77.6,1.82,57.94,0V26.73z"/>
		</g>
		<g>
			<path class="st2" d="M29.76,40.01c1.08-1.96,2.4-3.78,3.93-5.4l-5.16-7.1c-1.61-2.21-1.12-5.31,1.09-6.91
				c2.21-1.61,5.31-1.12,6.91,1.09l5.16,7.1c1.99-0.94,4.12-1.64,6.35-2.06V0C28.39,1.82,11.85,14.37,4.33,31.75L29.76,40.01z"/>
		</g>
		<g>
			<path class="st2" d="M79.28,49.42c0.14,1.09,0.21,2.21,0.21,3.34c0,1.13-0.07,2.25-0.21,3.34l8.35,2.71
				c2.6,0.84,4.02,3.64,3.18,6.24c-0.68,2.09-2.62,3.42-4.71,3.42c-0.51,0-1.02-0.08-1.53-0.24l-8.35-2.71
				c-1.08,1.96-2.4,3.78-3.93,5.4l15.71,21.63c11.02-9.71,17.98-23.93,17.98-39.77c0-3.99-0.44-7.87-1.28-11.6L79.28,49.42z"/>
		</g>
		<g>
			<path class="st2" d="M64.29,76.73c-1.99,0.94-4.12,1.64-6.35,2.06v8.77c0,2.73-2.22,4.95-4.95,4.95c-2.73,0-4.95-2.22-4.95-4.95
				v-8.77c-2.23-0.42-4.36-1.12-6.35-2.06L25.98,98.36c7.91,4.7,17.15,7.4,27.01,7.4c9.87,0,19.1-2.7,27.01-7.4L64.29,76.73z"/>
		</g>
		<g>
			<path class="st2" d="M17.98,92.54l15.71-21.63c-1.52-1.62-2.85-3.43-3.93-5.4l-8.35,2.71c-0.51,0.17-1.02,0.24-1.53,0.24
				c-2.09,0-4.03-1.33-4.71-3.42c-0.84-2.6,0.58-5.39,3.18-6.24l8.35-2.71c-0.14-1.09-0.21-2.21-0.21-3.34
				c0-1.13,0.07-2.24,0.21-3.34L1.28,41.16C0.44,44.89,0,48.78,0,52.76C0,68.61,6.96,82.82,17.98,92.54z"/>
		</g>
	</g>
</g>
</svg>
