<?xml version="1.0" encoding="utf-8"?>
<!-- Generator: Adobe Illustrator 25.2.1, SVG Export Plug-In . SVG Version: 6.00 Build 0)  -->
<svg version="1.1" id="ae81c40f-6eb7-45b1-b509-6cf6baf1840d"
	 xmlns="http://www.w3.org/2000/svg" xmlns:xlink="http://www.w3.org/1999/xlink" x="0px" y="0px" viewBox="0 0 808 607"
	 style="enable-background:new 0 0 808 607;" xml:space="preserve">
<style type="text/css">
	.st0{fill:#CCCCCC;}
	.st1{fill:#2D393D;}
	.st2{fill:#FFFFFF;}
	.st3{fill:#747474;}
	.st4{fill:#FF4633;}
	.st5{fill:#E6E6E6;}
</style>
<rect x="203.7" y="186" class="st0" width="405.2" height="2"/>
<rect x="405" y="1" class="st0" width="2" height="186"/>
<rect x="235.4" y="93" class="st0" width="341.3" height="2"/>
<path class="st1" d="M470.5,330.3c0,10.2-3.7,20-10.4,27.7c-0.6,0.7-1.2,1.4-1.9,2h-59.5c-0.6-0.6-1.3-1.3-1.9-2
	c-3.9-4.5-6.9-9.7-8.6-15.5c0,0,0,0,0,0c-1.2-4-1.8-8.1-1.8-12.2c0-1.7,0.1-3.4,0.3-5.1c2.8-23,23.8-39.4,46.8-36.6
	c19.1,2.3,34.2,17.4,36.6,36.5C470.4,326.9,470.5,328.6,470.5,330.3z"/>
<polygon class="st1" points="375.6,360 370.4,360 374.4,358 374.5,357.9 374.6,358 "/>
<polygon class="st1" points="410.6,360 405.5,360 406.5,358 406.5,357.9 406.6,358 "/>
<circle class="st2" cx="425.6" cy="320.1" r="14.4"/>
<ellipse transform="matrix(0.7071 -0.7071 0.7071 0.7071 -105.1229 392.0514)" class="st3" cx="420.7" cy="322.9" rx="4.8" ry="4.8"/>
<path class="st4" d="M461.7,284.6c0.6-15.6-12.8-28.7-29.9-29.4s-31.6,11.3-32.2,26.9s11.3,19.1,28.5,19.8S461,300.2,461.7,284.6z"
	/>
<path class="st2" d="M440.1,346.9c0.9,5.2-2.5,10.2-7.7,11.1s-10.2-2.5-11.1-7.7l0,0c-0.9-5.2,3.1-7,8.3-8S439.1,341.7,440.1,346.9z
	"/>
<path class="st0" d="M647,358H155c-9.9,0-18,8.1-18,18s8.1,18,18,18h492c9.9,0,18-8.1,18-18S656.9,358,647,358z"/>
<path class="st3" d="M610,204v155h-2V204c0-5.4-0.2-10.7-0.6-16c-0.1-0.7-0.1-1.3-0.2-2c-2.9-32.4-13.6-63.7-31.2-91
	c-0.4-0.7-0.9-1.3-1.3-2C537.6,36.5,474.6,2.4,407,2c-0.3,0-0.7,0-1,0s-0.7,0-1,0c-3.8,0-7.5,0.1-11.3,0.4
	c-14.6,0.9-29.1,3.3-43.2,7.4c-8,2.3-15.8,5-23.4,8.3c-36.6,15.6-67.9,41.7-89.8,75c-0.4,0.7-0.9,1.3-1.3,2
	c-17.6,27.4-28.3,58.6-31.2,91c-0.1,0.7-0.1,1.3-0.2,2c-0.4,5.3-0.6,10.6-0.6,16v155h-2V204c0-6.1,0.3-12.1,0.8-18
	c2.9-33.2,14-65.2,32.2-93.1c27.1-41.7,68.6-72.1,116.6-85.5c14-3.9,28.5-6.2,43-7C398.4,0.1,402.2,0,406,0
	c105.7,0.1,193.8,80.8,203.2,186C609.7,191.9,610,197.9,610,204z"/>
<path class="st1" d="M349.6,502.1c56.6,1,56.6,85.2,0,86.1C293,587.2,293,503,349.6,502.1z"/>
<rect x="330" y="578.9" class="st1" width="13.1" height="23.4"/>
<rect x="356.2" y="578.9" class="st1" width="13.1" height="23.4"/>
<path class="st1" d="M340.9,598.6c14.1-0.1,14.1,8.3,0,8.2C326.8,606.8,326.8,598.5,340.9,598.6z"/>
<path class="st1" d="M367.1,598c14.1-0.1,14.1,8.3,0,8.2C352.9,606.3,352.9,597.9,367.1,598z"/>
<path class="st2" d="M350.7,519.5c19.2,0.1,19.2,29.4,0,29.4C331.5,548.9,331.5,519.6,350.7,519.5z"/>
<path class="st3" d="M350.7,529.3c6.4-0.1,6.4,9.9,0,9.8C344.4,539.2,344.4,529.2,350.7,529.3z"/>
<path class="st3" d="M307.9,505.1c-8.1-36.9,53.9-50.7,62.3-13.9c3.5,15.6-7.9,21.3-25.1,25.2S311.3,520.7,307.9,505.1z"/>
<path class="st1" d="M368.4,386.5c10-26.3,22.7-21.4,12.6,4.8C371,417.6,358.4,412.7,368.4,386.5z"/>
<path class="st1" d="M292.4,414.5c10-55.7,93.1-42.2,85,13.8C367.4,484,284.3,470.5,292.4,414.5z"/>
<rect x="315.3" y="455.2" class="st1" width="13.1" height="23.4"/>
<rect x="341.5" y="455.2" class="st1" width="13.1" height="23.4"/>
<path class="st1" d="M326.2,474.8c14.1-0.1,14.1,8.3,0,8.2C312.1,483.1,312.1,474.7,326.2,474.8z"/>
<path class="st1" d="M352.4,474.3c14.1-0.1,14.1,8.3,0,8.2C338.2,482.5,338.2,474.2,352.4,474.3z"/>
<path class="st4" d="M293.1,381.3c-8.1-36.9,53.9-50.7,62.3-13.9c3.5,15.6-7.9,21.3-25.1,25.2S296.6,396.9,293.1,381.3z"/>
<path class="st1" d="M267,392.2c3-8.2,43.3,10.9,38.9,18.5C302.8,418.8,262.5,399.7,267,392.2z"/>
<ellipse transform="matrix(0.7588 -0.6514 0.6514 0.7588 -111.7224 391.1485)" class="st1" cx="472.2" cy="346.4" rx="6.6" ry="21"/>
<ellipse transform="matrix(0.6514 -0.7588 0.7588 0.6514 -128.6255 412.8655)" class="st1" cx="385" cy="346.4" rx="21" ry="6.6"/>
<path class="st5" d="M763,136h-59c-5.5,0-10-4.5-10-10s4.5-10,10-10v2c-4.4,0-8,3.6-8,8s3.6,8,8,8h59V136z"/>
<path class="st5" d="M702,189h-59c-5.5,0-10-4.5-10-10s4.5-10,10-10v2c-4.4,0-8,3.6-8,8s3.6,8,8,8h59V189z"/>
<path class="st5" d="M779,241v-2c4.4,0,8-3.6,8-8s-3.6-8-8-8h-59v-2h59c5.5,0,10,4.5,10,10S784.5,241,779,241z"/>
<path class="st5" d="M798,59v-2c4.4,0,8-3.6,8-8s-3.6-8-8-8h-59v-2h59c5.5,0,10,4.5,10,10S803.5,59,798,59z"/>
<path class="st5" d="M706,78h-59c-5.5,0-10-4.5-10-10s4.5-10,10-10v2c-4.4,0-8,3.6-8,8s3.6,8,8,8h59V78z"/>
<path class="st5" d="M130,268H71c-5.5,0-10-4.5-10-10s4.5-10,10-10v2c-4.4,0-8,3.6-8,8s3.6,8,8,8h59V268z"/>
<path class="st5" d="M161,302v-2c4.4,0,8-3.6,8-8s-3.6-8-8-8h-59v-2h59c5.5,0,10,4.5,10,10S166.5,302,161,302z"/>
<path class="st5" d="M69,321H10c-5.5,0-10-4.5-10-10s4.5-10,10-10v2c-4.4,0-8,3.6-8,8s3.6,8,8,8h59V321z"/>
<path class="st5" d="M134,157H75c-5.5,0-10-4.5-10-10s4.5-10,10-10v2c-4.4,0-8,3.6-8,8s3.6,8,8,8h59V157z"/>
<path class="st5" d="M165,191v-2c4.4,0,8-3.6,8-8s-3.6-8-8-8h-59v-2h59c5.5,0,10,4.5,10,10S170.5,191,165,191z"/>
<path class="st5" d="M73,210H14c-5.5,0-10-4.5-10-10s4.5-10,10-10v2c-4.4,0-8,3.6-8,8s3.6,8,8,8h59V210z"/>
<path class="st5" d="M559,465h-59c-5.5,0-10-4.5-10-10s4.5-10,10-10v2c-4.4,0-8,3.6-8,8s3.6,8,8,8h59V465z"/>
<path class="st5" d="M625,519v-2c4.4,0,8-3.6,8-8s-3.6-8-8-8h-59v-2h59c5.5,0,10,4.5,10,10S630.5,519,625,519z"/>
<path class="st5" d="M505,529h-59c-5.5,0-10-4.5-10-10s4.5-10,10-10v2c-4.4,0-8,3.6-8,8s3.6,8,8,8h59V529z"/>
<path class="st5" d="M291,524v-2c4.4,0,8-3.6,8-8s-3.6-8-8-8h-59v-2h59c5.5,0,10,4.5,10,10S296.5,524,291,524z"/>
<path class="st5" d="M113,549H54c-5.5,0-10-4.5-10-10s4.5-10,10-10v2c-4.4,0-8,3.6-8,8s3.6,8,8,8h59V549z"/>
<path class="st3" d="M510.9,607h-381c-0.6,0-1-0.4-1-1s0.4-1,1-1h381c0.6,0,1,0.4,1,1S511.4,607,510.9,607z"/>
<path class="st3" d="M186.5,606.2c-0.8,1.8-3.4,0.2-2.6-1.5c3.5-8.3,5.9-17,7.2-25.9c2.1-15.3,0.9-30.9-3.4-45.7
	c-0.2-0.5-0.3-1.1-0.5-1.6c-0.4-1.2-0.8-2.4-1.2-3.6c-4.8-14-12.5-26.7-22.7-37.5c-1.3-1.4,0.8-3.5,2.1-2.1
	c6.4,6.7,11.9,14.3,16.3,22.5c2.1,3.9,4,7.9,5.6,12.1c0.6,1.6,1.2,3.2,1.8,4.9c3.3,9.7,5.2,19.8,5.8,30.1
	C195.9,574.4,193,591,186.5,606.2z"/>
<path class="st3" d="M209.4,453.4c-3.3,12.2-6.7,24.4-10,36.6c-3.5,12.6-6.9,25.2-10.3,37.8c-0.5,1.8-1,3.6-1.5,5.3
	c-0.2-0.5-0.3-1.1-0.5-1.6c-0.4-1.2-0.8-2.4-1.2-3.6c0.5-1.7,0.9-3.3,1.4-5c0.6-2.3,1.2-4.5,1.9-6.8c5.8-21.2,11.6-42.4,17.3-63.5
	c0.2-0.8,1.1-1.2,1.9-1C209.2,451.9,209.6,452.6,209.4,453.4z"/>
<path class="st4" d="M147.7,457.8c-1.7,3.8-3.5,7.7-4.3,11.9s-0.4,8.7,1.8,12.2c1.9,2.7,4.5,4.9,7.4,6.5c4.2,2.4,9.6,4.1,13.6,1.4
	c4-2.7,4.5-8.8,2.2-13.1s-6.5-7.2-10.6-9.8s-7.3-4.7-10-8.8L147.7,457.8z"/>
<path class="st4" d="M219,418.7c-4,1.3-8.1,2.7-11.6,4.9s-6.6,5.6-7.7,9.6c-0.7,3.3-0.6,6.6,0.3,9.8c1.1,4.7,3.5,9.8,8.2,11
	c4.7,1.1,9.5-2.7,11.2-7.3s0.9-9.6,0-14.4s-1.5-8.6-0.3-13.3L219,418.7z"/>
<path class="st4" d="M147.1,505.3c1.1,4.1,2.2,8.2,4.3,11.9s5.2,6.9,9.2,8.2c3.2,0.9,6.6,0.9,9.8,0.2c4.7-0.8,10-3,11.4-7.7
	c1.4-4.7-2.2-9.6-6.7-11.5s-9.6-1.4-14.4-0.8s-8.6,1.1-13.3-0.3L147.1,505.3z"/>
<path class="st4" d="M159.1,558.3c1.1,4.1,2.2,8.2,4.3,11.9s5.2,6.9,9.2,8.2c3.2,0.9,6.6,0.9,9.8,0.2c4.7-0.8,10-3,11.4-7.7
	c1.4-4.7-2.2-9.6-6.7-11.5s-9.6-1.4-14.4-0.8s-8.6,1.1-13.3-0.3L159.1,558.3z"/>
<path class="st4" d="M224.9,523.3c-1.1,4.1-2.2,8.2-4.3,11.9s-5.2,6.9-9.2,8.2c-3.2,0.9-6.6,0.9-9.8,0.2c-4.7-0.8-10-3-11.4-7.7
	c-1.4-4.7,2.2-9.6,6.7-11.5s9.6-1.4,14.4-0.8s8.6,1.1,13.3-0.3L224.9,523.3z"/>
<path class="st4" d="M236.9,469.3c-1.1,4.1-2.2,8.2-4.3,11.9s-5.2,6.9-9.2,8.2c-3.2,0.9-6.6,0.9-9.8,0.2c-4.7-0.8-10-3-11.4-7.7
	c-1.4-4.7,2.2-9.6,6.7-11.5s9.6-1.4,14.4-0.8s8.6,1.1,13.3-0.3L236.9,469.3z"/>
</svg>
