<?xml version="1.0" encoding="utf-8"?>
<!-- Generator: Adobe Illustrator 25.1.0, SVG Export Plug-In . SVG Version: 6.00 Build 0)  -->
<svg version="1.1" id="Capa_1" xmlns="http://www.w3.org/2000/svg" xmlns:xlink="http://www.w3.org/1999/xlink" x="0px" y="0px"
	 viewBox="0 0 512 512" style="enable-background:new 0 0 512 512;" xml:space="preserve">
<style type="text/css">
	.st0{fill:#2D393D;}
	.st1{fill:#FF4633;}
	.st2{fill:#747474;}
	.st3{fill:#FFFFFF;}
</style>
<g>
	<path class="st0" d="M380,135.9c-1,0-1.9-0.2-2.9-0.5c-36.7-13.2-78.5-20.2-121.1-20.2c-35.8,0-70.3,4.8-102.6,14.1
		c-4.5,1.3-9.3-1.3-10.6-5.8c-1.3-4.5,1.3-9.3,5.8-10.6c33.8-9.8,69.9-14.8,107.3-14.8c44.5,0,88.4,7.3,126.9,21.2
		c4.4,1.6,6.7,6.5,5.1,10.9C386.8,133.7,383.5,135.9,380,135.9z"/>
	<path class="st0" d="M317.3,417.6c-4.1,0-7.7-3-8.4-7.2c-0.7-4.7,2.4-9,7.1-9.8c105.4-16.7,179-74.4,179-140.4
		c0-27.8-13.3-54.9-38.3-78.5c-3.4-3.2-3.6-8.6-0.4-12.1c3.2-3.4,8.6-3.6,12.1-0.4c28.6,26.8,43.7,58.2,43.7,90.9
		c0,74.6-79.5,139.3-193.4,157.3C318.1,417.6,317.7,417.6,317.3,417.6L317.3,417.6z"/>
	<path class="st0" d="M213.5,420.1c-0.3,0-0.6,0-0.9-0.1C89.4,406.8,0,339.6,0,260.3c0-31.3,14-61.7,40.6-87.8
		c3.4-3.3,8.8-3.3,12.1,0.1c3.3,3.4,3.3,8.8-0.1,12.1c-23.2,22.8-35.5,49-35.5,75.7c0,70.5,83,130.5,197.3,142.8
		c4.7,0.5,8.1,4.7,7.6,9.4C221.5,416.9,217.8,420.1,213.5,420.1L213.5,420.1z"/>
</g>
<path class="st1" d="M375.5,106.7c0,37.7,59.7,102.4,59.7,102.4s59.7-64.7,59.7-102.4s-26.7-68.3-59.7-68.3S375.5,69,375.5,106.7z"
	/>
<path class="st1" d="M34.1,140.8c0,37.7,59.7,102.4,59.7,102.4s59.7-64.7,59.7-102.4s-26.7-68.3-59.7-68.3S34.1,103.1,34.1,140.8z"
	/>
<path class="st2" d="M187.7,350.7c0,45.2,76.8,122.9,76.8,122.9s76.8-77.6,76.8-122.9s-34.4-81.9-76.8-81.9S187.7,305.5,187.7,350.7
	z"/>
<circle class="st3" cx="435.2" cy="98.1" r="25.6"/>
<circle class="st3" cx="93.9" cy="132.3" r="25.6"/>
<circle class="st3" cx="264.5" cy="345.6" r="34.1"/>
</svg>
