<?xml version="1.0" encoding="utf-8"?>
<!-- Generator: Adobe Illustrator 25.2.1, SVG Export Plug-In . SVG Version: 6.00 Build 0)  -->
<svg version="1.1" id="fc98b6f9-21a0-4a6d-bd35-cd8a18cd4eab"
	 xmlns="http://www.w3.org/2000/svg" xmlns:xlink="http://www.w3.org/1999/xlink" x="0px" y="0px" viewBox="0 0 854.6 577.9"
	 style="enable-background:new 0 0 854.6 577.9;" xml:space="preserve">
<style type="text/css">
	.st0{fill:#CCCCCC;}
	.st1{fill:#747474;}
	.st2{fill:#E6E6E6;}
	.st3{fill:#2F2E41;}
	.st4{fill:#FF4633;}
	.st5{fill:#FFB9B9;}
	.st6{fill:#2D393D;}
	.st7{fill:#AFAFAF;}
	.st8{fill:#F7F7F7;}
</style>
<rect x="151.6" y="268" class="st0" width="110" height="123"/>
<polygon class="st1" points="95.6,576 39.6,576 33.6,528 101.6,528 "/>
<path class="st2" d="M208,541.2l-1.9,25.8c-0.3,4.5,3.1,8.5,7.6,8.8c0.4,0,0.7,0,1.1,0l13.3-0.8c2.3-0.1,4.1-2.1,3.9-4.4
	c0-0.3-0.1-0.5-0.1-0.8l-7.4-29.5L208,541.2z"/>
<path class="st2" d="M319,556.5c15.6,3.7,26.8,8.8,34.1,15.9c2.6,2.5,6,3.9,9.6,4.1c4.6,0.2,8.4-0.3,11.2-1.5h0
	c1.5-0.6,2.5-2,2.6-3.7c0.2-1.6-0.5-3.2-1.9-4.2l-37-26.4l-15.7,6.3l-3.7,3.7c-1.4,1.4-1.4,3.7,0,5.1
	C318.4,556.1,318.7,556.3,319,556.5L319,556.5z"/>
<path class="st3" d="M270.9,134.7l-105.9-1c0.3-15.4,3.9-30.6,11.7-44.1c5.2-8.9,5-18.6,3.8-26.7c-1.9-12.6,2.5-25.5,12.4-33.5
	c7.6-6.1,17.1-9.3,26.8-8.9l2.1,0.1c13.6,0.6,26,8,32.9,19.8c3.4,6.2,4.8,13.3,4,20.3c-0.7,6.6,0.9,13.3,4.7,20
	C269.9,95.4,271.3,114.3,270.9,134.7z"/>
<path class="st4" d="M341.8,542.2l-20.8,5.4L219.8,327.2l6.3,215h-20.8c-22.2-101.2-62.3-217.9-44.3-254.8l107.5-6.3L341.8,542.2z"
	/>
<circle class="st5" cx="218.9" cy="69.7" r="28"/>
<path class="st5" d="M243.3,121.2l-46.1-2.7c4.5-10.4,6.3-20.3,4.5-29.8h34.3C236,95.9,239.6,108.5,243.3,121.2z"/>
<polygon class="st4" points="272.2,289.2 171,296.4 181.4,117.1 199,112.1 218.9,116.7 238.8,106.7 251.4,111.2 "/>
<path class="st2" d="M188.2,418.4l-69.1-15.8c20.6-68.1,57.6-224.1,45.6-279.6l36.1-16.3L188.2,418.4z"/>
<path class="st2" d="M154.8,221.5l-26.2-16.3l22.3-65.4c2.5-6.8,7.3-12.4,13.5-16l7.5-4.4l-4.5,65.9L154.8,221.5z"/>
<path class="st2" d="M332.3,403.5c-21.8,12.6-76.3,19.7-100.3,10.8c-1.8-61.6-5.2-235.7,5.9-309.4l39.8,16.3L274,170
	C255,211.7,310.2,357.1,332.3,403.5z"/>
<polygon class="st2" points="329.1,213.3 304.7,205.2 272.2,168.2 277.6,121.2 331.8,197.1 "/>
<path class="st5" d="M252.7,248.5c0.8,3.6,4.5,5.9,8.1,5.1l20.7-4.7l-3-13.2l-20.7,4.7C254.1,241.2,251.9,244.8,252.7,248.5
	L252.7,248.5z"/>
<path class="st3" d="M243.3,62.5c-15.6-6.4-30.9-6.9-46.1-0.9L190.9,39h57.8L243.3,62.5z"/>
<path class="st2" d="M271.3,233.2l11.7,21.7c19.8-5.5,36.9-22.9,53.3-43.4l-4.5-14.5l-28,7.2L271.3,233.2z"/>
<path class="st1" d="M262.7,188.5h-3.6c0-51.1-10.5-86.7-20.8-86.7l-0.9-3.6c9.2,0,15.1,14.8,18.4,27.3
	C260.3,142.3,262.7,164.7,262.7,188.5z"/>
<path class="st1" d="M179.6,175.8H176c0-46.8,10.6-75.9,26.2-75.9l-0.9,3.6C190.5,103.6,179.6,125.9,179.6,175.8z"/>
<ellipse transform="matrix(0.1602 -0.9871 0.9871 0.1602 32.1805 416.6013)" class="st1" cx="260.9" cy="189.4" rx="9" ry="9"/>
<path class="st1" d="M165.2,197.5h-3.6c0-13,7.3-23.5,16.3-23.5v3.6C170.8,177.6,165.2,186.6,165.2,197.5z"/>
<path class="st1" d="M194.1,197.5h-3.6c0-11-5.7-19.9-12.6-19.9V174C186.8,174,194.1,184.6,194.1,197.5z"/>
<circle class="st1" cx="192.3" cy="198.4" r="3.6"/>
<circle class="st1" cx="163.3" cy="198.4" r="3.6"/>
<polygon class="st4" points="118.2,165.2 140.7,169.2 192.3,242.5 164.9,236.1 "/>
<path class="st6" d="M114.2,164.3c-1.1,0-1.9,0.9-1.9,1.9c0,0.4,0.1,0.7,0.3,1l48.2,73.1c0.3,0.4,0.7,0.7,1.2,0.8l22.4,5.3
	c1,0.2,2.1-0.4,2.3-1.4c0.1-0.5,0-1.1-0.3-1.5l-52.9-75.2c-0.3-0.4-0.7-0.7-1.2-0.8l-17.7-3.2C114.4,164.3,114.3,164.3,114.2,164.3z
	"/>
<path class="st5" d="M144.2,216.6l1.3,13.5l21.1-2.1c3.7-0.4,6.4-3.7,6.1-7.4c-0.4-3.7-3.7-6.4-7.4-6.1L144.2,216.6z"/>
<path class="st2" d="M125.9,215c0.1,9.6,7.8,17.3,17.4,17.3h3.5l2.5-21.1l-20.9-7.5L125.9,215z"/>
<rect x="442.6" class="st7" width="412" height="217"/>
<path class="st8" d="M454.6,205h388V12h-388V205z"/>
<rect x="484.6" y="40" class="st6" width="138" height="138"/>
<circle class="st4" cx="589.6" cy="99" r="4"/>
<circle class="st4" cx="574.6" cy="85" r="4"/>
<path class="st4" d="M572.6,99c-1.5,0-2.9,0.4-4.2,1.2c-1.1-1.7-2.4-3.2-3.9-4.5c0-0.2,0-0.4,0-0.6c0-4.4-3.6-8-8-8
	c-2.1,0-4.1,0.8-5.6,2.2c-2.1-0.3-4.3-0.3-6.5-0.1c0-0.1,0-0.1,0-0.2c0-4.4-3.6-8-8-8s-8,3.6-8,8c0,2.3,1,4.5,2.7,6
	c-1.3,1.1-2.6,2.4-3.6,3.8c-3.4-2.8-8.4-2.4-11.3,1c-2.8,3.4-2.4,8.4,1,11.3c1.4,1.2,3.2,1.9,5.1,1.9l0,0c0,0.3,0,0.7,0,1
	c0,2,0.2,4,0.7,6c-7.8,2.9-11.7,11.6-8.8,19.3s11.6,11.7,19.3,8.8c4.3-1.6,7.6-5.1,9-9.5c5.6,1.1,11.3,0.2,16.3-2.4
	c1.7,4.1,6.4,6,10.5,4.2s6-6.4,4.2-10.5c-0.8-1.9-2.3-3.4-4.2-4.2c1.7-3.3,2.7-6.9,2.8-10.6l0,0c4.4,0,8-3.6,8-8S577,99,572.6,99
	L572.6,99z"/>
<rect x="530.6" y="37" class="st7" width="40" height="6"/>
<rect x="660.6" y="40" class="st6" width="138" height="138"/>
<circle class="st4" cx="755.8" cy="131.8" r="1.8"/>
<circle class="st4" cx="749" cy="125.5" r="1.8"/>
<path class="st4" d="M748.1,131.8c-0.7,0-1.3,0.2-1.9,0.5c-0.5-0.7-1.1-1.4-1.7-2c0-0.1,0-0.2,0-0.3c0-2-1.6-3.6-3.6-3.6
	c-0.9,0-1.8,0.4-2.5,1c-1-0.1-1.9-0.1-2.9,0c0,0,0-0.1,0-0.1c0-2-1.6-3.6-3.6-3.6c-2,0-3.6,1.6-3.6,3.6c0,1,0.4,2,1.2,2.7
	c-0.6,0.5-1.1,1.1-1.6,1.7c-1.5-1.3-3.8-1.1-5.1,0.5c-1.3,1.5-1.1,3.8,0.5,5.1c0.6,0.5,1.5,0.8,2.3,0.8l0,0c0,0.1,0,0.3,0,0.5
	c0,0.9,0.1,1.8,0.3,2.7c-3.5,1.3-5.3,5.2-3.9,8.7c1.3,3.5,5.2,5.3,8.7,3.9c1.9-0.7,3.4-2.3,4.1-4.3c2.5,0.5,5.1,0.1,7.4-1.1
	c0.8,1.8,2.9,2.7,4.7,1.9c1.8-0.8,2.7-2.9,1.9-4.7c-0.4-0.9-1-1.5-1.9-1.9c0.8-1.5,1.2-3.1,1.3-4.8l0,0c2,0,3.6-1.6,3.6-3.6
	S750.1,131.8,748.1,131.8L748.1,131.8z"/>
<circle class="st4" cx="769.9" cy="97.6" r="1.8"/>
<circle class="st4" cx="774.1" cy="89.4" r="1.8"/>
<path class="st4" d="M767.8,90.3c-0.2-0.6-0.5-1.2-1-1.7c0.6-0.7,1.1-1.4,1.5-2.2c0.1,0,0.2,0,0.3-0.1c1.9-0.5,3-2.5,2.5-4.4
	c-0.3-0.9-0.8-1.7-1.6-2.1c-0.1-1-0.4-1.9-0.8-2.8c0,0,0.1,0,0.1,0c1.9-0.5,3-2.5,2.5-4.4c-0.5-1.9-2.5-3-4.4-2.5
	c-1,0.3-1.8,1-2.3,1.9c-0.7-0.4-1.4-0.8-2.1-1.1c0.8-1.8,0-3.9-1.8-4.8c-1.8-0.8-3.9,0-4.8,1.8c-0.3,0.8-0.4,1.6-0.2,2.4l0,0
	c-0.1,0-0.3,0.1-0.4,0.1c-0.9,0.2-1.7,0.6-2.5,1c-2.2-3-6.4-3.6-9.4-1.4c-3,2.2-3.6,6.4-1.4,9.4c1.2,1.7,3.1,2.7,5.2,2.7
	c0.2,2.5,1.3,4.9,3,6.8c-1.6,1.2-1.8,3.5-0.6,5.1s3.5,1.8,5.1,0.6c0.7-0.6,1.2-1.4,1.3-2.4c1.6,0.3,3.3,0.3,5-0.1l0,0
	c0.5,1.9,2.5,3,4.4,2.5C767.2,94.2,768.3,92.2,767.8,90.3C767.8,90.3,767.8,90.3,767.8,90.3L767.8,90.3z"/>
<circle class="st4" cx="700.2" cy="73.2" r="1.8"/>
<circle class="st4" cx="691" cy="73.9" r="1.8"/>
<path class="st4" d="M695,78.8c-0.4,0.5-0.7,1.1-0.9,1.7c-0.9-0.1-1.8-0.2-2.7-0.1c-0.1-0.1-0.1-0.1-0.2-0.2
	c-1.5-1.3-3.7-1.2-5.1,0.2c-0.6,0.7-1,1.6-0.9,2.5c-0.8,0.6-1.4,1.3-2,2.1c0,0,0,0-0.1-0.1c-1.5-1.3-3.7-1.2-5.1,0.2
	c-1.3,1.5-1.2,3.7,0.2,5.1c0.8,0.7,1.8,1,2.8,0.9c0,0.8,0,1.6,0.2,2.4c-2,0.3-3.3,2.1-3.1,4.1c0.3,2,2.1,3.3,4.1,3.1
	c0.8-0.1,1.6-0.5,2.2-1.1l0,0c0.1,0.1,0.2,0.2,0.3,0.3c0.7,0.6,1.4,1.1,2.2,1.6c-1.4,3.5,0.3,7.4,3.8,8.8c3.5,1.4,7.4-0.3,8.8-3.8
	c0.8-1.9,0.6-4.1-0.4-5.9c2-1.5,3.5-3.7,4.2-6.2c1.9,0.7,3.9-0.3,4.6-2.2c0.7-1.9-0.3-3.9-2.2-4.6c-0.9-0.3-1.8-0.3-2.7,0.1
	c-0.6-1.6-1.5-3-2.7-4.2l0,0c1.3-1.5,1.2-3.7-0.2-5.1C698.6,77.3,696.4,77.4,695,78.8C695,78.8,695,78.8,695,78.8L695,78.8z"/>
<rect x="706.6" y="37" class="st2" width="40" height="6"/>
<path class="st7" d="M25.2,510.2c14.4,19.3,44.4,21.3,44.4,21.3s6.6-29.3-7.9-48.6s-44.4-21.3-44.4-21.3S10.8,490.9,25.2,510.2z"/>
<path class="st7" d="M98.6,517.5c-9.5,12.7-29.3,14.1-29.3,14.1s-4.3-19.3,5.2-32.1c9.5-12.7,29.3-14.1,29.3-14.1
	S108.1,504.8,98.6,517.5z"/>
<rect y="575.7" class="st6" width="519.6" height="2.2"/>
</svg>
