<?xml version="1.0" encoding="utf-8"?>
<!-- Generator: Adobe Illustrator 25.1.0, SVG Export Plug-In . SVG Version: 6.00 Build 0)  -->
<svg version="1.1" id="ace505a7-e733-4353-98c8-975df89a5922"
	 xmlns="http://www.w3.org/2000/svg" xmlns:xlink="http://www.w3.org/1999/xlink" x="0px" y="0px" viewBox="0 0 728.1 680"
	 style="enable-background:new 0 0 728.1 680;" xml:space="preserve">
<style type="text/css">
	.st0{fill:#2D393D;}
	.st1{fill:#E6E6E6;}
	.st2{fill:#FFFFFF;}
	.st3{fill:#FF4633;}
	.st4{fill:#FFB8B8;}
	.st5{fill:#AFAFAF;}
	.st6{fill:#A0616A;}
	.st7{fill:#D5E0DE;}
</style>
<path id="a55003b0-0446-4784-a3ce-c481a9759178" class="st0" d="M554.8,161.6h-3.7V59.2c0-32.7-26.5-59.2-59.2-59.2H275
	c-32.7,0-59.2,26.5-59.2,59.2v561.5c0,32.7,26.5,59.2,59.2,59.2h216.9c32.7,0,59.2-26.5,59.2-59.2V234.5h3.7V161.6z"/>
<path id="ad332593-d547-4870-8db7-c0503e6eb31e" class="st1" d="M539,55.3v569.5c0,24.8-20.1,44.9-44.9,44.9H272.8
	c-24.8,0-44.9-20.1-44.9-44.9V55.3c0-24.8,20.1-44.9,44.9-44.9h26.8c-4.4,10.9,0.8,23.4,11.7,27.8c2.5,1,5.3,1.6,8,1.6h126.2
	c11.8,0,21.4-9.6,21.3-21.4c0-2.8-0.5-5.5-1.6-8h28.8C518.9,10.4,539,30.5,539,55.3L539,55.3z"/>
<path class="st2" d="M515.4,639.9h-264c-4.7,0-8.5-3.8-8.5-8.5v-555c0-4.7,3.8-8.5,8.5-8.5h264c4.7,0,8.5,3.8,8.5,8.5v555
	C523.9,636.1,520.1,639.9,515.4,639.9z"/>
<circle id="edacdc74-dfad-4c1d-939b-d6c7a98a2115" class="st1" cx="382.4" cy="182.6" r="72.7"/>
<circle id="aec4df6d-8b06-4bbe-8d40-2c8bcc37cf40" class="st2" cx="381.4" cy="182.6" r="62.9"/>
<path id="b468b121-27e1-4684-879a-d4a6b6510a38" class="st3" d="M382.8,146.9c-19.8,0-35.9,16.1-35.9,35.9
	c0,19.8,16.1,35.9,35.9,35.9c19.8,0,35.9-16.1,35.9-35.9C418.7,163,402.6,146.9,382.8,146.9L382.8,146.9z M382.8,157.7
	c5.9,0,10.8,4.8,10.8,10.8c0,5.9-4.8,10.8-10.8,10.8c-5.9,0-10.8-4.8-10.8-10.8C372.1,162.5,376.9,157.7,382.8,157.7
	C382.8,157.7,382.8,157.7,382.8,157.7z M382.8,209.4c-8.6,0-16.7-4.3-21.5-11.5c0.2-7.2,14.3-11.1,21.5-11.1s21.3,3.9,21.5,11.1
	C399.5,205.1,391.4,209.4,382.8,209.4L382.8,209.4z"/>
<rect id="af237293-25a3-489f-aa06-65014690590a" x="316.6" y="279.7" class="st1" width="125.8" height="9.5"/>
<rect id="aecd757e-3845-4054-8ef4-8f3b3f1464a2" x="299.8" y="304.3" class="st1" width="158.4" height="9.5"/>
<rect id="a528162f-764e-4523-bc44-e6dc5465582a" x="271.9" y="374.9" class="st1" width="223.1" height="223.1"/>
<rect id="ac408f88-9589-4a26-924c-e7a781ddb6bc" x="275.4" y="379.6" class="st2" width="213.7" height="213.7"/>
<g id="be47c712-4ebf-4226-80ad-879612060a69">
	<rect id="fadc6105-0551-448d-b6d9-436c4cc2b7a7" x="319.4" y="400.3" class="st1" width="83.2" height="6.3"/>
	<rect id="a4376b16-bb23-442d-8938-a8bcab4f190c" x="319.4" y="418.6" class="st3" width="128.4" height="6.3"/>
	<rect id="ae6c1c25-1aef-4af7-84b7-a99cb79f7c28" x="320.8" y="436.1" class="st1" width="104.7" height="6.3"/>
	<rect id="ad31106a-9486-4fc6-9d92-2d07f7dcec19" x="319.4" y="455.3" class="st1" width="61.1" height="6.3"/>
	<rect id="e133e237-d12d-4331-8259-b0f1b7869d24" x="319.4" y="474" class="st3" width="92.2" height="6.3"/>
	<rect id="a9ae706b-b3a6-4b62-8ac7-3a7f4cd0039d" x="319.4" y="492.9" class="st1" width="83.2" height="6.3"/>
	<rect id="bd082349-b2f2-4b60-be0c-57e16efac88b" x="319.4" y="511.2" class="st3" width="128.4" height="6.3"/>
	<rect id="ac0416d6-b57f-4bc7-9ff0-bb8dbe215cb0" x="320.8" y="528.7" class="st1" width="104.7" height="6.3"/>
	<rect id="b9702d28-4113-492b-a4b0-dbfc92fa702e" x="319.4" y="547.9" class="st1" width="61.1" height="6.3"/>
	<rect id="b41357bb-831a-49ca-b340-115c840dd657" x="319.4" y="566.6" class="st1" width="92.2" height="6.3"/>
</g>
<g id="ac800076-fc8a-4256-a3b5-70e496d28429">
	<path id="b13647df-bb42-4a02-9bba-2700c526619d" class="st4" d="M692.8,485c-2.5,4.4-8.1,5.9-12.5,3.4c-4.4-2.5-5.9-8.1-3.4-12.5
		l0,0c0,0,0-0.1,0.1-0.1c0.3-0.4,0.5-0.8,0.9-1.2l-7.7-54.7l-0.2-1.6l-1.6-11.2l-0.2-1.6l0.8,0l14.9,0.7l4,0.2l0.5,10.2l2.8,57.3
		C694.2,476.8,694.9,481.4,692.8,485z"/>
	<path id="bd34735f-0976-456f-8e45-072b5e73a744" class="st5" d="M670,418.8l18.9-1.7c2-0.2,3.5-2,3.4-4l-3.5-39.3
		c-0.7-7.9-7.7-13.7-15.5-13c-7.9,0.7-13.7,7.7-13,15.5c0,0.3,0.1,0.5,0.1,0.8l5.7,38.5c0.3,1.8,1.8,3.2,3.7,3.2
		C669.7,418.8,669.9,418.8,670,418.8z"/>
	<path id="f1e660d0-c56f-45d1-8714-e8a3d2ffeea9" class="st5" d="M684.3,387c3.9-11.1,0-23.5-9.7-30.3c-7.1-4.9-16.9-6.6-27.4,5.9
		c-21,25-26.5,52.5-26.5,52.5l43,7C663.7,422.1,678.4,404.2,684.3,387z"/>
	<path id="eb60bd0b-2a6b-4db7-a453-977e2259822f" class="st4" d="M614.7,668.6h-12.3l-5.8-47.3h18.1L614.7,668.6z"/>
	<path id="b4104c20-2c86-47e7-b6b0-d86d656d7ba2" class="st0" d="M578.8,680h38.5v-14.9h-23.6C585.5,665.1,578.8,671.8,578.8,680
		L578.8,680z"/>
	<path id="b4e48bf6-fea8-48c3-adaa-b392a855b3f6" class="st4" d="M715.5,657.9l-11.6,3.8l-20.4-43.1l17.2-5.7L715.5,657.9z"/>
	<path id="a6908023-9fbc-48a9-be4c-c86c0c45ebaf" class="st0" d="M685,680l36.6-12.1l-4.7-14.1l-22.4,7.4
		C686.7,663.8,682.4,672.2,685,680L685,680z"/>
	<circle id="a687fec6-02c9-4040-89ed-32d713123e7f" class="st4" cx="657.3" cy="319.8" r="24.6"/>
	<path id="badfc474-5669-4d61-bc01-f70cc92406de" class="st0" d="M635.8,655.5l11.4-75.1c0.3-1.9,2.1-3.2,4-2.9
		c1.4,0.2,2.5,1.3,2.9,2.6l17.3,71.6c0.6,2.3,2.8,3.7,5.1,3.4l47.8-7.7c2.5-0.4,4.1-2.7,3.7-5.2c0-0.2-0.1-0.4-0.1-0.6L665.5,436
		c-0.2-0.6-0.2-1.2-0.1-1.8l2.1-9c0.5-2-0.5-4.1-2.3-5c-8.5-4.3-30-13.3-46.2-3.5c-1.1,0.6-1.8,1.7-2.1,2.9l-48.7,229
		c-0.5,2.4,1,4.8,3.5,5.3c0.2,0,0.4,0.1,0.5,0.1l58.8,5.3c0.1,0,0.3,0,0.4,0C633.6,659.3,635.5,657.6,635.8,655.5L635.8,655.5z"/>
	<path id="eb685785-93ca-4296-839e-b201e57ae5bb" class="st0" d="M673.6,302.4c-1.9-1.1-3.5-2.5-4.9-4.2c-1.4-1.7-1.7-4-1-6.1
		c1.2-2.7,4.9-3.6,7.8-2.7s5.1,3.2,7.2,5.3c1.8,1.9,3.7,3.9,4.6,6.4c0.9,2.5,0.4,5.7-1.7,7.2c-2.1,1.5-5.2,0.9-7.2-0.7
		s-3.3-4-4.5-6.3L673.6,302.4z"/>
	<path id="a7ccb8bb-f2b9-4447-b454-9c546e399f41" class="st0" d="M681.9,295.4c0.1-6.9,8-11.9,14.8-10.7s12,7,14.7,13.4
		c5.5,13.5,1.4,29-4,42.6c-5.3,13.6-11.9,27.4-11.2,42c1.1,16.1,10.9,30.3,25.5,37c-7.7,3.5-16.9-0.1-23.3-5.5
		c-14.3-12.1-19.9-33.5-13.2-51c3.3-8.6,9.2-16,13.7-24.1s7.9-17.5,5.6-26.5c-2.4-8.9-12.4-16.2-21-12.7L681.9,295.4z"/>
	<path id="bd42e2a1-f38b-413b-b655-cc202f14f4c1" class="st0" d="M655.8,330.7c2.1-3.6,4.3-8.4,0.4-11.5c-1.7-1.3-3.9-1.9-6-1.6
		c-4.4,0.5-9.2,0.8-13.5-0.9c-3.2-1.1-5.9-3.5-7.3-6.6c-2.2-5.2,0.6-11.6,5.2-14.9c5.8-4,13.4-4.1,19.3-0.3c6-2.6,13.2-1.5,18.6,2.2
		c5.4,3.6,9.1,9.4,11.2,15.6c1.9,5.3,2.2,11.1,0.9,16.6c-2,7.8-7.8,14.1-15.3,16.9c-2.9,1.2-6.3,0.7-8.8-1.3c0,0-3.4-3-4.4-6.5
		C655.1,335.6,654.7,332.6,655.8,330.7z"/>
	<path id="a0cecca8-8fe0-4420-9365-651f9eef8dd5" class="st4" d="M583,352.6c0.1,0.5,0.2,1.1,0.2,1.6l43,24.8l10.4-6l11.1,14.6
		L630.3,400c-2.9,2.1-6.8,2-9.6-0.2l-44.3-34.9c-5.4,2-11.5-0.8-13.5-6.2c-2-5.4,0.8-11.5,6.2-13.5c5.4-2,11.5,0.8,13.5,6.2
		C582.7,351.7,582.9,352.2,583,352.6L583,352.6z"/>
	<path id="b21f2b01-13d8-4bae-8637-c810de2f9faf" class="st5" d="M627.6,380.2l13.9,18c1.5,2,4.3,2.3,6.3,0.8
		c0.2-0.1,0.3-0.3,0.5-0.4l15.7-16.3c5.5-4.1,6.7-12,2.6-17.5s-12-6.7-17.5-2.6l0,0c-0.1,0.1-0.3,0.2-0.4,0.3l-19.7,11
		c-2.2,1.2-2.9,4-1.7,6.1C627.3,379.8,627.5,380,627.6,380.2L627.6,380.2z"/>
</g>
<g id="b22d1c68-5a77-444f-a5cc-3f82f20a89dd">
	<path id="e5b1612b-0075-49ae-a43a-e875f9772667" class="st6" d="M123.7,423.1c-0.5,0.2-1,0.5-1.4,0.8l-44.9-19.1l-1.6-11.8
		l-17.9-0.1l1.1,27.1l59.2,15.7c0.1,0.4,0.3,0.8,0.4,1.2c2.4,5.1,8.5,7.3,13.6,4.9c5.1-2.4,7.3-8.5,4.9-13.6
		C134.8,423,128.8,420.8,123.7,423.1L123.7,423.1z"/>
	<path id="aa9c986c-d78a-4457-b2bb-b0791fabccea" class="st6" d="M51.4,668.6h12.3l5.8-47.3H51.4L51.4,668.6z"/>
	<path id="b210f84f-9c85-4cf8-a59b-65b7d4fb35d0" class="st0" d="M72.4,665.1H48.8V680h38.5C87.3,671.8,80.6,665.1,72.4,665.1
		C72.4,665.1,72.4,665.1,72.4,665.1L72.4,665.1L72.4,665.1z"/>
	<path id="f66096e0-a946-448d-a2e8-3cde5fe284ed" class="st6" d="M3.7,665.2l12.2,1.2l10.4-46.5l-18-1.8L3.7,665.2z"/>
	<path id="fcefb2c9-d6d5-4bec-a5f5-cc8066a5bb74" class="st0" d="M25,663.7l-23.5-2.3L0,676.2l38.3,3.8
		C39.1,671.8,33.2,664.5,25,663.7L25,663.7L25,663.7z"/>
	<circle id="b1d8892c-f39d-4126-8224-86b256c1ff9d" class="st6" cx="48" cy="318.2" r="24.6"/>
	<path id="ac2d3eab-b9a5-4eb5-9d63-fe405943fbfc" class="st0" d="M66.4,659.1c2.2,0,4-1.6,4.4-3.7c6.3-35.2,27.1-150.4,27.6-153.6
		c0-0.1,0-0.1,0-0.2v-8.6c0-0.3-0.1-0.6-0.3-0.9l-2.7-3.8c-0.3-0.4-0.7-0.6-1.1-0.6c-15.6-0.7-66.8-2.9-69.3,0.2l0,0
		c-2.5,3.1-1.6,12.5-1.4,14.4l0,0.2l-23,147c-0.4,2.4,1.3,4.7,3.7,5.1l14.4,2.4c2.2,0.4,4.3-1,5-3.1c4.4-14.2,19.3-61.9,24.5-80.4
		c0.1-0.3,0.4-0.4,0.6-0.3c0.2,0.1,0.4,0.3,0.4,0.5c-0.3,17.6-0.9,62.5-1.1,78l0,1.7c0,2.3,1.8,4.3,4.1,4.5L66,659
		C66.1,659,66.3,659.1,66.4,659.1z"/>
	<path id="bbed60f3-1a89-4078-91d7-bc96163e326a" class="st7" d="M63.6,352.4c4.3,2.5,6.9,7.2,8.3,12c2.7,8.8,4.4,17.9,4.9,27.2
		l1.6,27.6l19.3,73.2c-16.7,14.1-26.3,10.9-48.8-0.6s-25,3.9-25,3.9l-4.5-62.3l-6.4-68c1.4-1.7,3.1-3.3,4.9-4.7
		c12-9.3,27.7-12.7,42.4-9L63.6,352.4z"/>
	<path id="ff536e95-7831-431c-8ca8-0e166a93b4bb" class="st6" d="M69.8,437.8c-0.5,0.2-1,0.4-1.5,0.7L24,416.3l-0.7-12L4.9,403
		l-1,27.4l59.3,19.6c1.3,5.6,7,9.2,12.6,7.8c5.6-1.3,9.2-7,7.8-12.6s-7-9.2-12.6-7.8C70.7,437.6,70.2,437.7,69.8,437.8L69.8,437.8z"
		/>
	<path id="ed99b844-bab2-4090-afff-3e8d6994d5eb" class="st7" d="M13.2,365.5c-10.9,3.9-12.8,45.6-12.8,45.6
		c12.8-7.1,28.2,4.5,28.2,4.5s3.2-10.9,7.1-25c2.4-8.1,0.4-16.8-5.1-23.1C30.5,367.5,24.1,361.7,13.2,365.5z"/>
	<path id="a410275c-d14b-4b59-9c0e-be849f4d4fe2" class="st0" d="M26,324.7c3.1-2.4,7.2,2,7.2,2l2.4-22c0,0,15.3,1.8,25.1-0.6
		s11.3,8.9,11.3,8.9c0.5-4.6,0.6-9.2,0.3-13.8c-0.6-5.5-8.6-11-22.6-14.7s-21.4,12.2-21.4,12.2C18.5,301.6,22.9,327.1,26,324.7z"/>
</g>
</svg>
