<?xml version="1.0" encoding="utf-8"?>
<!-- Generator: Adobe Illustrator 25.1.0, SVG Export Plug-In . SVG Version: 6.00 Build 0)  -->
<svg version="1.1" id="Capa_1" xmlns="http://www.w3.org/2000/svg" xmlns:xlink="http://www.w3.org/1999/xlink" x="0px" y="0px"
	 viewBox="0 0 512 512" style="enable-background:new 0 0 512 512;" xml:space="preserve">
<style type="text/css">
	.st0{fill:#FFFFFF;}
</style>
<path class="st0" d="M374.7,46.4c-53.9,0-105.1,23.7-118.7,23.7s-64.8-23.6-118.7-23.7c0,0,0,0-0.1,0c-16.2,0-32.6,83-42.1,142.4
	c0,0.1,0,0.2,0,0.4l0.7-0.2c0,0,27.1,6.6,73.9,11.1c0.4,0,0.9,0.1,1.3,0.1c0.8,0.1,1.6,0.1,2.4,0.2c0.6,0.1,1.2,0.1,1.8,0.2
	c0.8,0.1,1.7,0.1,2.5,0.2c0.5,0,1.1,0.1,1.6,0.1c1.3,0.1,2.5,0.2,3.8,0.3c0.6,0,1.2,0.1,1.8,0.1c0.9,0.1,1.7,0.1,2.6,0.2
	c0.6,0,1.3,0.1,1.9,0.1c1,0.1,2,0.1,3.1,0.2c0.8,0.1,1.6,0.1,2.5,0.2c1,0.1,2,0.1,3,0.2c0.7,0,1.4,0.1,2.1,0.1
	c0.8,0.1,1.7,0.1,2.5,0.1c0.7,0,1.4,0.1,2.1,0.1c1.4,0.1,2.8,0.1,4.2,0.2c0.7,0,1.5,0.1,2.2,0.1c0.8,0,1.7,0.1,2.6,0.1
	c0.8,0,1.6,0.1,2.4,0.1c0.9,0,1.7,0.1,2.6,0.1c1.1,0,2.2,0.1,3.3,0.1s2.2,0.1,3.3,0.1c0.9,0,1.7,0.1,2.6,0.1c0.8,0,1.6,0,2.5,0.1
	c0.9,0,1.8,0,2.6,0.1c0.9,0,1.9,0,2.8,0.1c1.4,0,2.7,0.1,4.1,0.1c0.9,0,1.8,0,2.7,0s1.8,0,2.7,0s1.8,0,2.6,0c0.9,0,1.8,0,2.7,0h0.1
	c1.8,0,3.5,0,5.3,0c98.1,0,160.1-15.1,160.1-15.1l0.9,0.4l0,0l0,0C407.4,129.9,391,46.4,374.7,46.4z"/>
<path class="st0" d="M187.6,201.5c0.6,0,1.3,0.1,1.9,0.1C188.8,201.6,188.2,201.6,187.6,201.5z"/>
<path class="st0" d="M183.2,201.2c0.6,0,1.2,0.1,1.8,0.1C184.4,201.3,183.8,201.2,183.2,201.2z"/>
<path class="st0" d="M208.9,202.8c0.7,0,1.5,0.1,2.2,0.1C210.3,202.9,209.6,202.9,208.9,202.8z"/>
<path class="st0" d="M192.5,201.9c0.8,0.1,1.6,0.1,2.5,0.2C194.2,202,193.3,201.9,192.5,201.9z"/>
<path class="st0" d="M202.6,202.5c0.7,0,1.4,0.1,2.1,0.1C204,202.6,203.3,202.5,202.6,202.5z"/>
<path class="st0" d="M197.9,202.2c0.7,0,1.4,0.1,2.1,0.1C199.3,202.3,198.6,202.3,197.9,202.2z"/>
<path class="st0" d="M177.7,200.7c0.5,0,1.1,0.1,1.6,0.1C178.8,200.8,178.3,200.8,177.7,200.7z"/>
<path class="st0" d="M169.8,200L169.8,200L169.8,200c0.4,0,0.9,0.1,1.3,0.1C170.6,200.1,170.2,200,169.8,200z"/>
<path class="st0" d="M173.4,200.3c0.6,0.1,1.2,0.1,1.8,0.2C174.6,200.4,174,200.4,173.4,200.3z"/>
<path class="st0" d="M235.7,203.8c1.4,0,2.7,0.1,4.1,0.1C238.4,203.9,237.1,203.8,235.7,203.8z"/>
<path class="st0" d="M225.2,203.5c0.9,0,1.7,0.1,2.6,0.1C226.9,203.6,226.1,203.5,225.2,203.5z"/>
<path class="st0" d="M242.5,203.9c0.9,0,1.8,0,2.7,0C244.3,203.9,243.4,203.9,242.5,203.9z"/>
<path class="st0" d="M218.6,203.3c1.1,0,2.2,0.1,3.3,0.1C220.8,203.4,219.7,203.3,218.6,203.3z"/>
<path class="st0" d="M213.6,203.1c0.8,0,1.6,0.1,2.4,0.1C215.2,203.1,214.4,203.1,213.6,203.1z"/>
<path class="st0" d="M247.9,204c0.9,0,1.8,0,2.7,0C249.7,204,248.8,204,247.9,204z"/>
<path class="st0" d="M230.2,203.7c0.9,0,1.8,0,2.6,0.1C232,203.7,231.1,203.7,230.2,203.7z"/>
<path class="st0" d="M250.7,204h-0.1C250.6,204,250.7,204,250.7,204L250.7,204z"/>
<path class="st0" d="M221.9,203.4c1.1,0,2.2,0.1,3.3,0.1C224.1,203.5,223,203.4,221.9,203.4z"/>
<path class="st0" d="M204.7,202.6c1.4,0.1,2.8,0.1,4.2,0.2C207.5,202.8,206.1,202.7,204.7,202.6z"/>
<path class="st0" d="M227.8,203.6c0.8,0,1.6,0,2.5,0.1C229.4,203.6,228.6,203.6,227.8,203.6z"/>
<path class="st0" d="M216,203.2c0.9,0,1.7,0.1,2.6,0.1C217.7,203.2,216.9,203.2,216,203.2z"/>
<path class="st0" d="M211.1,202.9c0.8,0,1.7,0.1,2.6,0.1C212.8,203,211.9,203,211.1,202.9z"/>
<path class="st0" d="M232.9,203.7c0.9,0,1.9,0,2.8,0.1C234.8,203.8,233.8,203.8,232.9,203.7z"/>
<path class="st0" d="M239.8,203.9c0.9,0,1.8,0,2.7,0C241.6,203.9,240.7,203.9,239.8,203.9z"/>
<path class="st0" d="M245.3,204c0.9,0,1.8,0,2.6,0C247,204,246.1,204,245.3,204z"/>
<path class="st0" d="M171.1,200.1c0.8,0.1,1.6,0.1,2.4,0.2C172.6,200.3,171.8,200.2,171.1,200.1z"/>
<path class="st0" d="M200.1,202.4c0.8,0.1,1.7,0.1,2.5,0.1C201.7,202.5,200.9,202.4,200.1,202.4z"/>
<path class="st0" d="M425.4,247.6c0,0-65.6,18.2-169.4,18.2l0,0l0,0l0,0l0,0c-1.8,0-3.7,0-5.5,0c-0.6,0-1.1,0-1.7,0
	c-1.3,0-2.5,0-3.8,0c-0.6,0-1.3,0-1.9,0c-1.2,0-2.4,0-3.7-0.1c-0.1,0-0.3,0-0.4,0c-0.4,0-0.9,0-1.3,0c-1.6,0-3.2-0.1-4.7-0.1
	c-0.2,0-0.3,0-0.5,0c-1.7,0-3.5-0.1-5.2-0.2c-0.5,0-1,0-1.4,0c-1.2,0-2.5-0.1-3.7-0.1c-0.6,0-1.1,0-1.7-0.1c-1.2,0-2.4-0.1-3.6-0.2
	c-0.5,0-1,0-1.5-0.1c-1.4-0.1-2.8-0.1-4.2-0.2c-0.2,0-0.5,0-0.7,0c-1.7-0.1-3.3-0.2-4.9-0.3c-0.3,0-0.6,0-1-0.1
	c-1.3-0.1-2.6-0.2-3.8-0.2c-0.5,0-0.9-0.1-1.4-0.1c-1.2-0.1-2.3-0.2-3.5-0.2c-0.4,0-0.8-0.1-1.3-0.1c-1.4-0.1-2.7-0.2-4-0.3
	c-0.2,0-0.4,0-0.6,0c-1.6-0.1-3.1-0.2-4.7-0.4c-0.1,0-0.3,0-0.4,0c-1.4-0.1-2.7-0.2-4-0.3c-0.3,0-0.7-0.1-1-0.1
	c-1.2-0.1-2.3-0.2-3.4-0.3c-0.3,0-0.7-0.1-1-0.1c-1.3-0.1-2.5-0.2-3.7-0.4c-0.1,0-0.3,0-0.4,0l0,0c-53.5-5.4-84.7-14-84.7-14l0,0
	l0,0c0,0-86.7,7.8-86.7,25.6c0,9.5,34.1,21,86.8,29.7C132.5,310.6,192.3,316,256,316c136.9,0,256-24.8,256-42.6
	C512,255.6,425.4,247.6,425.4,247.6z"/>
<path class="st0" d="M175.2,200.5c0.8,0.1,1.7,0.1,2.5,0.2C176.9,200.7,176.1,200.6,175.2,200.5z"/>
<path class="st0" d="M195,202c1,0.1,2,0.1,3,0.2C196.9,202.2,196,202.1,195,202z"/>
<path class="st0" d="M179.4,200.9c1.3,0.1,2.5,0.2,3.8,0.3C181.9,201.1,180.6,201,179.4,200.9z"/>
<path class="st0" d="M189.4,201.6c1,0.1,2,0.1,3.1,0.2C191.5,201.8,190.5,201.7,189.4,201.6z"/>
<path class="st0" d="M185,201.3c0.9,0.1,1.7,0.1,2.6,0.2C186.7,201.4,185.8,201.4,185,201.3z"/>
<g>
	<path class="st0" d="M355.1,465.6c-54.6,0-84.8-29.2-85.3-82.2c-1.8-1-6.7-2.5-13.8-2.5c-7.1,0-12,1.5-13.8,2.5
		c-0.5,53-30.7,82.2-85.3,82.2c-50.9,0-82.2-30.1-85.1-80.9H61.6c-4.3,0-7.7-3.5-7.7-7.7c0-4.3,3.5-7.7,7.7-7.7h10.9
		c3.9-16.5,22-33.1,79.3-33.1c42.7,0,75.9,12.9,86.7,32.1c4.7-1.7,10.6-2.7,17.5-2.7s12.9,0.9,17.5,2.7c10.8-19.2,44-32.1,86.7-32.1
		c57.2,0,75.4,16.6,79.3,33.1h10.9c4.3,0,7.7,3.5,7.7,7.7c0,4.3-3.5,7.7-7.7,7.7h-10.3C437.3,435.5,406,465.6,355.1,465.6z
		 M360.2,351.5c-46.3,0-75,15.9-75,30.6c0,45.1,23.5,68,69.8,68c45,0,69.8-26,69.8-73.2C424.9,354.8,384.4,351.5,360.2,351.5z
		 M151.8,351.5c-24.2,0-64.7,3.3-64.7,25.4c0,47.2,24.8,73.2,69.8,73.2c46.3,0,69.8-22.9,69.8-68
		C226.8,367.4,198.1,351.5,151.8,351.5z"/>
</g>
</svg>
