<?xml version="1.0" encoding="utf-8"?>
<!-- Generator: Adobe Illustrator 25.1.0, SVG Export Plug-In . SVG Version: 6.00 Build 0)  -->
<svg version="1.1" id="_x37_d8641e0-c257-4791-b312-86d1704443b9"
	 xmlns="http://www.w3.org/2000/svg" xmlns:xlink="http://www.w3.org/1999/xlink" x="0px" y="0px" viewBox="0 0 1081 836.7"
	 style="enable-background:new 0 0 1081 836.7;" xml:space="preserve">
<style type="text/css">
	.st0{opacity:0.1;fill:#FF4633;enable-background:new    ;}
	.st1{opacity:0.1;}
	.st2{fill:#FF4633;}
	.st3{fill:url(#SVGID_1_);}
	.st4{fill:#2D393D;}
	.st5{fill:#F6F7F9;}
	.st6{opacity:0.2;}
	.st7{fill:#DCE0ED;}
	.st8{fill:url(#SVGID_2_);}
	.st9{fill:#A27772;}
	.st10{opacity:0.1;enable-background:new    ;}
	.st11{fill:#FBBEBE;}
	.st12{fill:#D5E0DE;}
	.st13{opacity:5.000000e-02;enable-background:new    ;}
	.st14{fill:#7C5C5C;}
	.st15{fill:#FFD037;}
	.st16{fill:#747474;}
	.st17{opacity:0.2;enable-background:new    ;}
</style>
<path class="st0" d="M234.4,0.6c-34.8-1.3-71.1-2.2-102.5,12.7s-55.7,51-45.2,84.2c3.4,10.8,10.1,20.2,15.8,30.1
	c28.2,49.3,29.6,112.9,3.4,163.3C85.7,329.8,51.6,359.3,27,395.4S-11.6,481.6,12.6,518c16.6,24.9,47.3,37.1,77.1,40
	s59.8-1.7,89.7-2.9c58.2-2.2,116.2,8.7,169.6,32.1c73.5,32.2,136.8,87.3,214.2,108.6c9.3,2.5,19,4.6,28.5,2.9
	c16.8-3.1,29.1-17,42.3-28c42.1-34.9,100.4-41.4,155.1-43s111.6-0.4,161-23.8c43.1-20.5,76.3-58.6,97-101.7s29.6-90.9,33-138.6
	c2-28.4,1.9-57.6-8.2-84.2c-11.4-29.9-34.6-53.6-58.8-74.4c-25.4-21.7-53-41.4-84.3-53.1c-37.4-14-78-16-117.8-19.3
	c-81.7-6.8-162.7-19.8-242.4-38.9c-75.6-18.1-158.7-37.8-227.6-74.7C306.3,0.6,273.4,2,234.4,0.6z"/>
<g class="st1">
	<path class="st2" d="M713.9,629.7c0,0,3.5-49.6,31.5-76.7c11.8-11.3,19.6-26.1,22.3-42.1c1.2-7.6,1.7-15.4,1.5-23.1"/>
	<path class="st2" d="M786.6,470.6c-2,5.5-17.9,17.7-17.9,17.7s-4-19.6-1.9-25.1c2-5.5,8.1-8.3,13.6-6.2
		C785.9,459,788.6,465.1,786.6,470.6z"/>
	<path class="st2" d="M791.6,507.1c-4.7,3.5-24.6,5.1-24.6,5.1s7.3-18.6,12-22.1c4.8-3.4,11.4-2.2,14.8,2.6
		C797,497.2,796.1,503.6,791.6,507.1L791.6,507.1z"/>
	<path class="st2" d="M771.6,558.6c-5.8,0.6-23.8-8-23.8-8s15.7-12.4,21.5-13c5.8-0.3,10.8,4.1,11.1,10
		C780.7,553,776.9,557.7,771.6,558.6z"/>
	<path class="st2" d="M747.6,594.2c-5.6,1.6-24.8-3.9-24.8-3.9s13.4-14.8,19-16.5c5.6-1.8,11.5,1.3,13.3,6.9
		c1.8,5.6-1.3,11.5-6.9,13.3C748,594.1,747.8,594.2,747.6,594.2L747.6,594.2z"/>
	<path class="st2" d="M745.8,505.4c2.5,5.3,19.3,16.1,19.3,16.1s2.3-19.8-0.2-25.1c-2.7-5.2-9-7.3-14.2-4.6
		C745.7,494.3,743.6,500.3,745.8,505.4z"/>
	<path class="st2" d="M718.3,547.4c4,4.3,23.2,9.6,23.2,9.6s-3.7-19.6-7.7-23.9c-4-4.3-10.7-4.5-15-0.5
		C714.6,536.5,714.3,543.1,718.3,547.4z"/>
	<path class="st2" d="M697.1,591.9c3.2,4.9,21.3,13.3,21.3,13.3s-0.4-20-3.5-24.9c-3.3-4.8-9.9-6-14.7-2.7
		C695.5,580.9,694.2,587.1,697.1,591.9L697.1,591.9z"/>
	<path class="st2" d="M786.6,470.6c-2,5.5-17.9,17.7-17.9,17.7s-4-19.6-1.9-25.1c2-5.5,8.1-8.3,13.6-6.2
		C785.9,459,788.6,465.1,786.6,470.6z"/>
	<path class="st2" d="M791.6,507.1c-4.7,3.5-24.6,5.1-24.6,5.1s7.3-18.6,12-22.1c4.8-3.4,11.4-2.2,14.8,2.6
		C797,497.2,796.1,503.6,791.6,507.1L791.6,507.1z"/>
	<path class="st2" d="M771.6,558.6c-5.8,0.6-23.8-8-23.8-8s15.7-12.4,21.5-13c5.8-0.3,10.8,4.1,11.1,10
		C780.7,553,776.9,557.7,771.6,558.6z"/>
	<path class="st2" d="M747.6,594.2c-5.6,1.6-24.8-3.9-24.8-3.9s13.4-14.8,19-16.5c5.6-1.8,11.5,1.3,13.3,6.9
		c1.8,5.6-1.3,11.5-6.9,13.3C748,594.1,747.8,594.2,747.6,594.2L747.6,594.2z"/>
	<path class="st2" d="M745.8,505.4c2.5,5.3,19.3,16.1,19.3,16.1s2.3-19.8-0.2-25.1c-2.7-5.2-9-7.3-14.2-4.6
		C745.7,494.3,743.6,500.3,745.8,505.4z"/>
	<path class="st2" d="M718.3,547.4c4,4.3,23.2,9.6,23.2,9.6s-3.7-19.6-7.7-23.9c-4-4.3-10.7-4.5-15-0.5
		C714.6,536.5,714.3,543.1,718.3,547.4z"/>
	<path class="st2" d="M697.1,591.9c3.2,4.9,21.3,13.3,21.3,13.3s-0.4-20-3.5-24.9c-3.3-4.8-9.9-6-14.7-2.7
		C695.5,580.9,694.2,587.1,697.1,591.9L697.1,591.9z"/>
</g>
<g class="st1">
	<path class="st2" d="M723.7,441.9c0,0,3.5-49.6,31.5-76.7c11.8-11.3,19.6-26.1,22.3-42.1c1.2-7.6,1.7-15.4,1.5-23.1"/>
	<path class="st2" d="M796.4,282.8c-2,5.5-17.9,17.6-17.9,17.6s-4-19.6-1.9-25.1c2-5.5,8.1-8.3,13.6-6.2
		C795.7,271.2,798.4,277.3,796.4,282.8z"/>
	<path class="st2" d="M801.5,319.3c-4.7,3.5-24.6,5.1-24.6,5.1s7.3-18.6,12-22.1c4.6-3.6,11.3-2.8,14.9,1.8s2.8,11.3-1.8,14.9
		C801.8,319,801.6,319.2,801.5,319.3z"/>
	<path class="st2" d="M781.4,370.8c-5.8,0.6-23.8-8-23.8-8s15.7-12.4,21.5-13c5.8-0.7,11.1,3.4,11.9,9.2s-3.4,11.1-9.2,11.9
		C781.6,370.9,781.5,370.9,781.4,370.8L781.4,370.8z"/>
	<path class="st2" d="M757.4,406.4c-5.6,1.6-24.8-3.9-24.8-3.9s13.4-14.9,19-16.5c5.6-1.5,11.5,1.8,13,7.4
		C766,399.1,762.9,404.8,757.4,406.4L757.4,406.4z"/>
	<path class="st2" d="M755.6,317.6c2.5,5.3,19.3,16.1,19.3,16.1s2.3-19.9-0.2-25.1c-2.4-5.3-8.7-7.7-14-5.3c-5.3,2.4-7.7,8.7-5.3,14
		C755.5,317.4,755.5,317.5,755.6,317.6L755.6,317.6z"/>
	<path class="st2" d="M728.1,359.6c4,4.3,23.3,9.6,23.3,9.6s-3.7-19.6-7.7-23.9c-4.1-4.2-10.8-4.3-15-0.2
		C724.6,349,724.4,355.4,728.1,359.6z"/>
	<path class="st2" d="M706.9,404.1c3.2,4.9,21.3,13.4,21.3,13.4s-0.4-20-3.5-24.9c-3-5-9.6-6.6-14.6-3.5c-5,3-6.6,9.6-3.5,14.6
		C706.7,403.8,706.8,403.9,706.9,404.1L706.9,404.1z"/>
	<path class="st2" d="M796.4,282.8c-2,5.5-17.9,17.6-17.9,17.6s-4-19.6-1.9-25.1c2-5.5,8.1-8.3,13.6-6.2
		C795.7,271.2,798.4,277.3,796.4,282.8z"/>
	<path class="st2" d="M801.5,319.3c-4.7,3.5-24.6,5.1-24.6,5.1s7.3-18.6,12-22.1c4.6-3.6,11.3-2.8,14.9,1.8s2.8,11.3-1.8,14.9
		C801.8,319,801.6,319.2,801.5,319.3z"/>
	<path class="st2" d="M781.4,370.8c-5.8,0.6-23.8-8-23.8-8s15.7-12.4,21.5-13c5.8-0.7,11.1,3.4,11.9,9.2s-3.4,11.1-9.2,11.9
		C781.6,370.9,781.5,370.9,781.4,370.8L781.4,370.8z"/>
	<path class="st2" d="M757.4,406.4c-5.6,1.6-24.8-3.9-24.8-3.9s13.4-14.9,19-16.5c5.6-1.5,11.5,1.8,13,7.4
		C766,399.1,762.9,404.8,757.4,406.4L757.4,406.4z"/>
	<path class="st2" d="M755.6,317.6c2.5,5.3,19.3,16.1,19.3,16.1s2.3-19.9-0.2-25.1c-2.4-5.3-8.7-7.7-14-5.3c-5.3,2.4-7.7,8.7-5.3,14
		C755.5,317.4,755.5,317.5,755.6,317.6L755.6,317.6z"/>
	<path class="st2" d="M728.1,359.6c4,4.3,23.3,9.6,23.3,9.6s-3.7-19.6-7.7-23.9c-4.1-4.2-10.8-4.3-15-0.2
		C724.6,349,724.4,355.4,728.1,359.6z"/>
	<path class="st2" d="M706.9,404.1c3.2,4.9,21.3,13.4,21.3,13.4s-0.4-20-3.5-24.9c-3-5-9.6-6.6-14.6-3.5c-5,3-6.6,9.6-3.5,14.6
		C706.7,403.8,706.8,403.9,706.9,404.1L706.9,404.1z"/>
</g>
<g class="st1">
	<path class="st2" d="M193.2,506.9c0,0-42.7-25.5-54.3-62.5c-4.8-15.6-14.5-29.2-27.6-38.8c-6.3-4.5-13-8.4-20-11.7"/>
	<path class="st2" d="M83.8,370.4c4,4.3,7.7,23.9,7.7,23.9s-19.3-5.2-23.3-9.5c-3.9-4.4-3.4-11.1,1-14.9
		C73.4,366.2,79.8,366.4,83.8,370.4L83.8,370.4z"/>
	<path class="st2" d="M118.6,382.4c1,5.8-6.5,24.3-6.5,24.3S98.8,391.7,97.8,386c-1.1-5.7,2.6-11.3,8.3-12.5
		c5.7-1.1,11.3,2.6,12.5,8.3C118.6,382,118.6,382.2,118.6,382.4z"/>
	<path class="st2" d="M155.6,423.4c-2,5.5-17.9,17.7-17.9,17.7s-4-19.6-1.9-25.1c1.9-5.5,7.9-8.5,13.4-6.6c5.5,1.9,8.5,7.9,6.6,13.4
		C155.8,423.1,155.7,423.2,155.6,423.4L155.6,423.4z"/>
	<path class="st2" d="M176.7,460.9c-1.1,5.8-14.6,20.5-14.6,20.5s-7.2-18.6-6.2-24.4c1.1-5.7,6.6-9.5,12.4-8.4
		C174,449.6,177.7,455.2,176.7,460.9L176.7,460.9L176.7,460.9z"/>
	<path class="st2" d="M96.6,422.5c5.8,0.1,23.1-10,23.1-10s-16.7-11-22.6-11.1c-5.8,0-10.6,4.7-10.6,10.5
		C86.4,417.6,90.9,422.3,96.6,422.5L96.6,422.5z"/>
	<path class="st2" d="M121.7,466c5.6-1.6,19-16.5,19-16.5s-19.2-5.5-24.8-3.9c-5.6,1.7-8.7,7.7-6.9,13.3
		C110.6,464.3,116.2,467.4,121.7,466L121.7,466z"/>
	<path class="st2" d="M151.9,504.9c5.8-0.6,21.5-13,21.5-13s-18-8.7-23.8-8c-5.8,0.3-10.3,5.3-10,11.1s5.3,10.3,11.1,10
		C151.1,505,151.5,504.9,151.9,504.9z"/>
	<path class="st2" d="M83.8,370.4c4,4.3,7.7,23.9,7.7,23.9s-19.3-5.2-23.3-9.5c-3.9-4.4-3.4-11.1,1-14.9
		C73.4,366.2,79.8,366.4,83.8,370.4L83.8,370.4z"/>
	<path class="st2" d="M118.6,382.4c1,5.8-6.5,24.3-6.5,24.3S98.8,391.7,97.8,386c-1.1-5.7,2.6-11.3,8.3-12.5
		c5.7-1.1,11.3,2.6,12.5,8.3C118.6,382,118.6,382.2,118.6,382.4z"/>
	<path class="st2" d="M155.6,423.4c-2,5.5-17.9,17.7-17.9,17.7s-4-19.6-1.9-25.1c1.9-5.5,7.9-8.5,13.4-6.6c5.5,1.9,8.5,7.9,6.6,13.4
		C155.8,423.1,155.7,423.2,155.6,423.4L155.6,423.4z"/>
	<path class="st2" d="M176.7,460.9c-1.1,5.8-14.6,20.5-14.6,20.5s-7.2-18.6-6.2-24.4c1.1-5.7,6.6-9.5,12.4-8.4
		C174,449.6,177.7,455.2,176.7,460.9L176.7,460.9L176.7,460.9z"/>
	<path class="st2" d="M96.6,422.5c5.8,0.1,23.1-10,23.1-10s-16.7-11-22.6-11.1c-5.8,0-10.6,4.7-10.6,10.5
		C86.4,417.6,90.9,422.3,96.6,422.5L96.6,422.5z"/>
	<path class="st2" d="M121.7,466c5.6-1.6,19-16.5,19-16.5s-19.2-5.5-24.8-3.9c-5.6,1.7-8.7,7.7-6.9,13.3
		C110.6,464.3,116.2,467.4,121.7,466L121.7,466z"/>
	<path class="st2" d="M151.9,504.9c5.8-0.6,21.5-13,21.5-13s-18-8.7-23.8-8c-5.8,0.3-10.3,5.3-10,11.1s5.3,10.3,11.1,10
		C151.1,505,151.5,504.9,151.9,504.9z"/>
</g>
<path class="st0" d="M716.7,806.3c28.7,12.5,63.7,4.9,96.3,5.8c4.5,0.1,9.2,0.5,12.8,2.7s5.3,5.7,7.8,8.7
	c9.1,11.1,27.8,14.7,44.2,12.8s31.3-8.2,46.8-12.9c26.7-8.2,57.1-12,83.5-3c2.4,0.8,5,1.8,7.5,1.4c5.8-0.7,7.5-6.7,11.5-10.1
	c7.3-6.2,23.1-4.5,26.3-12.6c1.9-4.8-2.4-9.6-7.1-12.9c-18-12.4-43.7-14.5-67.2-12.6s-46.7,7.2-70.3,7.2c-29.5,0-57.9-8.1-87.1-11.5
	c-20.2-2.3-42.3-2-61.2,4.8C739.8,781.4,735.3,797.9,716.7,806.3z"/>
<path class="st0" d="M173.4,768c49,14.1,108.8,5.5,164.4,6.5c7.6,0.1,15.7,0.5,21.8,3s9.1,6.4,13.3,9.8
	c15.6,12.6,47.5,16.6,75.4,14.5s53.5-9.2,79.8-14.6c45.5-9.3,97.6-13.5,142.5-3.4c4.1,0.9,8.5,2,12.9,1.6
	c9.8-0.8,12.8-7.6,19.7-11.4c12.4-7,39.4-5.1,44.9-14.2c3.2-5.4-4.2-10.9-12.2-14.6c-30.7-14-74.6-16.4-114.8-14.2
	s-79.7,8.1-120,8.2c-50.3,0-98.9-9.2-148.7-12.9c-34.5-2.6-72.1-2.3-104.5,5.4C212.8,739.9,205.1,758.6,173.4,768z"/>
<path class="st0" d="M42.2,802.6c14,8.4,31,3.3,46.9,3.9c2.2,0.1,4.5,0.3,6.2,1.8s2.6,3.8,3.8,5.8c4.4,7.5,13.5,9.9,21.5,8.7
	s15.2-5.5,22.8-8.7c13-5.5,27.8-8.1,40.6-2c1.1,0.7,2.4,1,3.7,1c2.8-0.5,3.6-4.5,5.6-6.8c3.5-4.2,11.2-3,12.8-8.5
	c0.9-3.2-1.2-6.5-3.5-8.7c-8.7-8.4-21.3-9.8-32.7-8.5s-22.7,4.8-34.2,4.8c-14.3,0-28.2-5.5-42.4-7.7c-9.8-1.6-20.6-1.4-29.8,3.2
	C53.5,785.8,51.3,797,42.2,802.6z"/>
<linearGradient id="SVGID_1_" gradientUnits="userSpaceOnUse" x1="522.69" y1="39.9999" x2="522.69" y2="768.6801" gradientTransform="matrix(1 0 0 -1 -59.52 804.35)">
	<stop  offset="0" style="stop-color:#808080;stop-opacity:0.25"/>
	<stop  offset="0.54" style="stop-color:#808080;stop-opacity:0.12"/>
	<stop  offset="1" style="stop-color:#808080;stop-opacity:0.1"/>
</linearGradient>
<path class="st3" d="M695.5,35.7H230.9c-23.5,0-42.6,19-42.6,42.5c0,0,0,0,0,0v643.7c0,23.5,19.1,42.5,42.6,42.5h464.6
	c23.5,0,42.6-19,42.6-42.5c0,0,0,0,0,0V78.2C738.1,54.7,719,35.6,695.5,35.7C695.5,35.7,695.5,35.7,695.5,35.7z"/>
<path class="st4" d="M214.8,44.4h496.7c11,0,20,9,20,20v673.4c0,11-9,20-20,20H214.8c-11,0-20-9-20-20V64.4
	C194.8,53.4,203.7,44.4,214.8,44.4z"/>
<rect x="222.1" y="111.9" class="st5" width="482.2" height="578.5"/>
<circle class="st5" cx="461" cy="77.1" r="6.5"/>
<circle class="st5" cx="461" cy="722.9" r="19.6"/>
<g class="st6">
	<rect x="222.1" y="111.9" class="st2" width="482.2" height="28.8"/>
</g>
<circle class="st5" cx="237.1" cy="126.3" r="6.1"/>
<circle class="st5" cx="252.8" cy="126.3" r="6.1"/>
<circle class="st5" cx="268.5" cy="126.3" r="6.1"/>
<rect x="236.5" y="281.9" class="st7" width="449" height="1.5"/>
<rect x="236.5" y="316.8" class="st7" width="449" height="1.5"/>
<rect x="236.5" y="351.6" class="st7" width="449" height="1.5"/>
<rect x="236.5" y="386.4" class="st7" width="449" height="1.5"/>
<rect x="236.5" y="421.3" class="st7" width="449" height="1.5"/>
<g class="st6">
	<polygon class="st2" points="685.5,422.8 235.9,422.8 235.9,354.3 277.1,374.6 319.8,380.4 357.2,369.1 402.4,334 425.1,320.9 
		441.8,317.7 457.6,318.6 483.8,331.5 519.3,354.1 547.2,357.7 569.3,350.1 616.1,311.7 640.1,303.2 665.1,307 685.5,318.8 	"/>
</g>
<path class="st2" d="M314.3,380.4c-40.5,0-77.9-24.8-78.4-25.1l1.1-1.7c0.6,0.4,58.2,38.5,107.1,19.4c17.8-7,30.5-17.8,42.8-28.2
	c12.8-10.9,24.9-21.2,41.5-25.7c18.9-5.1,39.6-0.5,55.4,12.4c13.5,11,40.2,28.8,68.5,23.5c14.4-2.7,26.6-13.2,39.4-24.4
	c24.7-21.4,50.2-43.5,94.3-11.8l-1.2,1.6c-42.9-30.8-67.8-9.2-91.8,11.7c-13.1,11.3-25.4,22-40.4,24.8
	c-29.1,5.5-56.4-12.6-70.2-23.9c-15.2-12.5-35.2-17-53.6-12c-16.1,4.4-28,14.5-40.7,25.3c-12.4,10.6-25.2,21.5-43.4,28.6
	C335.1,378.6,324.7,380.4,314.3,380.4z"/>
<circle class="st2" cx="452.5" cy="317.6" r="11.1"/>
<g class="st6">
	<path class="st2" d="M597.7,170.4H457.3c-1.3,0-2.3,1-2.3,2.3c0,0,0,0,0,0v94.9c0,1.3,1,2.3,2.3,2.3c0.6,0,1.2-0.3,1.7-0.7l24.3-26
		c0.4-0.5,1-0.7,1.7-0.7h112.7c1.3,0,2.3-1,2.3-2.3v0v-67.6C600,171.4,599,170.3,597.7,170.4z"/>
</g>
<rect x="487.5" y="187.9" class="st5" width="79.9" height="10"/>
<rect x="487.5" y="210.1" class="st5" width="22" height="10"/>
<g class="st6">
	<rect x="274.4" y="494.3" class="st2" width="22" height="10"/>
</g>
<g class="st6">
	<rect x="274.4" y="513.7" class="st2" width="22" height="10"/>
</g>
<g class="st6">
	<rect x="274.4" y="533" class="st2" width="22" height="10"/>
</g>
<g class="st6">
	<rect x="274.4" y="552.3" class="st2" width="22" height="10"/>
</g>
<g class="st6">
	<rect x="274.4" y="571.7" class="st2" width="22" height="10"/>
</g>
<g class="st6">
	<rect x="274.4" y="591" class="st2" width="22" height="10"/>
</g>
<g class="st6">
	<rect x="274.4" y="610.3" class="st2" width="22" height="10"/>
</g>
<g class="st6">
	<rect x="274.4" y="629.7" class="st2" width="22" height="10"/>
</g>
<g class="st6">
	<rect x="315.7" y="639.7" class="st2" width="22" height="10"/>
</g>
<g class="st6">
	<rect x="354.4" y="639.7" class="st2" width="22" height="10"/>
</g>
<g class="st6">
	<rect x="393" y="639.7" class="st2" width="22" height="10"/>
</g>
<g class="st6">
	<rect x="431.7" y="639.7" class="st2" width="22" height="10"/>
</g>
<g class="st6">
	<rect x="470.4" y="639.7" class="st2" width="22" height="10"/>
</g>
<g class="st6">
	<rect x="509" y="639.7" class="st2" width="22" height="10"/>
</g>
<g class="st6">
	<rect x="547.7" y="639.7" class="st2" width="22" height="10"/>
</g>
<g class="st6">
	<rect x="586.4" y="639.7" class="st2" width="22" height="10"/>
</g>
<g class="st6">
	<rect x="625" y="639.7" class="st2" width="22" height="10"/>
</g>
<rect x="534.1" y="210.1" class="st5" width="33.3" height="10"/>
<rect x="315.7" y="567" class="st2" width="22" height="62.7"/>
<rect x="354.4" y="538" class="st2" width="22" height="91.7"/>
<rect x="393" y="513.7" class="st2" width="22" height="116"/>
<rect x="431.7" y="526.3" class="st2" width="22" height="103.4"/>
<rect x="470.4" y="504.3" class="st2" width="22" height="125.3"/>
<g class="st6">
	<rect x="509" y="552.3" class="st2" width="22" height="77.3"/>
</g>
<g class="st6">
	<rect x="547.7" y="552.3" class="st2" width="22" height="77.3"/>
</g>
<g class="st6">
	<rect x="586.4" y="552.3" class="st2" width="22" height="77.3"/>
</g>
<g class="st6">
	<rect x="625" y="552.3" class="st2" width="22" height="77.3"/>
</g>
<linearGradient id="SVGID_2_" gradientUnits="userSpaceOnUse" x1="950.4248" y1="-1.71" x2="950.4248" y2="658.129" gradientTransform="matrix(1 0 0 -1 -59.52 804.35)">
	<stop  offset="0" style="stop-color:#808080;stop-opacity:0.25"/>
	<stop  offset="0.54" style="stop-color:#808080;stop-opacity:0.12"/>
	<stop  offset="1" style="stop-color:#808080;stop-opacity:0.1"/>
</linearGradient>
<path class="st8" d="M989.5,272.5c-23.8-13.7-32.8-17.1-32.8-17.1l-0.5-0.4c-2.6-2-4.7-4.6-6-7.6c0-0.5,0-1.1,0-1.6v0.2
	c0.4-7.2,5.5-13.8,10.4-19.6l12.5-14.7c1.4-1.5,2.5-3.2,3.2-5.1c0.3-1,0.4-2.1,0.3-3.1c0-0.4,0-0.9,0-1.3c-0.1-3.6-0.2-7.3-0.3-11
	c-0.1-3.2-0.9-7.2-4.1-7.9c-1.7-0.3-3.8,0.3-4.7-1.2c-0.3-0.6-0.4-1.3-0.2-1.9c0,0,0,0.1,0,0.1v-0.2c0.6-2.5,1-5,1.2-7.5
	c0.1-1.3-0.1-2.6-0.5-3.8c-1.8-5.3-8.2-7.5-13.8-8.5s-11.9-1.9-15.5-6.3c-1.1-1.4-1.8-3-3.1-4.2c-1.6-1.4-3.6-2.4-5.8-2.8
	c-7-1.7-14.3-1.1-20.9,1.8c-2.7,1.2-5.5,2.9-8.4,2.7s-5.8-2.3-8.8-2.9c-4.9-0.8-9.7,2.8-12.1,7.1c-1.4,2.6-2.2,5.4-2.2,8.4
	c0,0.2,0,0.3,0,0.5l0,0c-0.1,3.2,1.1,6.2,3.2,8.5c2.1,2.2,5.3,3.7,6.2,6.6c0.4,1.2,0.3,2.5,0.6,3.7c0,0.1,0.1,0.3,0.1,0.4l-0.2,0.2
	c-5.1,6.5-7.9,14.6-7.8,22.9c0.1,16.5,10.9,31,26.6,35.9c0,0.4,0,0.8,0,1.1c0,4.5-1.3,9.2-5.2,12.6l-33.7,13.5
	c0,0-20.3-2.4-27.6,27.2c-1.2,4.9-1.6,10-1.3,15c0.3,4.5-0.3,12.4-5.5,22.5c-8.3,16.3-6.4,53.7,10.6,57.4c16.1,3.5,22.4,2,23,1.9
	v0.6c-0.3,7-2.8,67.6-12.1,74.9c-2.6,2-2.1,3.4,0,4.3c0,0,0,0.4-0.1,1.1c-0.3,4.4-1.7,21.3-7.9,30.9c-7.2,11.1-6.4,75.2-6.4,75.2
	l-4.8,37.8c0,0,3,23.3,0,27.4c-2.7,3.6-6.3,90-7,108.7h-0.3c-3,0.2-5.7,1.8-7.3,4.4c-4,6.5-17.9,18.4-17.9,18.4
	c-3,4.3-14.2,8.4-20.1,10.3c-0.8,0.3-1.6,0.6-2.3,1c-2.2,1.2-4,3.1-5.1,5.3c-0.8,1.4-1,3-0.5,4.5c1.5,3.7,32.9,6.3,40.9,2.6
	c6.2-2.9,31-6.8,41.3-8.2c3.8-0.5,6.9-3.5,7.3-7.3c0.2-1.3-0.2-2.6-1-3.7l0,0c-2-2.4-3-9.1-3.4-13.4c0.8-0.3,1.6-0.8,2.3-1.4
	c-0.8-13.5,1.1-27,5.7-39.6c7.6-20,9.8-57.1,8-81.2c0,0,23.1-99.3,41.2-108.6l0,0c0.3,0.3,9.1,11.7,10.2,46.7
	c1.1,35.6,14,58.9,14,58.9s-5.7,60.4,0,83l-7.4,35.7c-0.5-0.5-0.9-0.8-0.9-0.8s0.2,1,0.5,2.6l-0.2,0.8l0.3,0.1
	c0.8,4.5,2.1,12.2,1.6,16.8c-0.3,2.6-1,6.2-1.5,9.6c-0.8,5.5-1,10.8,1.9,12c4.7,1.9,32.5,4.5,37.3-1.6c2.2-2.5,2.7-6.1,1.4-9.2
	c-0.3-0.8-0.8-1.6-1.4-2.3c0,0-7.4-12.1-5.3-20.6c0.4-1.7,0.1-3.5-0.9-4.9c0.3-4.2,2-23.5,6.4-39.9c4.7-17.8,14.7-56.9,7.4-82.6l0,0
	c-0.3-1-0.6-2-0.9-3c-4.2-14-5.7-28.8-4.2-43.3c-2.7-12.5-2.7-25.3,0-37.8c4.5-20.8,7.7-41.1,7.7-41.1s2.5-27.4,0.3-44.2l-0.2-1.1
	l1.2-0.3c0,0-6.4-28.5-8.7-46.7c-0.5-4.3-1.2-9.7-2-15.5c2.1-0.3,4.2-0.8,6.2-1.5c20.4-7.1,26.8-70.8,26.8-70.8v-20.2
	C1006.5,317.1,1013.3,286.2,989.5,272.5z M837.3,764.6c-0.6-0.3-1-0.5-1-0.5l0,0L837.3,764.6z"/>
<path class="st4" d="M977.2,640.3c8.9,25.5-1.5,66.8-6.3,85.3s-6.3,40.6-6.3,40.6c-18.8,3-32.5-0.8-32.5-0.8l7.8-38
	c-5.5-22.5,0-82.7,0-82.7s-12.5-23.3-13.7-58.7c-1.1-34.9-9.7-46.2-10-46.5l0,0c-17.7,9.2-40.2,108.2-40.2,108.2
	c1.8,24-0.4,60.9-7.8,80.9c-4.5,12.7-6.4,26.1-5.5,39.5c-2.6,2.2-6.2,2.5-10,1.9c-10.5-1.7-23.1-10.8-23.1-10.8s4-107.8,7-111.9
	s0-27.3,0-27.3l4.8-37.7c0,0-0.7-63.9,6.3-75c6.1-9.6,7.5-26.4,7.7-30.8c0-0.7,0.1-1.1,0.1-1.1l10.7-12.8c0,0,103.4-7.8,111.1,0
	c1.9,1.9,3.1,6.2,3.8,11.7c2.1,16.8-0.3,44.1-0.3,44.1s-3.1,20.3-7.5,41c-2.7,12.4-2.7,25.2,0,37.7
	C971.6,611.6,973,626.2,977.2,640.3z"/>
<path class="st9" d="M970.7,802.2c-4.6,6.1-31.8,3.5-36.4,1.6c-2.8-1.2-2.6-6.5-1.8-11.9c0.5-3.5,1.2-7,1.5-9.6
	c0.7-6.7-2.2-20.1-2.2-20.1s6.1,6.5,7.6,0c0.7-2.8,2.9-4.3,5.3-5c3.2-1,6.6-0.7,9.6,0.6c4.8,2.1,12.8,6.5,11.4,12.5
	c-2,8.5,5.2,20.5,5.2,20.5c0.6,0.7,1,1.5,1.3,2.3C973.3,796.1,972.8,799.6,970.7,802.2z"/>
<path class="st10" d="M970.7,802.2c-4.6,6.1-31.8,3.5-36.4,1.6c-2.8-1.2-2.6-6.5-1.8-11.9c2.9,1.4,7.9,2.5,16.1,1.7
	c1.9-0.2,3.9-0.2,5.8-0.2c5.9,0.3,11.8,0.2,17.6-0.3C973.3,796.1,972.8,799.6,970.7,802.2z"/>
<path class="st10" d="M876,647.6c1.8,24-0.4,60.9-7.8,80.9c-4.5,12.7-6.4,26.1-5.5,39.5c-2.6,2.2-6.2,2.5-10,1.9
	c2.2-15.6,11.7-82.7,17.8-135.7c6.9-60.4,39.3-101.9,39.3-101.9l6.5,7.1C898.5,548.7,876,647.6,876,647.6z"/>
<path class="st11" d="M959.6,259.6l-4.5,22.1L933,318.8l-27.2-11.6c0,0-37-38.8-13.8-44.3c2.8-0.6,5.4-1.8,7.7-3.4
	c4.6-3.4,6-8.5,6-13.4c0-8.1-3.8-15.9-3.8-15.9l47.6-15c-2,6.3-3.1,12.7-3.4,19.3c-0.4,13,4.5,19.4,8.4,22.4
	C956.1,258.1,957.8,259,959.6,259.6z"/>
<path class="st10" d="M949.6,215.2c-2,6.3-3.1,12.7-3.4,19.3c-0.9,1-1.8,2-2.8,2.9c-10,9.6-24.5,12.9-37.7,8.6
	c0-8.1-3.8-15.9-3.8-15.9L949.6,215.2z"/>
<path class="st11" d="M955.1,209.2c0,20.8-16.9,37.7-37.7,37.6c-20.8,0-37.7-16.9-37.6-37.7c0-20.8,16.9-37.7,37.7-37.6c0,0,0,0,0,0
	c20.7-0.1,37.6,16.7,37.6,37.4C955.1,209,955.1,209.1,955.1,209.2z"/>
<path class="st10" d="M959.6,259.6l-4.5,22.1L933,318.8l-27.2-11.6c0,0-37-38.8-13.8-44.3c2.8-0.6,5.4-1.8,7.7-3.4
	c-4.2,11.5,13.1,35.6,13.1,35.6c2,3,6.7,1.1,6.7,1.1c11.2-1.7,31.7-33.8,35.1-39.1C956.1,258.1,957.8,259,959.6,259.6z"/>
<path class="st10" d="M980.9,474.4c-6.6,1.5-42.8,9.5-56.6,7.5c-15.1-2.2-44.6-3.7-44.6-3.7s-18.7,1-24.5-1.6c0-0.7,0.1-1.1,0.1-1.1
	l10.7-12.8c0,0,103.4-7.8,111.2,0C979.1,464.6,980.2,468.9,980.9,474.4z"/>
<path class="st12" d="M912.9,296.1c0,0-19.5-27-12.1-37.5l-32.9,13.5c0,0-19.8-2.4-27,27.2c-1.1,4.9-1.6,10-1.2,15
	c0.3,4.5-0.3,12.3-5.4,22.5c-8.1,16.2-6.3,53.5,10.3,57.2s22.5,1.8,22.5,1.8s-2.2,67.6-11.8,75.3s24.5,5.9,24.5,5.9
	s29.4,1.5,44.6,3.7s57.6-7.8,57.6-7.8s-6.3-28.4-8.5-46.5s-7.4-56.6-7.4-56.6l37.7-51c0,0,6.6-30.8-16.6-44.5s-32-17-32-17
	s-23.3,38-35.5,39.9C919.5,297.2,914.9,299.1,912.9,296.1z"/>
<path class="st10" d="M869.7,306.8c0,0-0.4,12.2,1.8,17s10.3,31.4,10.3,31.4h-18.5c0,0,10-10.7,9.2-15.9S869.7,306.8,869.7,306.8z"
	/>
<path class="st11" d="M924.3,398.8c0,0-40.8-10-44.6-18.5s-14.3-27.5-14.3-27.5l4.3-5.8l19.8,15.6c0,0,23.6,18.8,34.7,20.7
	S924.3,398.8,924.3,398.8z"/>
<path class="st13" d="M924.3,398.8c0,0-40.8-10-44.6-18.5s-14.3-27.5-14.3-27.5l4.3-5.8l19.8,15.6c0,0,23.6,18.8,34.7,20.7
	S924.3,398.8,924.3,398.8z"/>
<path class="st11" d="M959.6,350.8v22.1H956c-17.6,0-34.8,4.5-50.2,13l-6.7,3.7l-1.8,1l-11.5-25.8l10.7-9.6h0.5
	c2.6,0.2,14,1.2,18.8-0.4c4.6-1.5,10.2-6.5,23.7-3c6.6,1.7,12.3,9.1,18.7,6.8L959.6,350.8z"/>
<path class="st10" d="M995.2,310.5l7.4,8.3V339c0,0-6.3,63.5-26.2,70.5s-55.5-4.1-55.5-4.1s-9.2-24.4-4.9-25.8s38-10.4,38-10.4
	s-0.5-37.3,6.9-48.3c0,0-4.8-34.7,11.8-35.4S995.2,310.5,995.2,310.5z"/>
<path class="st12" d="M996.3,310.5l7.4,8.3V339c0,0-6.3,63.5-26.3,70.5s-55.5-4.1-55.5-4.1s-9.2-24.4-4.9-25.8s38-10.4,38-10.4
	s-0.5-37.3,6.9-48.3c0,0-4.8-34.7,11.8-35.4C990.4,284.7,996.3,310.5,996.3,310.5z"/>
<path class="st10" d="M944.8,225.2c0.2-2.4,0.2-5-0.8-7.2s-3.5-3.9-5.9-3.4c-3.2,0.7-4.5,4.9-7.6,5.8c-2.6,0.8-5.5-1-6.7-3.5
	s-1.3-5.3-1.3-8c0-3.1,0-6.2,0-9.2c0-3.4-0.1-7-2.2-9.6c-2.6-3.3-8.6-4.7-12.7-4.6c-2.7,0-5.3,1.1-7.2,2.9c-2.2,1.8-4.7,3.2-7.6,2.7
	c-2.5-0.4-4.6-2.2-5.3-4.6v-0.1c12.6-16.6,36.2-19.9,52.8-7.3s19.9,36.2,7.3,52.8c-1.2,1.6-2.6,3.1-4.1,4.5
	C944.1,232.7,944.6,228.9,944.8,225.2z"/>
<path class="st14" d="M892.8,190c-2.5-0.4-4.6-2.2-5.3-4.6c-0.3-1.2-0.2-2.5-0.6-3.6c-0.9-2.9-4-4.4-6-6.6c-4.2-4.4-3.9-11.7-0.9-17
	c2.4-4.3,7-7.9,11.8-7.1c3,0.5,5.6,2.6,8.6,2.8s5.6-1.4,8.2-2.7c6.4-2.9,13.6-3.5,20.4-1.8c2.1,0.4,4,1.4,5.6,2.8
	c1.1,1.4,2.1,2.8,3,4.2c3.5,4.4,9.6,5.2,15.1,6.2s11.7,3.2,13.5,8.4c1.2,3.5,0,7.3-0.7,10.9c-0.2,0.7-0.2,1.5,0.1,2.2
	c0.9,1.4,3,0.8,4.6,1.2c3.1,0.6,3.9,4.7,4,7.8c0.1,3.6,0.2,7.3,0.3,10.9c0.4,3.4-0.9,6.8-3.5,9.1L959,228.1
	c-5.4,6.5-11.2,14.1-10.1,22.5c-2.6,1.1-5.6-1.1-6.4-3.8s-0.2-5.6,0.4-8.3c1-4.8,1.6-9.6,1.9-14.4c0.2-2.4,0.2-5-0.8-7.2
	s-3.5-4-5.9-3.4c-3.2,0.7-4.5,4.9-7.6,5.8c-2.6,0.8-5.5-1-6.7-3.5s-1.3-5.3-1.3-8v-9.3c0-3.4-0.1-7-2.2-9.6
	c-2.6-3.3-8.6-4.7-12.7-4.6c-2.7,0-5.3,1.1-7.2,2.9C898.2,189.1,895.7,190.5,892.8,190z"/>
<path class="st10" d="M901.3,305.9l11.6,47.5C912.8,353.4,921.9,353.4,901.3,305.9z"/>
<path class="st10" d="M940.8,298c0,0-15.1,24.8-9.2,50.4l2.8,0.2C934.4,348.6,929.3,336.7,940.8,298z"/>
<path class="st10" d="M950.4,438.3c0,0,18.6-6.1,19.9,8.1C970.3,446.4,966.8,436.6,950.4,438.3z"/>
<path class="st10" d="M896.6,356.4c0,0-3.7,25.9,3,36.2c0,0-13.5,5.5-32.5,4.4l-2.2-40.6H896.6z"/>
<path class="st10" d="M899.2,389.6l-1.8,1l-11.5-25.8l10.7-9.6h0.5l0,0C897,356.4,894,378.6,899.2,389.6z"/>
<path class="st12" d="M896.6,355.2c0,0-3.7,25.8,3,36.2c0,0-13.5,5.5-32.5,4.4l-12.9-40.6L896.6,355.2z"/>
<path class="st9" d="M864.7,786.5c-0.4,3.8-3.4,6.8-7.2,7.3c-10,1.5-34.2,5.3-40.3,8.2c-7.8,3.7-38.4,1.1-39.9-2.6
	c-0.4-1.5-0.2-3.1,0.5-4.4c1.1-2.3,2.8-4.1,5-5.3c0.7-0.4,1.4-0.7,2.2-1c5.8-1.9,16.7-6,19.6-10.3c0,0,13.6-11.9,17.5-18.3
	c1.5-2.6,4.1-4.2,7.1-4.4c3.2-0.2,6.8,1.5,8.3,8.6c0,0,17.7,10.1,22.5,1.2c0,0,0.7,13.6,3.7,17.3l0,0
	C864.6,783.8,864.9,785.2,864.7,786.5z"/>
<path class="st10" d="M864.7,786.5c-0.4,3.8-3.4,6.8-7.2,7.3c-10,1.5-34.2,5.3-40.3,8.2c-7.8,3.7-38.4,1.1-39.9-2.6
	c-0.4-1.5-0.2-3.1,0.5-4.4c1.1-2.3,2.8-4.1,5-5.3c5,3.3,16.1,6.6,40.5,2.8c23.3-3.6,34.8-7.2,40.4-9.6l0,0
	C864.6,783.8,864.9,785.2,864.7,786.5z"/>
<g class="st1">
	<path d="M965.5,182.7v-0.2c0.5-2.8,1.3-5.6,1.1-8.4c-0.2,2.3-0.6,4.5-1.1,6.7C965.3,181.4,965.3,182,965.5,182.7z"/>
	<path d="M943.9,217.2c0.6,1.3,0.9,2.8,0.9,4.2c0.2-2-0.1-4-0.9-5.9c-1-2.2-3.5-3.9-5.8-3.4c-3.2,0.7-4.5,4.9-7.6,5.8
		c-2.6,0.8-5.5-1-6.7-3.5s-1.3-5.3-1.3-8c0-3.1,0-6.2,0-9.3c0-3.4-0.1-7-2.2-9.6c-2.6-3.3-8.6-4.7-12.7-4.6c-2.7,0-5.3,1.1-7.2,2.9
		c-2.2,1.8-4.7,3.2-7.6,2.7c-2.5-0.4-4.6-2.2-5.3-4.6c-0.3-1.2-0.2-2.5-0.6-3.6c-0.9-2.9-4-4.4-6-6.6c-1.9-2.1-3-4.9-3.1-7.8
		c-0.3,3.5,0.8,6.9,3.1,9.5c2.1,2.2,5.2,3.7,6,6.6c0.3,1.2,0.3,2.4,0.6,3.6c0.7,2.4,2.8,4.2,5.3,4.6c3,0.5,5.4-0.9,7.6-2.7
		c2-1.8,4.5-2.9,7.2-2.9c4-0.1,10.1,1.3,12.7,4.6c2.1,2.6,2.2,6.3,2.2,9.6c0,3.1,0,6.2,0,9.3c0,2.7,0,5.6,1.3,8s4.1,4.3,6.7,3.5
		c3.1-1,4.5-5.1,7.6-5.8C940.5,213.3,942.9,215,943.9,217.2z"/>
	<path d="M974.3,207c-0.7,1.9-1.7,3.6-3.1,5.1c-4.1,4.9-8.1,9.8-12.2,14.7c-5.1,6.2-10.6,13.3-10.2,21.2c0.4-7.2,5.4-13.8,10.2-19.5
		l12.2-14.6c1.4-1.5,2.5-3.2,3.1-5.1c0.3-1.3,0.4-2.7,0.3-4C974.6,205.5,974.5,206.3,974.3,207z"/>
	<path d="M942.5,245.5c-0.2-0.7-0.3-1.3-0.4-2c-0.1,1.2,0,2.5,0.4,3.6c0.8,2.7,3.9,4.9,6.5,3.7c-0.1-0.5-0.1-1.1-0.1-1.6
		C946.2,250.3,943.3,248.1,942.5,245.5z"/>
</g>
<path class="st10" d="M819.7,763.3c0,0,3.9,6.8,17.8,0.8"/>
<path class="st10" d="M938,765c0,0,12.1,14.2,27.3,4.7"/>
<path class="st10" d="M973.1,597c0,0-8.5,5.3-8.8,8.4s4.4-2.2,4.4-2.2L973.1,597z"/>
<path class="st10" d="M976.5,637.9c-3,2.5-6.6,3.9-10.5,4.1c-6.4,0.3-5.8,8.6-1.7,6.1C968.5,645.6,976.5,637.9,976.5,637.9z"/>
<path class="st10" d="M978.1,643.2c0,0-4.1,20.1-7.4,16.2"/>
<path class="st2" d="M136.8,736.7c0,0,5.5,7.2-2.5,18s-14.6,20-12,26.8c0,0,12.1-20.1,22-20.4S147.6,748.8,136.8,736.7z"/>
<path class="st10" d="M136.8,736.7c0.5,0.7,0.9,1.4,1.1,2.2c9.6,11.3,14.8,21.8,5.5,22.1c-8.6,0.2-19,15.7-21.4,19.5
	c0.1,0.3,0.2,0.6,0.3,0.9c0,0,12.1-20.1,22-20.4S147.6,748.8,136.8,736.7z"/>
<path class="st15" d="M147,745.9c0,2.5-0.3,4.6-0.6,4.6s-0.6-2-0.6-4.6s0.4-1.3,0.7-1.3S147,743.3,147,745.9z"/>
<path class="st15" d="M150.5,748.9c-2.2,1.2-4.2,1.9-4.3,1.6s1.5-1.5,3.7-2.8s1.3-0.3,1.5,0S152.7,747.7,150.5,748.9z"/>
<path class="st2" d="M107.7,736.7c0,0-5.5,7.2,2.5,18s14.6,20,12,26.8c0,0-12.1-20.1-22-20.4S96.9,748.8,107.7,736.7z"/>
<path class="st10" d="M107.7,736.7c-0.5,0.7-0.9,1.5-1.1,2.2c-9.6,11.3-14.8,21.8-5.5,22.1c8.6,0.2,19,15.7,21.4,19.5
	c-0.1,0.3-0.2,0.6-0.3,0.9c0,0-12.1-20.1-22-20.4S96.9,748.8,107.7,736.7z"/>
<path class="st15" d="M97.5,745.9c0,2.5,0.3,4.6,0.6,4.6s0.6-2,0.6-4.6s-0.4-1.3-0.7-1.3S97.5,743.3,97.5,745.9z"/>
<path class="st15" d="M94,748.9c2.2,1.2,4.1,1.9,4.3,1.6s-1.5-1.5-3.7-2.8s-1.3-0.3-1.5,0S91.8,747.7,94,748.9z"/>
<path class="st16" d="M99.3,780.6c0,0,15.4-0.5,20-3.8s23.6-7.2,24.8-1.9s23.1,26.3,5.7,26.4s-40.3-2.7-44.9-5.5
	S99.3,780.6,99.3,780.6z"/>
<path class="st17" d="M150.1,799.4c-17.3,0.1-40.3-2.7-44.9-5.5c-3.5-2.1-4.9-9.8-5.4-13.4h-0.5c0,0,1,12.4,5.6,15.2
	s27.6,5.7,44.9,5.5c5,0,6.7-1.8,6.6-4.5C155.7,798.4,153.8,799.4,150.1,799.4z"/>
</svg>
