<?xml version="1.0" encoding="utf-8"?>
<!-- Generator: Adobe Illustrator 25.1.0, SVG Export Plug-In . SVG Version: 6.00 Build 0)  -->
<svg version="1.1" id="Capa_1" xmlns="http://www.w3.org/2000/svg" xmlns:xlink="http://www.w3.org/1999/xlink" x="0px" y="0px"
	 viewBox="0 0 512 512" style="enable-background:new 0 0 512 512;" xml:space="preserve">
<style type="text/css">
	.st0{fill:#FF4633;}
	.st1{fill:#FF5E4D;}
	.st2{fill:#FFFFFF;}
</style>
<path class="st0" d="M507.1,427.8L287.6,47.7c-14-24.3-49.1-24.3-63.2,0L4.9,427.8c-14,24.3,3.5,54.7,31.6,54.7h438.9
	C503.5,482.5,521.1,452.1,507.1,427.8z"/>
<path class="st1" d="M507.1,427.8L287.6,47.7c-5.6-9.7-14.4-15.5-24-17.5l-218.7,378c-8.4,14.6-4.8,34.3,11,44.5
	c5.4,3.5,11.9,5.1,18.4,5.1h135.1c3.6,0,7.2,1.1,10,3.4c10,8.2,22.7,13.1,36.7,13.1c13.9,0,26.7-4.9,36.7-13.1
	c2.8-2.3,6.4-3.4,10-3.4H510C513.2,448.4,512.7,437.6,507.1,427.8z"/>
<path class="st2" d="M445.7,420.6L263.1,104.5c-3.2-5.5-11.1-5.5-14.3,0L66.3,420.6c-3.2,5.5,0.8,12.4,7.2,12.4h135.2
	c5.5,0,10.5,2.9,13.7,7.4c7.5,10.5,19.7,17.3,33.6,17.3s26.1-6.9,33.6-17.3c3.2-4.5,8.2-7.4,13.7-7.4h135.2
	C444.9,433,448.8,426.1,445.7,420.6z"/>
<circle class="st0" cx="256" cy="416.5" r="24.8"/>
<path class="st0" d="M264.7,358.7h-17.4c-4.4,0-8-3.4-8.2-7.8l-7.4-140.4c-0.2-4.7,3.5-8.7,8.2-8.7h32.1c4.7,0,8.5,4,8.2,8.7
	l-7.4,140.4C272.7,355.2,269.1,358.7,264.7,358.7z"/>
<path class="st1" d="M268.9,428.3c-13.7,0-24.8-11.1-24.8-24.8c0-3.5,0.8-6.9,2.1-9.9c-8.8,3.8-15,12.6-15,22.8
	c0,13.7,11.1,24.8,24.8,24.8c10.2,0,19-6.2,22.8-15C275.7,427.6,272.4,428.3,268.9,428.3z"/>
<path class="st1" d="M239.9,201.8c-4.7,0-8.5,4-8.2,8.7l7.4,140.4c0.2,4.4,3.9,7.8,8.2,7.8h9.7l-6-156.9L239.9,201.8L239.9,201.8z"
	/>
</svg>
