<?xml version="1.0" encoding="utf-8"?>
<!-- Generator: Adobe Illustrator 25.2.1, SVG Export Plug-In . SVG Version: 6.00 Build 0)  -->
<svg version="1.1" id="b34823bb-54c5-4248-96df-16f3b0e34aaf"
	 xmlns="http://www.w3.org/2000/svg" xmlns:xlink="http://www.w3.org/1999/xlink" x="0px" y="0px" viewBox="0 0 966 727.8"
	 style="enable-background:new 0 0 966 727.8;" xml:space="preserve">
<style type="text/css">
	.st0{fill:#2D393D;}
	.st1{fill:#FFFFFF;}
	.st2{fill:#E6E6E6;}
	.st3{fill:#FF4633;}
	.st4{fill:#A0616A;}
	.st5{fill:#CCCCCC;}
</style>
<path class="st0" d="M727,172.9h-4V63.4c0-35-28.4-63.4-63.4-63.4H427.5c-35,0-63.4,28.4-63.4,63.4c0,0,0,0,0,0v601
	c0,35,28.4,63.4,63.4,63.4h0h232.1c35,0,63.4-28.4,63.4-63.4V250.9h4L727,172.9z"/>
<path class="st1" d="M662.2,16.5h-30.3c4.7,11.5-0.8,24.6-12.3,29.3c-2.7,1.1-5.6,1.7-8.5,1.7h-133c-12.4,0-22.5-10.1-22.5-22.5
	c0-2.9,0.6-5.8,1.7-8.5h-28.3c-26.1,0-47.3,21.2-47.3,47.3v600.1c0,26.1,21.2,47.3,47.3,47.3l0,0h233.2c26.1,0,47.3-21.2,47.3-47.3
	l0,0l0,0V63.8C709.5,37.7,688.3,16.5,662.2,16.5L662.2,16.5z"/>
<ellipse class="st2" cx="593.9" cy="272.7" rx="42" ry="4"/>
<polygon class="st3" points="966,99.9 579.3,99.9 579.3,226.8 594,226.8 594,260 627.2,226.8 966,226.8 "/>
<rect x="622.4" y="142.9" class="st1" width="175.8" height="5.3"/>
<rect x="622.4" y="161.3" class="st1" width="306.4" height="5.3"/>
<rect x="622.4" y="179.8" class="st1" width="306.1" height="5.3"/>
<polygon class="st3" points="867.2,482.7 558.6,482.7 558.6,584 570.3,584 570.3,610.5 596.8,584 867.2,584 "/>
<rect x="592.9" y="517" class="st1" width="140.3" height="4.3"/>
<rect x="592.9" y="531.8" class="st1" width="244.6" height="4.3"/>
<rect x="592.9" y="546.5" class="st1" width="244.4" height="4.3"/>
<ellipse class="st2" cx="570.2" cy="620.7" rx="33.5" ry="3.2"/>
<ellipse class="st2" cx="477.9" cy="420.7" rx="42" ry="4"/>
<polygon class="st3" points="220.4,298.9 492.3,298.9 492.3,388.2 482,388.2 482,411.5 458.7,388.2 220.4,388.2 "/>
<rect x="248.6" y="328.4" class="st1" width="123.6" height="3.8"/>
<rect x="248.6" y="341.4" class="st1" width="215.5" height="3.8"/>
<rect x="248.6" y="354.4" class="st1" width="215.3" height="3.8"/>
<path class="st4" d="M88,516.6c2.7,4.7,8.7,6.3,13.4,3.5c4.7-2.7,6.3-8.7,3.5-13.4c-0.3-0.5-0.6-0.9-0.9-1.3l8.2-58.7l0.2-1.8
	l1.7-12l0.2-1.7l-0.9,0l-16,0.7l-4.3,0.2l-0.5,10.9l-3,61.4C86.4,507.8,85.7,512.7,88,516.6z"/>
<path class="st5" d="M112.4,445.6l-20.3-1.9c-2.2-0.2-3.8-2.1-3.6-4.3l3.8-42.1c0.8-8.4,8.2-14.7,16.7-13.9s14.7,8.2,13.9,16.7
	c0,0.3-0.1,0.6-0.1,0.9l-6.1,41.3c-0.3,2-2,3.4-3.9,3.4C112.7,445.6,112.5,445.6,112.4,445.6z"/>
<path class="st5" d="M97.1,411.5c-4.2-11.9,0-25.2,10.4-32.5c7.6-5.2,18.1-7.1,29.4,6.3c22.5,26.8,28.4,56.3,28.4,56.3l-46.1,7.5
	C119.1,449.2,103.4,430,97.1,411.5z"/>
<polygon class="st4" points="171.6,713.5 184.8,713.5 191,662.8 171.6,662.8 "/>
<path class="st0" d="M210.1,725.7l-41.3,0l0,0l0-16l0,0l28.6,0c7,0,12.7,5.7,12.7,12.7L210.1,725.7L210.1,725.7z"/>
<polygon class="st4" points="63.6,702 76,706.1 97.9,660 79.5,653.9 "/>
<path class="st0" d="M96.3,725.7l-39.2-13l0,0l5-15.2l0,0l27.1,9c6.7,2.2,10.3,9.4,8.1,16.1L96.3,725.7L96.3,725.7z"/>
<circle class="st4" cx="126" cy="339.4" r="26.3"/>
<path class="st0" d="M149.1,699.3l-12.2-80.6c-0.3-2-2.2-3.5-4.3-3.1c-1.5,0.2-2.7,1.3-3.1,2.8l-18.6,76.8c-0.6,2.4-3,4-5.5,3.6
	l-51.3-8.2c-2.6-0.4-4.4-2.9-4-5.5c0-0.2,0.1-0.4,0.1-0.6L117.2,464c0.2-0.6,0.2-1.3,0.1-1.9l-2.2-9.6c-0.5-2.2,0.5-4.4,2.5-5.4
	c9.1-4.6,32.2-14.3,49.6-3.7c1.1,0.7,1.9,1.8,2.2,3.1L221.6,692c0.6,2.6-1.1,5.2-3.7,5.7c-0.2,0-0.4,0.1-0.6,0.1l-63,5.6
	c-0.1,0-0.3,0-0.4,0C151.5,703.4,149.4,701.7,149.1,699.3z"/>
<path class="st0" d="M108.5,320.8c2-1.2,3.7-2.7,5.2-4.5c1.5-1.8,1.9-4.3,1-6.5c-1.3-2.9-5.3-3.9-8.3-2.9c-3.1,1-5.4,3.4-7.7,5.7
	c-2,2-4,4.2-4.9,6.9c-0.9,2.7-0.5,6.1,1.9,7.7c2.3,1.6,5.6,0.9,7.8-0.8s3.6-4.3,4.9-6.7L108.5,320.8z"/>
<path class="st0" d="M99.6,313.3c-0.1-7.4-8.6-12.7-15.9-11.4c-7.3,1.3-12.9,7.5-15.7,14.4c-5.9,14.5-1.5,31.1,4.2,45.7
	c5.7,14.6,12.8,29.4,12,45.1c-1.1,17.2-11.6,32.5-27.4,39.7c8.2,3.7,18.1-0.1,25-5.9c15.4-12.9,21.3-36,14.1-54.7
	c-3.6-9.3-9.8-17.2-14.7-25.8c-4.9-8.6-8.5-18.8-6-28.4s13.3-17.4,22.5-13.6L99.6,313.3z"/>
<path class="st0" d="M127.6,351.1c-2.3-3.9-4.6-9-0.4-12.4c1.8-1.4,4.2-2,6.5-1.7c4.7,0.6,9.9,0.8,14.5-0.9c3.5-1.2,6.3-3.7,7.9-7.1
	c2.4-5.6-0.6-12.4-5.5-15.9c-6.2-4.3-14.3-4.4-20.6-0.4c-6.4-2.8-14.2-1.6-20,2.3s-9.8,10.1-12,16.8c-2,5.7-2.3,11.9-1,17.8
	c2.2,8.3,8.3,15.1,16.4,18.1c3.2,1.2,6.8,0.7,9.4-1.4c0,0,3.6-3.2,4.8-7C128.3,356.5,128.8,353.2,127.6,351.1z"/>
<path class="st4" d="M205.7,374.6c-0.1,0.6-0.2,1.2-0.3,1.8L159.4,403l-11.2-6.4l-11.9,15.6l18.7,13.3c3.1,2.2,7.3,2.1,10.3-0.3
	l47.5-37.5c5.8,2.2,12.3-0.8,14.5-6.6c2.2-5.8-0.8-12.3-6.6-14.5c-5.8-2.2-12.3,0.8-14.5,6.6C205.9,373.7,205.8,374.2,205.7,374.6
	L205.7,374.6z"/>
<path class="st5" d="M157.9,404.2L143,423.5c-1.6,2.1-4.7,2.5-6.8,0.9c-0.2-0.1-0.4-0.3-0.5-0.5l-16.9-17.5
	c-5.8-4.6-6.9-13-2.3-18.8c4.5-5.8,12.9-6.9,18.8-2.4l21.1,11.8c2.3,1.3,3.2,4.2,1.9,6.6C158.1,403.8,158,404,157.9,404.2
	L157.9,404.2z"/>
<path class="st5" d="M309.3,727.8H1.3c-0.7,0-1.2-0.6-1.2-1.3c0-0.7,0.6-1.2,1.2-1.2h308c0.7,0,1.2,0.6,1.2,1.3
	C310.5,727.2,310,727.8,309.3,727.8L309.3,727.8z"/>
</svg>
