<?xml version="1.0" encoding="utf-8"?>
<!-- Generator: Adobe Illustrator 25.1.0, SVG Export Plug-In . SVG Version: 6.00 Build 0)  -->
<svg version="1.1" id="_x31_cf4a4b6-30d3-491e-a53d-552d6204f4f6"
	 xmlns="http://www.w3.org/2000/svg" xmlns:xlink="http://www.w3.org/1999/xlink" x="0px" y="0px" viewBox="0 0 906.4 756"
	 style="enable-background:new 0 0 906.4 756;" xml:space="preserve">
<style type="text/css">
	.st0{fill:url(#SVGID_1_);}
	.st1{fill:#FDB797;}
	.st2{fill:#FF4633;}
	.st3{clip-path:url(#SVGID_3_);}
	.st4{opacity:0.1;enable-background:new    ;}
	.st5{opacity:0.1;}
	.st6{fill:#333333;}
	.st7{fill:#D5E0DE;}
	.st8{fill:#AFAFAF;}
	.st9{opacity:0.5;}
</style>
<linearGradient id="SVGID_1_" gradientUnits="userSpaceOnUse" x1="670.6393" y1="-72.048" x2="670.6393" y2="664.6117" gradientTransform="matrix(1 0 0 -1 -146.79 684)">
	<stop  offset="0" style="stop-color:#808080;stop-opacity:0.25"/>
	<stop  offset="0.54" style="stop-color:#808080;stop-opacity:0.12"/>
	<stop  offset="1" style="stop-color:#808080;stop-opacity:0.1"/>
</linearGradient>
<path class="st0" d="M882,228.4c-2.7-2.2-5.2-4.5-7.4-7.1c0,0.6,0,1.2,0,1.8c-18.2-18.5-17.5-41-10.1-61.5l2.5-0.9
	c11.7-30.9,38.5-56.8,38.5-56.8l-4,1.7c1.2-1.3,1.9-2,1.9-2c-166,70.8-281.5,74.9-294.4,75.2c-7.9-3-73.4-26.8-136.7-35.7
	c-19.9-2.9-39.7-4.3-57.4-3.2l-19.9-85.6l-0.4,0.2c-0.9-7.3-4.4-23.3-17-33.2c-16.8-13.2-4.3,47.4-4.3,47.4l1.4-0.6l7.1,76.2
	l-3.4,2.9c-19.9,5.9-40.5,9.5-61.3,10.6c3.8-3.5,7-7.8,9.3-12.4c2.7,0.6,5.5-0.3,7.5-2.2c0.7-0.7,1.2-1.5,1.6-2.3
	c0.9-1.5,1.7-3.1,2.2-4.7c4.1-11.1,8.7-22.3,10-34.1c1.3-11.8-0.9-24.6-8.8-33.4c-7.9-8.8-22.4-12.2-32.1-5.4
	c-2.5,1.8-4.6,4.1-7.4,5.4c-8.4,4.1-17.7-2.5-25.6-7.6c-9.1-5.9-21.1-10.2-30.6-4.8c-2.9,1.7-5.4,4.2-7,7.2
	c-2.6,4.1-3.8,8.9-3.5,13.8c0.5,7.8,4.7,15,10.3,20.4c1.9,2,4.2,3.5,6.8,4.4c0.7,0.2,1.3,0.3,2,0.4c-6.3,9.6-8.6,21.2-6.3,32.5
	l-3.5,21.1c-3.1,1.4-4.8,4.6-5.8,7.7c-14.6,0.4-29.5,10.4-29.5,10.4l-57.3,57.3c-14.9,10.1-4.8,28.7-4.8,28.7l33.5,100.4l1.9-1.4
	c6.9,12.5,27,47,30.9,29.8c4.7-20.8-10-39.8-10-39.8h-0.2l-3.8-4.9l-14-74.6l17.7-17.6l23.8-3.5l1.1,154.5
	c-43.5,114.7-38.2,167.2-38.2,167.2l38.2,143.4l4.9-0.8l1.2,4.7l0.4-0.2l2.1,10.6h-3.8l-4.8,14.3c0,0-24.4-0.5-23.9,4.8
	s13.8,14.3,47.8,4.8l9.6-9.6c0,0,4.8-4.8-4.8-14.3h-0.7l-2.6-18.6l3.3-0.6l-28.7-143.4c23.9-19.7,66.9-95.6,66.9-95.6
	s43,75.9,66.9,95.6l-28.7,143.3l3.3,0.6l-2.6,18.6h-0.7c-9.6,9.6-4.8,14.3-4.8,14.3l9.6,9.6c34,9.6,47.3,0.5,47.8-4.8
	s-23.9-4.8-23.9-4.8l-4.8-14.3h-3.8l2.8-13.8l0.5-1.5l5.4,0.9l38.2-143.4c0,0-0.7-82.8-37.8-186.4l76.3,106.9l60.3,95.1
	c3.2-7.7,7.1-15.1,11.7-22l43.7-40.8c50.8-30.2,118.5-32,160.3-29.5l38.6,4.2l18.1-95.6c10.6-13.6,26.3-25.4,49.1-34.1
	c47.3-18.2,87-56.8,86.7-94.4c0.7,0.8,1.4,1.5,2,2.3C906.9,259.4,899.7,242.9,882,228.4z M358.2,370.1l0-1.8l2.2,3.5L358.2,370.1z"
	/>
<path class="st1" d="M208.9,350h-0.2l-8.5-11l-13.7,13.7l1.5,2.3l-1.7,0.4c0,0,27.7,53.6,32.4,33.2S208.9,350,208.9,350z"/>
<path id="_x38_3eae6ee-46c5-4585-a2a2-a187faac01c1" class="st2" d="M266.8,158.6c0,0,50.6,15.2,121.4-7.6s217.5,32.9,217.5,32.9
	s116.3,0,288.3-73.3c0,0-78.4,75.9-22.8,121.4s5.1,111.3-60.7,136.6s-70.8,75.9-65.8,123.9s0,2.5,0,2.5s-197.2-35.4-247.8,86
	L246.5,186.5C246.5,186.5,231.4,156.1,266.8,158.6z"/>
<g>
	<defs>
		<path id="SVGID_2_" d="M266.8,158.6c0,0,50.6,15.2,121.4-7.6s217.5,32.9,217.5,32.9s116.3,0,288.3-73.3c0,0-78.4,75.9-22.8,121.4
			s5.1,111.3-60.7,136.6s-70.8,75.9-65.8,123.9s0,2.5,0,2.5s-197.2-35.4-247.8,86L246.5,186.5C246.5,186.5,231.4,156.1,266.8,158.6z
			"/>
	</defs>
	<clipPath id="SVGID_3_">
		<use xlink:href="#SVGID_2_"  style="overflow:visible;"/>
	</clipPath>
	<g class="st3">
		<polygon class="st4" points="141.5,84.2 771.1,536.8 809,425.6 		"/>
		<polygon class="st4" points="179.4,225.8 528.3,579.8 578.9,541.9 		"/>
	</g>
</g>
<g class="st5">
	<path d="M281.4,194.3c0,0,50.6,15.2,121.4-7.6s217.5,32.9,217.5,32.9s94.1,0,238.1-53.4c11.4-30.1,37.5-55.4,37.5-55.4
		c-172,73.3-288.3,73.3-288.3,73.3s-146.7-55.6-217.5-32.9s-121.4,7.6-121.4,7.6c-35.4-2.5-20.2,27.8-20.2,27.8l10.4,16.4
		C261.1,197.6,267.1,193.3,281.4,194.3z"/>
	<path d="M873.1,232.2c-2.6-2.1-5-4.4-7.3-6.9c-0.6,14.9,4.6,29.8,19.9,42.3c4.1,3.3,7.8,7,11.2,11.1
		C897.4,262.5,890.4,246.4,873.1,232.2z"/>
</g>
<polygon class="st1" points="358.6,700.8 353.9,724.1 335.3,724.1 339.9,691.5 "/>
<polygon class="st4" points="358.2,704 356.9,707.9 338.5,702.7 339.8,700 "/>
<polygon class="st1" points="237.4,700.8 242.1,724.1 260.7,724.1 256,691.5 "/>
<polygon class="st4" points="237.3,704 238.6,709.2 257,702.7 257,700 "/>
<path class="st1" d="M398,66.5c0,0-0.5-23.4-16.9-36.2S377,76.5,377,76.5L398,66.5z"/>
<path class="st6" d="M260.7,719.4h-23.3l-4.7,14c0,0-23.8-0.5-23.3,4.7s13.5,14,46.6,4.7l9.3-9.3C265.4,733.4,270,728.7,260.7,719.4
	z"/>
<path class="st6" d="M335.3,719.4h23.3l4.7,14c0,0,23.8-0.5,23.3,4.7s-13.5,14-46.6,4.7l-9.3-9.3C330.6,733.4,326,728.7,335.3,719.4
	z"/>
<path class="st6" d="M363.2,402.5H232.8c-42.5,111.8-37.3,163.1-37.3,163.1l37.3,139.8l28-4.7l-28-139.8
	c23.3-19.2,65.2-93.2,65.2-93.2s41.9,74,65.2,93.2l-28,139.8l28,4.7l37.3-139.8C400.5,565.7,405.7,514.4,363.2,402.5z"/>
<path class="st4" d="M232.8,404.3c0,0,74,28,130.5,0H232.8z"/>
<path class="st7" d="M228.6,235.2l-37.3,37.3l14,74.6l-18.6,14l-32.6-97.9c0,0-9.8-18.1,4.7-28l55.9-55.9c0,0,24-16.1,40.5-7.8
	s-26.9,63.2-26.9,63.2"/>
<path class="st7" d="M228.1,234.7l4.7,167.8c0,0,74,28,130.5,0l-4.7-157.9l-1.2-5.2l0.9-2.6l56-46.4c15.3-8.4,7.2-27.4,7.2-27.4
	L398.1,62.5l-19.9,12.2l7,75.5l-39.9,33.1l-1-0.1v0.2l-102.2-4.6"/>
<path class="st1" d="M295.4,155.8h5.6c8.7,0,15.8,7.1,15.8,15.8v10.3c0,8.7-7.1,15.8-15.8,15.8h-5.6c-8.7,0-15.8-7.1-15.8-15.8
	v-10.3C279.6,162.8,286.7,155.8,295.4,155.8z"/>
<path class="st4" d="M280.8,173.7c12,4.2,25.2,2.7,36-4c-2.7-7.4-9.7-12.3-17.5-12.3l0,0C289.9,157.4,282,164.4,280.8,173.7z"/>
<circle class="st1" cx="293.6" cy="132.5" r="41.9"/>
<path class="st4" d="M264.5,109.3c-2.6,0.3-5.2,0.2-7.8-0.4c-2.5-0.9-4.8-2.4-6.6-4.3c-5.5-5.3-9.6-12.3-10.1-19.9s3-15.6,9.6-19.4
	c9.2-5.2,20.9-1.1,29.8,4.7c7.6,5,16.7,11.4,24.9,7.4c2.7-1.3,4.8-3.6,7.2-5.3c9.5-6.6,23.6-3.4,31.3,5.2s9.9,21.1,8.6,32.6
	c-1.3,11.5-5.7,22.4-9.8,33.2c-0.6,2.1-1.7,4.1-3.1,5.8c-4.9,5.1-14.1,1.1-17.4-5.1c-5.6-10.9,0-29.8-13.3-36.1
	C297.2,102.7,275.8,108.6,264.5,109.3z"/>
<path class="st6" d="M265.1,108.3c-2.6,0.3-5.2,0.2-7.8-0.4c-2.5-0.9-4.8-2.4-6.6-4.3c-5.5-5.3-9.6-12.3-10.1-19.9s3-15.6,9.6-19.4
	c9.2-5.2,20.9-1.1,29.8,4.7c7.6,5,16.7,11.4,24.9,7.4c2.7-1.3,4.8-3.6,7.2-5.3c9.5-6.6,23.6-3.4,31.3,5.2s9.9,21.1,8.6,32.6
	c-1.3,11.5-5.8,22.4-9.8,33.2c-0.6,2.1-1.7,4.1-3.1,5.8c-4.9,5.1-14.1,1.1-17.4-5.1c-5.6-10.9,0-29.8-13.3-36.1
	C297.9,101.7,276.5,107.6,265.1,108.3z"/>
<ellipse class="st1" cx="316.9" cy="132.5" rx="4.7" ry="9.3"/>
<polygon class="st4" points="228.1,234.7 240,240.2 228.1,254.7 "/>
<polygon class="st4" points="358.2,236.8 350.3,245.5 355.6,253.4 358.6,244.6 "/>
<path class="st2" d="M298.8,194v7.6c0,0-55.3-10.1-56.8-25.3l36.5,2.5L298.8,194z"/>
<path class="st2" d="M298.8,194v7.6c0,0,55.4-10.1,56.8-25.3l-36.5,2.5L298.8,194z"/>
<polygon class="st4" points="637.1,276.4 819.2,319.4 753.4,347.2 "/>
<path class="st2" d="M242.2,176.7c0,0,0-15.9,10.6-15.9c10.6,0,21.2,31.8,21.2,31.8L242.2,176.7z"/>
<circle class="st8" cx="11.6" cy="293.7" r="6.9"/>
<circle class="st8" cx="98.3" cy="456.7" r="6.9"/>
<circle class="st8" cx="837" cy="19.6" r="6.9"/>
<path class="st2" d="M502.8,24.2c-2-0.9-3-3.1-2.4-5.1c0-0.2,0.1-0.3,0.1-0.5l0,0c0.1-1.2-0.8-2.2-2-2.3c-0.7,0-1.4,0.3-1.8,0.8l0,0
	c-0.1,0.1-0.2,0.3-0.2,0.4c-0.9,2-3.1,3-5.1,2.4c-0.2,0-0.3-0.1-0.5-0.1l0,0c-1.2-0.1-2.2,0.8-2.3,2c0,0.7,0.3,1.4,0.8,1.8l0,0
	c0.1,0.1,0.3,0.2,0.4,0.2c2,0.9,3,3.1,2.3,5.1c0,0.2-0.1,0.3-0.1,0.5l0,0c-0.1,1.2,0.8,2.2,2,2.3c0.7,0,1.4-0.3,1.8-0.8l0,0
	c0.1-0.1,0.2-0.3,0.2-0.4c0.9-2,3.1-3,5.1-2.4c0.2,0,0.3,0.1,0.5,0.1l0,0c1.2,0.1,2.2-0.8,2.3-2c0-0.7-0.3-1.4-0.8-1.8l0,0
	C503.1,24.4,502.9,24.3,502.8,24.2z"/>
<path class="st2" d="M843.9,446.2c-2-0.9-3-3.1-2.4-5.1c0-0.2,0.1-0.3,0.1-0.5l0,0c0.1-1.2-0.8-2.2-2-2.3c-0.7,0-1.4,0.3-1.8,0.8
	l0,0c-0.1,0.1-0.2,0.3-0.2,0.4c-0.9,2-3.1,3-5.1,2.4c-0.2,0-0.3-0.1-0.5-0.1l0,0c-1.2-0.1-2.2,0.8-2.3,2c0,0.7,0.3,1.4,0.8,1.8l0,0
	c0.1,0.1,0.3,0.2,0.4,0.2c2,0.9,3,3.1,2.4,5.1c0,0.2-0.1,0.3-0.1,0.5l0,0c-0.1,1.2,0.8,2.2,2,2.3c0.7,0,1.4-0.3,1.8-0.8l0,0
	c0.1-0.1,0.2-0.3,0.2-0.4c0.9-2,3.1-3,5.1-2.4c0.2,0,0.3,0.1,0.5,0.1l0,0c1.2,0.1,2.2-0.8,2.3-2c0-0.7-0.3-1.4-0.8-1.8l0,0
	C844.2,446.4,844,446.3,843.9,446.2z"/>
<circle class="st7" cx="587.3" cy="644" r="6.9"/>
<circle class="st7" cx="11.6" cy="595.4" r="6.9"/>
<circle class="st7" cx="566.5" cy="92.5" r="6.9"/>
<g class="st9">
	<rect x="8.1" class="st7" width="3.5" height="19.6"/>
	<rect y="8.1" class="st7" width="19.7" height="3.5"/>
</g>
<g class="st9">
	<rect x="71.7" y="188.4" class="st7" width="3.5" height="19.6"/>
	<rect x="63.6" y="196.5" class="st7" width="19.6" height="3.5"/>
</g>
<g class="st9">
	<rect x="707.6" y="104.1" class="st7" width="3.5" height="19.7"/>
	<rect x="699.5" y="112.1" class="st7" width="19.6" height="3.5"/>
</g>
</svg>
