<?xml version="1.0" encoding="utf-8"?>
<!-- Generator: Adobe Illustrator 25.1.0, SVG Export Plug-In . SVG Version: 6.00 Build 0)  -->
<svg version="1.1" id="d5eeb229-0560-4c73-9e9e-2e1785b57a7c"
	 xmlns="http://www.w3.org/2000/svg" xmlns:xlink="http://www.w3.org/1999/xlink" x="0px" y="0px" viewBox="0 0 857.1 758.8"
	 style="enable-background:new 0 0 857.1 758.8;" xml:space="preserve">
<style type="text/css">
	.st0{opacity:0.5;}
	.st1{fill:url(#SVGID_1_);}
	.st2{fill:#AFAFAF;}
	.st3{fill:#FFFFFF;}
	.st4{fill:url(#SVGID_2_);}
	.st5{fill:url(#SVGID_3_);}
	.st6{fill:url(#SVGID_4_);}
	.st7{fill:url(#SVGID_5_);}
	.st8{fill:#FF4633;}
	.st9{fill:url(#SVGID_6_);}
	.st10{fill:url(#SVGID_7_);}
	.st11{fill:url(#SVGID_8_);}
	.st12{fill:url(#SVGID_9_);}
	.st13{fill:url(#SVGID_10_);}
	.st14{fill:url(#SVGID_11_);}
	.st15{fill:url(#SVGID_12_);}
	.st16{fill:#CFD8DC;}
	.st17{opacity:0.1;enable-background:new    ;}
	.st18{opacity:0.2;fill:#FFFFFF;enable-background:new    ;}
	.st19{fill:url(#SVGID_13_);}
	.st20{fill:url(#SVGID_14_);}
	.st21{fill:none;stroke:#2D393D;stroke-width:2;stroke-miterlimit:10;stroke-dasharray:12;}
	.st22{fill:url(#SVGID_15_);}
	.st23{fill:url(#SVGID_16_);}
</style>
<g class="st0">
	<g class="st0">
		
			<linearGradient id="SVGID_1_" gradientUnits="userSpaceOnUse" x1="834.1974" y1="225.8557" x2="834.1974" y2="266.6757" gradientTransform="matrix(-0.8447 -0.5385 0.5385 -0.8447 813.5811 874.0023)">
			<stop  offset="0" style="stop-color:#808080;stop-opacity:0.25"/>
			<stop  offset="0.54" style="stop-color:#808080;stop-opacity:0.12"/>
			<stop  offset="1" style="stop-color:#808080;stop-opacity:0.1"/>
		</linearGradient>
		<polygon class="st1" points="227.1,234 227.5,202.4 254,202.7 253.6,234.3 		"/>
	</g>
	
		<rect x="224.9" y="205.2" transform="matrix(9.075662e-03 -1 1 9.075662e-03 19.9194 456.1348)" class="st2" width="30.3" height="25.6"/>
	<circle class="st3" cx="240.1" cy="217.2" r="4.7"/>
	<circle class="st3" cx="240.1" cy="218.8" r="4.3"/>
	
		<rect x="238.3" y="222" transform="matrix(9.075662e-03 -1 1 9.075662e-03 14.8097 460.9911)" class="st3" width="3.4" height="2"/>
	<path class="st3" d="M244.6,233.2l-9.9-0.1l0,0l0-4.5c0-2.7,2.3-4.9,5-4.9l0,0c2.7,0,4.9,2.3,4.9,5L244.6,233.2L244.6,233.2z"/>
	<circle class="st3" cx="240.1" cy="212.5" r="1.7"/>
	<path class="st3" d="M239.6,209.7c-0.9-0.1-1.8,0.1-2.7,0.4c-0.8,0.2-1.5,0.6-2.1,1.1c-1,1.2-1.5,2.7-1.4,4.2
		c0.1,1.5-0.1,3-0.6,4.4c-0.8,1.5-2.4,2.4-4.1,2.4c1,0.6,2.3,0.6,3.3,0.1c0.9-0.4,1.7-1.1,2.2-2c0.3-0.6,0.6-1.3,0.8-1.9
		c0.7-2,1.7-3.8,2.9-5.5c0.2-0.3,0.4-0.5,0.6-0.8c0.4-0.3,0.8-0.4,1.2-0.5c0.4,0,1,0.1,1.2-0.2C241.6,210.6,240,209.8,239.6,209.7z"
		/>
</g>
<g class="st0">
	<g class="st0">
		
			<linearGradient id="SVGID_2_" gradientUnits="userSpaceOnUse" x1="722.5148" y1="291.5776" x2="722.5148" y2="346.4585" gradientTransform="matrix(0.8457 -0.5336 -0.5336 -0.8457 146.2402 873.3513)">
			<stop  offset="0" style="stop-color:#808080;stop-opacity:0.25"/>
			<stop  offset="0.54" style="stop-color:#808080;stop-opacity:0.12"/>
			<stop  offset="1" style="stop-color:#808080;stop-opacity:0.1"/>
		</linearGradient>
		<polygon class="st4" points="569.1,196.9 604.7,196.6 605.1,239.1 569.4,239.4 		"/>
	</g>
	
		<rect x="569.9" y="197.6" transform="matrix(1 -9.075588e-03 9.075588e-03 1 -1.9541 5.3374)" class="st2" width="34.4" height="40.8"/>
	
		<ellipse transform="matrix(1 -9.075585e-03 9.075585e-03 1 -1.9436 5.3381)" class="st3" cx="587.2" cy="216.8" rx="6.3" ry="6.4"/>
	
		<ellipse transform="matrix(1 -9.075574e-03 9.075574e-03 1 -1.9628 5.3383)" class="st3" cx="587.2" cy="218.9" rx="5.8" ry="5.8"/>
	
		<rect x="585.9" y="222.4" transform="matrix(1 -9.075588e-03 9.075588e-03 1 -2.0152 5.339)" class="st3" width="2.7" height="4.6"/>
	<path class="st3" d="M587.5,225.7L587.5,225.7c3.7,0,6.7,2.9,6.7,6.6v0l0.1,6l0,0l-13.2,0.1l0,0l-0.1-6
		C581,228.7,583.9,225.7,587.5,225.7L587.5,225.7L587.5,225.7z"/>
	<circle class="st3" cx="587.1" cy="210.5" r="2.3"/>
	<path class="st3" d="M587.9,206.8c1.2-0.1,2.5,0.1,3.6,0.6c1,0.3,2,0.8,2.8,1.5c1.5,1.4,1.8,3.6,1.8,5.6s-0.1,4.1,0.8,6
		c1,2,3.2,3.3,5.5,3.2c-1.4,0.8-3.1,0.8-4.5,0.1c-1.3-0.6-2.3-1.5-3-2.7c-0.4-0.8-0.8-1.7-1.1-2.6c-1-2.6-2.3-5.1-3.9-7.4
		c-0.2-0.4-0.5-0.7-0.9-1c-0.5-0.4-1-0.6-1.7-0.7c-0.5-0.1-1.3,0.2-1.6-0.3C585.2,208,587.1,206.9,587.9,206.8z"/>
</g>
<g class="st0">
	<g class="st0">
		
			<linearGradient id="SVGID_3_" gradientUnits="userSpaceOnUse" x1="774.8323" y1="436.583" x2="774.8323" y2="523.623" gradientTransform="matrix(0.8452 -0.5377 -0.5377 -0.8452 149.3834 873.1517)">
			<stop  offset="0" style="stop-color:#808080;stop-opacity:0.25"/>
			<stop  offset="0.54" style="stop-color:#808080;stop-opacity:0.12"/>
			<stop  offset="1" style="stop-color:#808080;stop-opacity:0.1"/>
		</linearGradient>
		<polygon class="st5" points="518.8,19.3 575.3,18.8 575.9,86.2 519.4,86.7 		"/>
	</g>
	
		<rect x="520.1" y="20.4" transform="matrix(1 -9.075588e-03 9.075588e-03 1 -0.4556 4.9702)" class="st2" width="54.6" height="64.7"/>
	<circle class="st3" cx="547.5" cy="50.8" r="10.1"/>
	<ellipse transform="matrix(1 -9.075613e-03 9.075613e-03 1 -0.4693 4.9718)" class="st3" cx="547.6" cy="54.2" rx="9.2" ry="9.2"/>
	
		<rect x="545.5" y="59.7" transform="matrix(1 -9.075588e-03 9.075588e-03 1 -0.5524 4.973)" class="st3" width="4.3" height="7.3"/>
	<path class="st3" d="M548.3,64.2L548.3,64.2c5.8-0.1,10.5,4.6,10.6,10.4l0.1,9.6l0,0l-21,0.2l0,0l-0.1-9.6
		C537.9,69,542.5,64.3,548.3,64.2z"/>
	<ellipse transform="matrix(1 -9.075588e-03 9.075588e-03 1 -0.3476 4.9701)" class="st3" cx="547.5" cy="40.8" rx="3.7" ry="3.7"/>
	<path class="st3" d="M548.6,34.9c2-0.2,3.9,0.1,5.7,0.9c1.6,0.5,3.1,1.3,4.4,2.4c2.3,2.2,2.8,5.7,2.9,8.9s-0.1,6.6,1.3,9.4
		c1.7,3.2,5,5.1,8.7,5c-2.2,1.3-4.8,1.3-7.1,0.2c-2-0.9-3.7-2.4-4.8-4.3c-0.7-1.3-1.3-2.7-1.7-4.1c-1.5-4.2-3.6-8.1-6.1-11.8
		c-0.4-0.6-0.8-1.1-1.4-1.6c-0.8-0.6-1.7-0.9-2.6-1c-0.8-0.1-2.1,0.3-2.6-0.5C544.3,36.9,547.5,35.1,548.6,34.9z"/>
</g>
<g class="st0">
	<g class="st0">
		
			<linearGradient id="SVGID_4_" gradientUnits="userSpaceOnUse" x1="417.9221" y1="636.0322" x2="417.9221" y2="721.3949" gradientTransform="matrix(0.9187 0.3951 0.3951 -0.9187 -343.9244 508.6637)">
			<stop  offset="0" style="stop-color:#808080;stop-opacity:0.25"/>
			<stop  offset="0.54" style="stop-color:#808080;stop-opacity:0.12"/>
			<stop  offset="1" style="stop-color:#808080;stop-opacity:0.1"/>
		</linearGradient>
		<polygon class="st6" points="278.8,16.7 336.9,16.2 337.5,83.8 279.4,84.4 		"/>
	</g>
	
		<rect x="280.2" y="17.8" transform="matrix(1 -9.075588e-03 9.075588e-03 1 -0.4495 2.7995)" class="st2" width="56" height="66.3"/>
	
		<ellipse transform="matrix(1 -9.075550e-03 9.075550e-03 1 -0.4326 2.795)" class="st3" cx="307.7" cy="49.1" rx="10.3" ry="10.3"/>
	<circle class="st3" cx="307.8" cy="52.5" r="9.4"/>
	
		<rect x="305.7" y="58.1" transform="matrix(1 -9.075588e-03 9.075588e-03 1 -0.549 2.7966)" class="st3" width="4.4" height="7.5"/>
	<path class="st3" d="M308.3,63.4L308.3,63.4c6-0.1,10.8,4.7,10.9,10.7l0,0l0.1,9.8l0,0l-21.6,0.2l0,0l-0.1-9.8
		C297.6,68.4,302.4,63.5,308.3,63.4C308.3,63.4,308.3,63.4,308.3,63.4z"/>
	<path class="st3" d="M300.5,41.6c0,0,6.2-3.8,7.4-7.9c1.9,3.7,4.3,7,7.3,9.9L300.5,41.6z"/>
</g>
<linearGradient id="SVGID_5_" gradientUnits="userSpaceOnUse" x1="118.535" y1="1.17" x2="118.535" y2="233.47" gradientTransform="matrix(1 0 0 -1 0 760)">
	<stop  offset="0" style="stop-color:#808080;stop-opacity:0.25"/>
	<stop  offset="0.54" style="stop-color:#808080;stop-opacity:0.12"/>
	<stop  offset="1" style="stop-color:#808080;stop-opacity:0.1"/>
</linearGradient>
<rect y="526.5" class="st7" width="237.1" height="232.3"/>
<rect x="1.2" y="528.3" class="st3" width="234.7" height="228.7"/>
<rect x="25" y="547.3" class="st8" width="187" height="145.2"/>
<rect x="36.4" y="708" class="st2" width="165.1" height="7.6"/>
<rect x="62.8" y="723.2" class="st2" width="112.4" height="7.6"/>
<g class="st0">
	
		<linearGradient id="SVGID_6_" gradientUnits="userSpaceOnUse" x1="424.755" y1="507.25" x2="424.755" y2="602.43" gradientTransform="matrix(1 0 0 -1 0 760)">
		<stop  offset="0" style="stop-color:#808080;stop-opacity:0.25"/>
		<stop  offset="0.54" style="stop-color:#808080;stop-opacity:0.12"/>
		<stop  offset="1" style="stop-color:#808080;stop-opacity:0.1"/>
	</linearGradient>
	<rect x="382.9" y="157.6" class="st9" width="83.7" height="95.2"/>
</g>
<rect x="385.6" y="158.9" class="st2" width="79.2" height="93.9"/>
<circle class="st3" cx="424.3" cy="203.2" r="14.6"/>
<circle class="st3" cx="424.3" cy="208" r="13.3"/>
<rect x="421.2" y="216" class="st3" width="6.2" height="10.6"/>
<path class="st3" d="M422.8,223.5h4.4c7.2,0,13.1,5.9,13.1,13.1v16.1l0,0h-30.5l0,0v-16.1C409.7,229.4,415.6,223.5,422.8,223.5z"/>
<path class="st3" d="M417.5,187.6c-0.9,0.5-1.9,1-2.8,1.6c-0.8,0.4-1.5,1-2,1.8c-0.1,0.3-0.3,0.6-0.5,0.9c-0.4,0.5-1.1,0.5-1.7,0.6
	c-2,0.5-3,2.6-3.5,4.5c-0.3,1.2-0.6,2.3-0.8,3.5c-0.2,0.8-0.2,1.6,0.1,2.3c0.1,0.3,0.3,0.6,0.4,0.9c0.4,1.2-0.7,2.3-0.9,3.6
	c-0.1,1.1,0.1,2.2,0.5,3.2c0.1,0.3,0.2,0.6,0.4,0.9c0.2,0.2,0.3,0.4,0.5,0.6c0.4,0.5,0.8,1,1,1.6c2.1,0.4,4.2,1,6.2,1.7
	c3.2,1.3,6.5,3.1,10,2.9c0.9,0,1.9-0.2,2.8-0.6c1.7-0.6,3.3-1.8,5-2.4c1.6-0.4,3.3-0.7,5-0.8c0.8-0.2,1.8-0.8,1.5-1.5
	c0.8,0.3,1.7,0.1,2.4-0.5c0.6-0.6,1.1-1.3,1.5-2.1c0.7-1.3,1.3-2.7,1.7-4.1c0.7-2.8,0.3-5.7-1-8.2c-0.2-0.5-0.6-0.9-1-1.3
	c-0.3-0.2-0.7-0.4-1-0.6c-0.3-0.3-0.6-0.6-0.8-1c-1.1-1.8-2.3-3.6-3.5-5.3c-1.2-1.7-2.6-3.5-4.6-4.2c-2.9-1.1-5,0.7-7.8,0.8
	c-1.2,0-2.3-0.5-3.6-0.2C419.7,186.5,418.5,187,417.5,187.6z"/>
<g class="st0">
	
		<linearGradient id="SVGID_7_" gradientUnits="userSpaceOnUse" x1="266.78" y1="627.96" x2="266.78" y2="709.35" gradientTransform="matrix(1 0 0 -1 0 760)">
		<stop  offset="0" style="stop-color:#808080;stop-opacity:0.25"/>
		<stop  offset="0.54" style="stop-color:#808080;stop-opacity:0.12"/>
		<stop  offset="1" style="stop-color:#808080;stop-opacity:0.1"/>
	</linearGradient>
	<rect x="231" y="50.7" class="st10" width="71.5" height="81.4"/>
</g>
<rect x="233.3" y="51.8" class="st2" width="67.8" height="80.3"/>
<circle class="st3" cx="266.4" cy="89.6" r="12.5"/>
<ellipse transform="matrix(0.1602 -0.9871 0.9871 0.1602 131.1288 341.7434)" class="st3" cx="266.4" cy="93.8" rx="11.4" ry="11.4"/>
<rect x="263.8" y="100.6" class="st3" width="5.3" height="9.1"/>
<path class="st3" d="M267,107.1L267,107.1c7.2,0,13,5.9,13,13.1V132l0,0h-26.1l0,0v-11.9C253.9,112.9,259.8,107,267,107.1
	C267,107,267,107,267,107.1z"/>
<path class="st3" d="M260.5,76.3c-0.8,0.4-1.6,0.9-2.4,1.4c-0.7,0.4-1.3,0.9-1.7,1.6c-0.1,0.3-0.2,0.5-0.4,0.8
	c-0.4,0.4-1,0.4-1.5,0.5c-1.7,0.4-2.5,2.2-3,3.9c-0.3,1-0.5,2-0.6,3c-0.2,0.7-0.1,1.4,0.1,2c0.1,0.3,0.3,0.5,0.4,0.8
	c0.3,1-0.6,2-0.8,3c-0.1,1,0.1,1.9,0.5,2.8c0.1,0.3,0.2,0.5,0.4,0.8c0.1,0.2,0.3,0.4,0.5,0.5c0.4,0.4,0.7,0.9,0.9,1.4
	c1.8,0.3,3.6,0.8,5.3,1.5c2.8,1.1,5.5,2.6,8.5,2.5c0.8,0,1.6-0.2,2.4-0.5c1.5-0.6,2.8-1.6,4.3-2c1.4-0.3,2.8-0.6,4.2-0.7
	c0.7-0.1,1.5-0.6,1.3-1.3c0.7,0.2,1.5,0.1,2-0.4c0.5-0.5,1-1.1,1.2-1.8c0.6-1.1,1.1-2.3,1.4-3.5c0.6-2.4,0.2-4.9-0.9-7
	c-0.2-0.4-0.5-0.8-0.9-1.1c-0.3-0.2-0.6-0.3-0.9-0.5c-0.3-0.2-0.5-0.5-0.7-0.9c-0.9-1.6-1.9-3.1-3-4.6c-0.9-1.6-2.3-2.8-3.9-3.6
	c-2.5-1-4.3,0.6-6.7,0.7c-1.1,0-2-0.4-3.1-0.2C262.4,75.5,261.5,75.8,260.5,76.3z"/>
<g class="st0">
	
		<linearGradient id="SVGID_8_" gradientUnits="userSpaceOnUse" x1="886.2601" y1="163.3767" x2="886.2601" y2="284.9771" gradientTransform="matrix(0.8453 -0.5344 -0.5344 -0.8453 147.1257 873.1479)">
		<stop  offset="0" style="stop-color:#808080;stop-opacity:0.25"/>
		<stop  offset="0.54" style="stop-color:#808080;stop-opacity:0.12"/>
		<stop  offset="1" style="stop-color:#808080;stop-opacity:0.1"/>
	</linearGradient>
	<polygon class="st11" points="736.5,163.3 815.4,162.5 816.4,256.7 737.5,257.5 	"/>
</g>
<rect x="738.1" y="165.7" transform="matrix(1 -9.075588e-03 9.075588e-03 1 -1.8816 7.0538)" class="st2" width="76.3" height="90.3"/>
<circle class="st3" cx="776.5" cy="208.3" r="14.1"/>
<ellipse transform="matrix(1 -9.075599e-03 9.075599e-03 1 -1.9009 7.056)" class="st3" cx="776.5" cy="213" rx="12.8" ry="12.8"/>
<rect x="773.6" y="220.6" transform="matrix(1 -9.075588e-03 9.075588e-03 1 -2.0169 7.0575)" class="st3" width="6" height="10.2"/>
<path class="st3" d="M775.7,227.9l3.2,0c7.2-0.1,13.1,5.7,13.2,13l0,0l0.1,15l0,0l-29.4,0.3l0,0l-0.1-15
	C762.6,233.9,768.4,228,775.7,227.9L775.7,227.9z"/>
<circle class="st3" cx="776.3" cy="194.2" r="5.1"/>
<path class="st3" d="M778,186c2.7-0.5,5.4,0.4,8,1.3c2.3,0.7,4.4,1.8,6.2,3.4c3.3,3.1,4,8,4.1,12.4s-0.1,9.2,1.9,13.2
	c2.3,4.5,7,7.2,12.1,7c-2.9,1.9-6.8,1.7-9.9,0.3c-2.8-1.3-5.2-3.4-6.7-6.1c-1-1.8-1.8-3.7-2.4-5.7c-2.2-5.8-5-11.4-8.6-16.5
	c-0.5-0.8-1.2-1.6-1.9-2.2c-1.1-0.8-2.3-1.3-3.7-1.5c-1.1-0.1-3,0.4-3.6-0.7C772,188.7,776.4,186.3,778,186z"/>
<g class="st0">
	
		<linearGradient id="SVGID_9_" gradientUnits="userSpaceOnUse" x1="402.8639" y1="567.8203" x2="402.8639" y2="671.7903" gradientTransform="matrix(0.8447 -0.5385 -0.5385 -0.8447 150.2812 872.9592)">
		<stop  offset="0" style="stop-color:#808080;stop-opacity:0.25"/>
		<stop  offset="0.54" style="stop-color:#808080;stop-opacity:0.12"/>
		<stop  offset="1" style="stop-color:#808080;stop-opacity:0.1"/>
	</linearGradient>
	<polygon class="st12" points="123.3,93.5 190.8,92.9 191.6,173.4 124.1,174.1 	"/>
</g>
<rect x="124.7" y="95.1" transform="matrix(1 -9.075588e-03 9.075588e-03 1 -1.207 1.4334)" class="st2" width="65.2" height="77.2"/>
<ellipse transform="matrix(1 -9.075601e-03 9.075601e-03 1 -1.1871 1.4347)" class="st3" cx="157.5" cy="131.5" rx="12" ry="12"/>
<ellipse transform="matrix(1 -9.075592e-03 9.075592e-03 1 -1.2235 1.4352)" class="st3" cx="157.5" cy="135.5" rx="10.9" ry="10.9"/>
<rect x="155.1" y="142.1" transform="matrix(1 -9.075588e-03 9.075588e-03 1 -1.3226 1.4366)" class="st3" width="5.1" height="8.7"/>
<path class="st3" d="M158.2,148.3L158.2,148.3c6.9-0.1,12.6,5.5,12.7,12.5v0l0.1,11.5l0,0l-25.1,0.2l0,0l-0.1-11.5
	C145.7,154,151.3,148.3,158.2,148.3z"/>
<circle class="st3" cx="157.4" cy="119.5" r="4.4"/>
<path class="st3" d="M158.8,112.4c2.3-0.4,4.6,0.3,6.9,1.1c1.9,0.6,3.7,1.6,5.3,2.9c2.8,2.6,3.4,6.8,3.5,10.6s-0.1,7.9,1.6,11.3
	c2,3.8,6,6.2,10.3,6c-2.5,1.6-5.8,1.5-8.5,0.3c-2.4-1.1-4.4-2.9-5.7-5.2c-0.8-1.6-1.5-3.2-2-4.9c-1.8-5-4.3-9.7-7.3-14.1
	c-0.4-0.7-1-1.4-1.6-1.9c-0.9-0.7-2-1.1-3.1-1.2c-0.9-0.1-2.5,0.3-3.1-0.6C153.7,114.8,157.4,112.7,158.8,112.4z"/>
<g class="st0">
	
		<linearGradient id="SVGID_10_" gradientUnits="userSpaceOnUse" x1="242.897" y1="360.917" x2="242.897" y2="480.1716" gradientTransform="matrix(0.9187 0.3951 0.3951 -0.9187 -343.9326 508.6698)">
		<stop  offset="0" style="stop-color:#808080;stop-opacity:0.25"/>
		<stop  offset="0.54" style="stop-color:#808080;stop-opacity:0.12"/>
		<stop  offset="1" style="stop-color:#808080;stop-opacity:0.1"/>
	</linearGradient>
	<polygon class="st13" points="4.3,171.4 85.5,170.7 86.4,265.2 5.2,265.9 	"/>
</g>
<rect x="6.4" y="172.9" transform="matrix(1 -9.075588e-03 9.075588e-03 1 -1.9877 0.4219)" class="st2" width="78.2" height="92.6"/>
<ellipse transform="matrix(1 -9.075591e-03 9.075591e-03 1 -1.964 0.4157)" class="st3" cx="44.8" cy="216.6" rx="14.4" ry="14.4"/>
<ellipse transform="matrix(1 -9.075590e-03 9.075590e-03 1 -2.0075 0.4163)" class="st3" cx="44.9" cy="221.4" rx="13.1" ry="13.1"/>
<rect x="41.9" y="229.3" transform="matrix(1 -9.075588e-03 9.075588e-03 1 -2.1265 0.4179)" class="st3" width="6.1" height="10.5"/>
<path class="st3" d="M43.7,236.7l4,0c7.2-0.1,13.1,5.7,13.2,13l0.1,15.8l0,0l-30.2,0.3l0,0l-0.1-15.7
	C30.6,242.7,36.4,236.8,43.7,236.7L43.7,236.7z"/>
<path class="st3" d="M34.7,206.2c0,0,8.7-5.3,10.4-11c0,0,4,8.3,10.2,13.9L34.7,206.2z"/>
<ellipse transform="matrix(1 -9.075598e-03 9.075598e-03 1 -5.517 1.0893)" class="st3" cx="117.3" cy="608.4" rx="24.9" ry="24.9"/>
<ellipse transform="matrix(1 -9.075614e-03 9.075614e-03 1 -5.5924 1.0903)" class="st3" cx="117.3" cy="616.7" rx="22.6" ry="22.7"/>
<rect x="112.3" y="630.3" transform="matrix(1 -9.075588e-03 9.075588e-03 1 -5.7979 1.0931)" class="st3" width="10.6" height="18.1"/>
<path class="st3" d="M117.9,643.2l1.6,0c13.9-0.1,25.4,11.1,25.5,25c0,0,0,0,0,0l0.2,24.6l0,0l-52.1,0.5l0,0l-0.2-24.6
	C92.7,654.7,103.9,643.3,117.9,643.2C117.9,643.2,117.9,643.2,117.9,643.2z"/>
<path class="st3" d="M99.8,590.4c0,0,15-9.2,17.9-19c0,0,6.9,14.3,17.6,24L99.8,590.4z"/>
<g class="st0">
	
		<linearGradient id="SVGID_11_" gradientUnits="userSpaceOnUse" x1="690.6752" y1="695.4893" x2="690.6752" y2="797.4045" gradientTransform="matrix(0.8935 0.3819 0.382 -0.8835 -316.1346 491.4074)">
		<stop  offset="0" style="stop-color:#808080;stop-opacity:0.25"/>
		<stop  offset="0.54" style="stop-color:#808080;stop-opacity:0.12"/>
		<stop  offset="1" style="stop-color:#808080;stop-opacity:0.1"/>
	</linearGradient>
	<polygon class="st14" points="553.1,54.6 620.8,54 621.5,131.4 553.8,132 	"/>
</g>
<rect x="554.8" y="55.8" transform="matrix(1 -9.075588e-03 9.075588e-03 1 -0.8265 5.335)" class="st2" width="65.2" height="75.9"/>
<ellipse transform="matrix(1 -9.075588e-03 9.075588e-03 1 -0.8072 5.3298)" class="st3" cx="586.9" cy="91.6" rx="12" ry="11.8"/>
<ellipse transform="matrix(1 -9.075588e-03 9.075588e-03 1 -0.8428 5.3304)" class="st3" cx="586.9" cy="95.5" rx="10.9" ry="10.7"/>
<rect x="584.6" y="101.3" transform="matrix(0.9999 -9.999500e-03 9.999500e-03 0.9999 -1.0264 5.8769)" class="st3" width="5.1" height="8.6"/>
<path class="st3" d="M587.5,108.1L587.5,108.1c6.9-0.1,12.6,5.5,12.7,12.5v0l0.1,11l0,0l-25.1,0.2l0,0l-0.1-11
	C575,113.8,580.6,108.1,587.5,108.1C587.5,108.1,587.5,108.1,587.5,108.1z"/>
<path class="st3" d="M578.4,83c0,0,7.2-4.4,8.7-9c2.2,4.2,5.1,8.1,8.5,11.4L578.4,83z"/>
<g class="st0">
	
		<linearGradient id="SVGID_12_" gradientUnits="userSpaceOnUse" x1="412.805" y1="260.35" x2="412.805" y2="386.77" gradientTransform="matrix(1 0 0 -1 0 760)">
		<stop  offset="0" style="stop-color:#808080;stop-opacity:0.25"/>
		<stop  offset="0.54" style="stop-color:#808080;stop-opacity:0.12"/>
		<stop  offset="1" style="stop-color:#808080;stop-opacity:0.1"/>
	</linearGradient>
	<polygon class="st15" points="359,373.2 359,375 398.5,443.4 398.5,484.1 427.4,499.6 427.4,498.7 427.4,443.4 466.6,375 
		466.6,373.2 	"/>
</g>
<rect x="360.2" y="374.1" class="st16" width="104.6" height="1.8"/>
<rect x="360.2" y="374.1" class="st17" width="104.6" height="1.8"/>
<polygon class="st2" points="360.2,375.9 398.6,443.3 398.6,483.5 426.7,497.9 426.7,443.3 464.8,375.9 "/>
<polygon class="st18" points="400.4,483.5 400.4,443.3 362,375.9 360.2,375.9 398.6,443.3 398.6,483.5 "/>
<polygon class="st16" points="398.6,483.5 426.7,498.8 426.7,497.9 400.4,483.5 "/>
<polygon class="st17" points="398.6,483.5 426.7,498.8 426.7,497.9 400.4,483.5 "/>
<linearGradient id="SVGID_13_" gradientUnits="userSpaceOnUse" x1="738.565" y1="4.47" x2="738.565" y2="236.77" gradientTransform="matrix(1 0 0 -1 0 760)">
	<stop  offset="0" style="stop-color:#808080;stop-opacity:0.25"/>
	<stop  offset="0.54" style="stop-color:#808080;stop-opacity:0.12"/>
	<stop  offset="1" style="stop-color:#808080;stop-opacity:0.1"/>
</linearGradient>
<rect x="620" y="523.2" class="st19" width="237.1" height="232.3"/>
<rect x="621.2" y="525" class="st3" width="234.7" height="228.7"/>
<rect x="645" y="544" class="st8" width="187" height="145.2"/>
<rect x="658.3" y="709.6" class="st2" width="165.2" height="7.6"/>
<rect x="684.6" y="724.8" class="st2" width="112.5" height="7.6"/>
<linearGradient id="SVGID_14_" gradientUnits="userSpaceOnUse" x1="427.78" y1="3.57" x2="427.78" y2="237.55" gradientTransform="matrix(1 0 0 -1 0 760)">
	<stop  offset="0" style="stop-color:#808080;stop-opacity:0.25"/>
	<stop  offset="0.54" style="stop-color:#808080;stop-opacity:0.12"/>
	<stop  offset="1" style="stop-color:#808080;stop-opacity:0.1"/>
</linearGradient>
<rect x="308.4" y="522.5" class="st20" width="238.8" height="234"/>
<rect x="309.6" y="524.2" class="st3" width="236.4" height="230.4"/>
<rect x="333.6" y="543.4" class="st8" width="188.4" height="146.2"/>
<rect x="340.6" y="707.2" class="st2" width="166.3" height="7.7"/>
<rect x="367.2" y="722.5" class="st2" width="113.3" height="7.7"/>
<path class="st21" d="M42.1,283.4c0,0-1,111,97,90s101-55,213-11"/>
<path class="st21" d="M776.1,273.4c0,0,1,111-97,90s-101-55-213-11"/>
<path class="st21" d="M424.1,273.4c0,0-13,31,6,46s-2,47-2,47"/>
<path class="st21" d="M157.6,194.7c0,0,15,73,88,73s137,82,123,92"/>
<path class="st21" d="M263.5,153.7c0,0-19.2,35.3,1.9,71.4c10.2,17,26.5,29.3,45.7,34.4c45.3,12.4,65.2,6.6,94.4,81.2"/>
<path class="st21" d="M586.5,155.7c0,0,15.3,18.7-13.4,58.2c-11.4,15.5-27.2,27.3-45.3,33.8c-29,10.8-57.3,41.9-57.3,87.9"/>
<g class="st0">
	<g class="st0">
		
			<linearGradient id="SVGID_15_" gradientUnits="userSpaceOnUse" x1="426.615" y1="691.87" x2="426.615" y2="760" gradientTransform="matrix(1 0 0 -1 0 760)">
			<stop  offset="0" style="stop-color:#808080;stop-opacity:0.25"/>
			<stop  offset="0.54" style="stop-color:#808080;stop-opacity:0.12"/>
			<stop  offset="1" style="stop-color:#808080;stop-opacity:0.1"/>
		</linearGradient>
		<rect x="396.7" class="st22" width="59.9" height="68.1"/>
	</g>
	<rect x="398.6" y="0.9" class="st2" width="56.7" height="67.2"/>
	<circle class="st3" cx="426.3" cy="32.6" r="10.5"/>
	<circle class="st3" cx="426.3" cy="36.1" r="9.5"/>
	<rect x="424.1" y="41.8" class="st3" width="4.4" height="7.6"/>
	<path class="st3" d="M426.8,47.2L426.8,47.2c6,0,10.9,4.9,10.9,10.9c0,0,0,0,0,0v10l0,0h-21.9l0,0v-10
		C415.8,52.1,420.7,47.2,426.8,47.2z"/>
	<path class="st3" d="M421.4,21.5c-0.7,0.4-1.3,0.7-2,1.1c-0.6,0.3-1.1,0.7-1.4,1.3c-0.1,0.2-0.2,0.4-0.3,0.6
		c-0.3,0.3-0.8,0.3-1.2,0.4c-1.4,0.3-2.1,1.9-2.5,3.2c-0.2,0.8-0.4,1.7-0.5,2.5c-0.1,0.5-0.1,1.1,0,1.7c0.1,0.2,0.2,0.4,0.3,0.7
		c0.3,0.9-0.5,1.7-0.7,2.6c-0.1,0.8,0,1.6,0.4,2.3c0.1,0.2,0.2,0.5,0.3,0.7c0.1,0.2,0.3,0.3,0.4,0.4c0.3,0.3,0.5,0.7,0.7,1.1
		c1.5,0.3,3,0.7,4.4,1.3c2.3,0.9,4.6,2.2,7.1,2.1c0.7,0,1.4-0.2,2-0.4c1.2-0.5,2.3-1.3,3.6-1.7c1.2-0.3,2.4-0.5,3.6-0.6
		c0.6-0.1,1.3-0.5,1-1.1c0.6,0.2,1.2,0.1,1.7-0.3c0.4-0.4,0.8-0.9,1-1.5c0.5-0.9,0.9-1.9,1.2-3c0.5-2,0.2-4.1-0.8-5.9
		c-0.2-0.4-0.4-0.7-0.7-0.9c-0.2-0.2-0.5-0.3-0.7-0.4c-0.2-0.2-0.4-0.5-0.5-0.7c-0.8-1.3-1.6-2.6-2.5-3.8c-0.8-1.3-1.9-2.3-3.3-3
		c-2.1-0.8-3.6,0.5-5.6,0.6c-0.9-0.1-1.7-0.2-2.6-0.1C423,20.7,422.2,21.1,421.4,21.5z"/>
</g>
<g class="st0">
	<g class="st0">
		
			<linearGradient id="SVGID_16_" gradientUnits="userSpaceOnUse" x1="713.615" y1="620.87" x2="713.615" y2="689" gradientTransform="matrix(1 0 0 -1 0 760)">
			<stop  offset="0" style="stop-color:#808080;stop-opacity:0.25"/>
			<stop  offset="0.54" style="stop-color:#808080;stop-opacity:0.12"/>
			<stop  offset="1" style="stop-color:#808080;stop-opacity:0.1"/>
		</linearGradient>
		<rect x="683.7" y="71" class="st23" width="59.9" height="68.1"/>
	</g>
	<rect x="685.6" y="71.9" class="st2" width="56.7" height="67.2"/>
	<circle class="st3" cx="713.3" cy="103.6" r="10.5"/>
	<circle class="st3" cx="713.3" cy="107.1" r="9.5"/>
	<rect x="711.1" y="112.8" class="st3" width="4.4" height="7.6"/>
	<path class="st3" d="M713.8,118.2L713.8,118.2c6,0,10.9,4.9,10.9,10.9v10l0,0h-21.9l0,0v-10C702.8,123.1,707.7,118.2,713.8,118.2z"
		/>
	<path class="st3" d="M708.4,92.5c-0.7,0.4-1.3,0.7-2,1.1c-0.6,0.3-1.1,0.7-1.4,1.3c-0.1,0.2-0.2,0.4-0.3,0.6
		c-0.3,0.3-0.8,0.3-1.2,0.4c-1.4,0.3-2.1,1.9-2.5,3.2c-0.2,0.8-0.4,1.7-0.5,2.5c-0.1,0.5-0.1,1.1,0,1.6c0.1,0.2,0.2,0.4,0.3,0.7
		c0.3,0.9-0.5,1.7-0.7,2.6c-0.1,0.8,0,1.6,0.4,2.3c0.1,0.2,0.2,0.5,0.3,0.7c0.1,0.2,0.3,0.3,0.4,0.4c0.3,0.3,0.5,0.7,0.7,1.1
		c1.5,0.3,3,0.7,4.4,1.3c2.3,0.9,4.6,2.2,7.1,2.1c0.7,0,1.4-0.2,2-0.4c1.2-0.5,2.3-1.3,3.6-1.7c1.2-0.3,2.4-0.5,3.6-0.6
		c0.6-0.1,1.3-0.5,1-1.1c0.6,0.2,1.2,0.1,1.7-0.3c0.4-0.4,0.8-0.9,1-1.5c0.5-0.9,0.9-1.9,1.2-2.9c0.5-2,0.2-4.1-0.8-5.9
		c-0.2-0.4-0.4-0.7-0.7-0.9c-0.2-0.2-0.5-0.3-0.7-0.4c-0.2-0.2-0.4-0.5-0.5-0.7c-0.8-1.3-1.6-2.6-2.5-3.8c-0.8-1.3-1.9-2.3-3.3-3
		c-2.1-0.8-3.6,0.5-5.6,0.6c-0.9-0.1-1.7-0.2-2.6-0.1C710,91.7,709.2,92.1,708.4,92.5z"/>
</g>
<circle class="st3" cx="424.4" cy="610.2" r="23.7"/>
<circle class="st3" cx="424.5" cy="618" r="21.5"/>
<rect x="419.7" y="630.9" transform="matrix(1 -9.075588e-03 9.075588e-03 1 -5.7868 3.8807)" class="st3" width="10" height="17.2"/>
<path class="st3" d="M425.8,643.1L425.8,643.1c13.7-0.1,24.8,10.9,25,24.5l0.2,22.6l0,0l-49.5,0.4l0,0l-0.2-22.6
	C401.2,654.4,412.1,643.3,425.8,643.1z"/>
<circle class="st3" cx="424.8" cy="586" r="8.6"/>
<path class="st3" d="M427,572.6c4.5-0.9,9.2,0.6,13.5,2.2c3.7,1.4,7.5,2.9,10.4,5.6c5.5,5.2,6.7,13.4,6.9,20.9s-0.2,15.5,3.1,22.2
	c3.9,7.6,11.8,12.2,20.3,11.9c-4.8,3.2-11.4,2.9-16.7,0.5c-4.7-2.1-8.7-5.7-11.3-10.2c-1.6-3.1-2.9-6.3-4-9.6
	c-3.6-9.8-8.5-19.1-14.5-27.7c-0.9-1.4-2-2.7-3.2-3.8c-1.8-1.4-3.9-2.2-6.2-2.5c-1.8-0.2-5,0.6-6.1-1.2
	C416.9,577.2,424.3,573.1,427,572.6z"/>
<circle class="st3" cx="743.8" cy="612.3" r="22.9"/>
<rect x="738.5" y="626" class="st3" width="10.7" height="18.3"/>
<path class="st3" d="M743.9,639h2.3c13.9,0,25.2,11.3,25.2,25.2v25.2l0,0h-52.8l0,0v-25.2C718.6,650.4,729.9,639,743.9,639
	C743.8,639,743.8,639,743.9,639z"/>
<path class="st3" d="M769.5,635.4c-1,1-48,3-51,0c2-10,0-34.5,0-34.5c0-14.1,11.4-25.5,25.5-25.5l0,0l0,0
	c14.1,0,25.5,11.4,25.5,25.5l0,0C769.5,600.9,766.5,631.4,769.5,635.4z"/>
</svg>
