<?xml version="1.0" encoding="utf-8"?>
<!-- Generator: Adobe Illustrator 25.1.0, SVG Export Plug-In . SVG Version: 6.00 Build 0)  -->
<svg version="1.1" id="color" xmlns="http://www.w3.org/2000/svg" xmlns:xlink="http://www.w3.org/1999/xlink" x="0px" y="0px"
	 viewBox="0 0 512 512" style="enable-background:new 0 0 512 512;" xml:space="preserve">
<style type="text/css">
	.st0{fill:#AFAFAF;}
	.st1{fill:#2D393D;}
	.st2{fill:#747474;}
	.st3{fill:#FF4633;}
</style>
<path class="st0" d="M300,212c-8.3-8.3-8.3-21.8,0-30.2l95.2-95.1c8.3-8.3,21.8-8.3,30.2,0c8.3,8.3,8.3,21.8,0,30.2L330.2,212
	C321.8,220.3,308.3,220.3,300,212z"/>
<path class="st0" d="M425.3,86.7L300,212c4.2,4.2,9.6,6.3,15.1,6.3c5.5,0,10.9-2.1,15.1-6.3l95.2-95.1
	C433.7,108.5,433.7,95,425.3,86.7z"/>
<path class="st1" d="M280,426.8c-7.8-8.8-7-22.3,1.7-30.1l112.2-99.8c8.8-7.8,22.3-7.1,30.1,1.8c7.8,8.8,7,22.3-1.7,30.1
	l-112.2,99.8C301.3,436.4,287.8,435.6,280,426.8L280,426.8z"/>
<path class="st1" d="M424,298.6L280,426.8c4.2,4.8,10.1,7.2,15.9,7.2c5.1,0,10.1-1.8,14.2-5.4l112.2-99.8
	C431.1,320.9,431.9,307.4,424,298.6L424,298.6z"/>
<path class="st0" d="M88.9,385.4c-7.4-9.2-5.8-22.6,3.3-30l130.1-104.1c9.2-7.4,22.6-5.9,30,3.3s5.8,22.6-3.3,30L118.9,388.7
	C109.7,396.1,96.3,394.6,88.9,385.4L88.9,385.4z"/>
<path class="st0" d="M252.4,254.6L88.9,385.4c4.2,5.3,10.4,8,16.7,8c4.7,0,9.4-1.5,13.3-4.7l130.1-104.1
	C258.2,277.2,259.8,263.8,252.4,254.6L252.4,254.6z"/>
<path class="st1" d="M209.9,413.8L95.1,227.3c-6.2-10-3.1-23.2,7-29.4c10-6.2,23.2-3.1,29.4,7l114.8,186.5c6.2,10,3.1,23.2-7,29.4
	C229.3,426.9,216.1,423.9,209.9,413.8z"/>
<path class="st1" d="M102.1,197.9c-10,6.2-13.1,19.3-7,29.4l114.8,186.5c4,6.6,11.1,10.2,18.2,10.2c3.8,0,7.7-1,11.2-3.2
	L102.1,197.9z"/>
<g>
	<path class="st2" d="M64,469.3c-35.3,0-64-28.7-64-64s28.7-64,64-64s64,28.7,64,64S99.3,469.3,64,469.3z"/>
	<path class="st2" d="M277.3,298.7c-35.3,0-64-28.7-64-64s28.7-64,64-64s64,28.7,64,64S312.6,298.7,277.3,298.7z"/>
	<path class="st3" d="M85.3,234.7c-35.3,0-64-28.7-64-64s28.7-64,64-64s64,28.7,64,64S120.6,234.7,85.3,234.7z"/>
	<path class="st3" d="M448,341.3c-35.3,0-64-28.7-64-64s28.7-64,64-64s64,28.7,64,64S483.3,341.3,448,341.3z"/>
</g>
<path class="st3" d="M448,213.3c-35.3,0-64,28.7-64,64s28.7,64,64,64V213.3z"/>
<path class="st2" d="M277.3,170.7c-35.3,0-64,28.7-64,64s28.7,64,64,64V170.7z"/>
<path class="st3" d="M85.3,106.7c-35.3,0-64,28.7-64,64s28.7,64,64,64V106.7z"/>
<path class="st2" d="M64,341.3c-35.3,0-64,28.7-64,64s28.7,64,64,64V341.3z"/>
<path class="st3" d="M256,512c-35.3,0-64-28.7-64-64s28.7-64,64-64s64,28.7,64,64S291.3,512,256,512z"/>
<path class="st2" d="M448,128c-35.3,0-64-28.7-64-64s28.7-64,64-64s64,28.7,64,64S483.3,128,448,128z"/>
<path class="st2" d="M448,0c-35.3,0-64,28.7-64,64s28.7,64,64,64V0z"/>
<path class="st3" d="M256,384c-35.3,0-64,28.7-64,64s28.7,64,64,64V384z"/>
</svg>
